<svg xmlns="http://www.w3.org/2000/svg" viewBox="0 0 164.65 147.96"><defs><style>.cls-1{fill:#040405;}.cls-2{fill:#1e1e1e;}.cls-3{fill:#fff;}</style></defs><g id="Laag_2" data-name="Laag 2"><g id="Laag_1-2" data-name="Laag 1"><g id="_2jKpUi" data-name="2jKpUi"><path class="cls-1" d="M113.48.23a1.53,1.53,0,0,1,1.06.35c.13.35.38.39.7.29a4.58,4.58,0,0,1,2.24,1.39.75.75,0,0,0,.78.81h0a.44.44,0,0,0,.4.53l.15.22a1.47,1.47,0,0,0,1.35,1.34l2.75,1.4a.67.67,0,0,0-.15-1c-1.08-.81-.11-1.57.19-2.1s1,0,1.52.23A7.76,7.76,0,0,1,129.28,9a5.11,5.11,0,0,0,1.26,2.16c.22-3.12-1.12-5.76-1.61-8.61,2.58,2.53,3.24,6.43,6.35,8.52A3.79,3.79,0,0,0,135,9.49c0-.25-.16-.56.16-.69s.5.15.63.36A7.32,7.32,0,0,1,137.4,13c-.06,1.8.87,2.92,1.93,4.17a5.42,5.42,0,0,1,.78-3.35c.14-.24.28-.49.58-.45s.25.4.28.63c.37,3,.58,6-.65,9,2.07-.12,3.86.07,5.11,2.17a3.52,3.52,0,0,0-4.16,1.67,12.93,12.93,0,0,0-2,4.32,6.3,6.3,0,0,0,3.28-3c.14-.33.27-.87.76-.78s.4.64.38,1a7.79,7.79,0,0,1-2.91,5.85c-.81.66-1.88,1.06-2.37,2.21.62.1.93-.38,1.37-.42l0,1a1.34,1.34,0,0,1-.54.77.46.46,0,0,0-.51.56h0c-.39,0-.57.16-.55.54a4.54,4.54,0,0,1-1.58,1c-.47.08-1.12.16-1.25.55-.27.81,1.09.38,1.07,1.24-.85-.08-1.56.61-2.45.34a3.44,3.44,0,0,1-1.56-.11,2.31,2.31,0,0,0-2.58.76,18.28,18.28,0,0,1-2.69,3.07c-.45.13-.49.31-.08.57a10.12,10.12,0,0,0,.83,3.71h-1.14a4.08,4.08,0,0,1-.92-2.54c0-.53.1-1.17-.47-1.57v-.8l1.34-1.48c.56-.37.09-.52-.15-.72s-.7-.05-.11-.38c.36-.2.4-.5,0-.67a.51.51,0,0,0-.7.4,15.46,15.46,0,0,0-.26,1.54c-.42.23-.83.48-1.27.69a11.43,11.43,0,0,0-4,2.68c-.19,0-.41-.27-.54,0s.14.27.29.35l-.28.44-.88-.08a9,9,0,0,1,0-2.28L116,48.33c-.28-.68.08-1.29,0-2-.8.54-1.52,1-2.19,1.46-1.16.86-1.11,1.35.25,1.88a43.84,43.84,0,0,1,5.19,2.56l-.24.82-4-1.76c-.07-.36-.22-.53-.53-.18L114,51c-.18-.52-.46-.51-.81-.15-.42,0-.81,0-1-.42,0-.37-.56-.4-.51-.84,0-.28.85-.63,0-.83-.47-.12-1.16-.33-1.42.45v0c-.48,0-1-.19-1.32.43l-.53,0-.28-.37c-.07-.35.24-.53.38-.79a1.16,1.16,0,0,0,.75-1.72c-.37.49-1.06.72-1.1,1.42l-1.69,1.88-.34-.4c1.21-2.2,1-4.51.47-6.89-1.26.56-1.61,1.85-2.36,2.81l-.55,0c0-2.33,1.08-4.39,1.85-6.51.33-.9.09-1.24-.7-1.54-1.45-.53-2.88-1.1-4.31-1.66-.24-.09-.57-.19-.53-.5,0-.49.48-.27.74-.27,1.53,0,3.07.1,4.61.13.39,0,.86.34,1.19-.17-.27-.26-.82-.15-.88-.76.33-.31,1-.09,1.22-.55s.24-.6.54-.62c2.46-.17,4.38-1.49,6.18-3A5,5,0,0,0,115,27.71c.13-.42.26-.93-.38-1.07-.88-.2-1.78-.58-2.65.06s-2,.36-2.68,1.34c-1.13-.05-1.9.85-2.9,1.14-.29.08-.6.37-.83.05s.07-.57.26-.81a21.76,21.76,0,0,1,4-4.06c.48-.37.63-.6.27-1.26a6.21,6.21,0,0,1-.68-5.2c.13-.36.21-.85.67-.89s.57.48.74.81c.81,1.57,1.62,3.13,3.28,4,.26.49.44.38.58-.07l-.28-2.48c.35-.31.19-.46-.17-.54-.11-.36-.4-.66-.33-1.06.34-.4.08-.48-.27-.53l-.54-1.6c.31-.21.22-.39-.06-.53-.07-.16-.16-.32-.22-.48-.6-1.42-.6-1.4-1.6-.24-1.17,1.36-2.4,2.66-3.6,4-.36-.06-.64-.19-.66-.61a9.35,9.35,0,0,1,1.66-1.84c.36,0,.48-.23.46-.56a4,4,0,0,1,.89-1.29c1-.2.76-1.08.91-1.74a1.25,1.25,0,0,0-.11-1.34,1,1,0,0,1-.17-1.2l.29-.06.28.25c.19.42.55.48.81.19.47-.53.08-1-.25-1.43,0-.2-.09-.39-.14-.59.13-.46.34-.92-.18-1.29l0-.49a5.2,5.2,0,0,1,.73-.53c.23-.11.58-.16.52-.48s-.45-.35-.76-.39l.33-.5a.85.85,0,0,1,1,.75.53.53,0,0,1,0,.13,2,2,0,0,0,.84,2.07l.1.24c.15.79.4,1.5,1.37,1.59l2.35.83c.51.42.58,0,.54-.35a2.11,2.11,0,0,0-1-1.8l-.65-1.27c0-.49-.13-.95-.68-1.12l-.9-1.31c0-.31,0-.58-.47-.48-.23-.07-.49-.18-.57.19h0c.53-.5-.21-.57-.29-.86s-.27-.48-.61-.44l-.74-.35c0-.41-.23-1.19-.57-.82-.76.8-1.31.16-2,.07.22-.82.93-.58,1.49-.67C112.31,1.4,112.71.14,113.48.23Z"/><path class="cls-2" d="M106.86,17.66c0,.42.3.55.66.61a5.33,5.33,0,0,1-.65.82,41.12,41.12,0,0,1-5,3.67,16.24,16.24,0,0,0-5.07,5.29c-1.41,2.17-2.49,4.57-4.35,6.44-1,1-.59,2.16-.16,3.21a13,13,0,0,0,1.31,2c2.11,3.12,1.66,6-.47,8.36-1.48,1.67-3.19,3.16-4.4,5.32a51.88,51.88,0,0,0,7.65-2.68c-.21.39-.24.55-.33.6a38.9,38.9,0,0,1-9.48,4c-3.61.83-7.24,1.58-10.89,2.2a13.5,13.5,0,0,0-10.25,7.14A91,91,0,0,0,60.3,76.26a45.47,45.47,0,0,1-1.8,5.27V79.74c-2,1.56-4,3-5.85,4.52a17.34,17.34,0,0,0-6.34,9.18c-.36,1.28-.51,2.58-.79,3.88a2.29,2.29,0,0,1-.18-1.77c.7-2.59,1.42-5.17,2.14-7.76.18-.66.58-1.29,0-2-1.21-1.38-2.38-2.81-3.64-4.14A72.38,72.38,0,0,1,34,68.73,7.72,7.72,0,0,1,33.31,63c.37-2,2-3,3.33-4.14C38.37,57.41,40,56,39.76,53.38a6.32,6.32,0,0,1,2.59-5.52,4.36,4.36,0,0,0,1.48-2c-2.55-.13-5.69,1.78-6.14,4.77S34,55.15,31.2,54.44a12.7,12.7,0,0,1-8.42-6.22,22.83,22.83,0,0,1-2.2-6.62,3.22,3.22,0,0,0-2.41-2.83c-.31-.08-.69-.38-1,0s0,.58.14.86c.88,2.59,1.9,5.14,2.59,7.78.63,2.39,1,4.84,2.76,6.75.05,0-.06.23-.16.58-.87-1.44-2.08-1-3.29-1-2.62,0-4.57-1.43-6.23-3.3a1.5,1.5,0,0,1-.29-1.11c.22-1.45,0-2.91.26-4.36.35-2.17-.37-3.66-2.1-4.35.62,2.94-.11,5.7-.4,8.49a5.11,5.11,0,0,0,2.27,5.13c1.61,1.1,3.37,1.94,5,3,.22.15.77,0,.59.52s-.66.34-1,.13-.65-.47-1-.65a1.92,1.92,0,0,0-2.48,0,6.55,6.55,0,0,1-4.93,1,2.5,2.5,0,0,1-1.93-1.21c-.86-1.33-1.83-2.59-2.77-3.87A3,3,0,0,0,2,51.91c-.37,0-.75,0-1,.3s.15.55.3.79c1.5,2.5,3.28,4.83,4.79,7.31,1.13,1.85,2.61,2,4.37,1.89.22,0,.43-.09.65-.1a20.17,20.17,0,0,1,7.1.36,25.84,25.84,0,0,1,6.84,3.44A8.41,8.41,0,0,1,28,69.23a64.28,64.28,0,0,1,3.07,7.46c2.32,6.3,5.26,12.36,7,18.86a36.94,36.94,0,0,0,8,14.29c.92,1.09,1.79,1.2,2.81.17s2.1-2.39,3.21-3.52A35.91,35.91,0,0,1,61,99.67a32.48,32.48,0,0,0,6.77-4.84c2.33-2.13,4.21-4.64,6.39-6.89a31,31,0,0,1,5.3-4.66h0a3.05,3.05,0,0,1-1.18,1.79c-.81.75-1.63,1.49-2.46,2.23-2,1.83-3.54,4.16-5.52,6.06-1.71,1.65-3.38,3.33-5.06,5a1.53,1.53,0,0,0-.54,1,24.34,24.34,0,0,0,1.48,10.78c.45,1.1,1.34,2,1.28,3.38a84.06,84.06,0,0,0,.76,13.08,120.35,120.35,0,0,0,2.62,14.6,29.1,29.1,0,0,0,1.68,5.53,40.06,40.06,0,0,1,4.58-7,34.61,34.61,0,0,1,9.67-8.7c.5.38,1,.1,1.55.09a28.4,28.4,0,0,0-7,5.18,34.24,34.24,0,0,0-5.82,8.14,20.75,20.75,0,0,1-1.62,2.72c-.84,1.21-1.85,1.06-2.41-.27a66.08,66.08,0,0,1-4.25-18.25C66.83,124.73,66,120.87,66,117a16.86,16.86,0,0,0-1.61-7.52c-.85-1.75-.79-3.78-.84-5.72,0-.8-.05-1.58-.11-2.36-.08-1.09-.19-1.43-1.41-.86a30.08,30.08,0,0,0-10.44,8.34A10.55,10.55,0,0,1,49,111.27a2.78,2.78,0,0,1-4-.87c-1.48-2.14-3-4.3-4.52-6.38s-2-4.32-2.94-6.49c-1.61-3.59-2.28-7.54-3.87-11.1C31.13,80.74,29.77,74.61,27,69c-.8-1.57-2.19-2.38-3.52-3.3-3.8-2.61-8-3.16-12.51-2.59-.79.11-1.59.1-2.38.18a2.29,2.29,0,0,1-2.1-.87A53.82,53.82,0,0,1,.27,53.11c-.71-1.31.13-1.57.9-1.86a3.56,3.56,0,0,1,4,1.33c1,1.37,2,2.79,3,4.21.49.72,2.13.82,3.17.15a1.79,1.79,0,0,0,.23-2.45C9.44,52.58,9.4,50.1,9.67,47.61A58.49,58.49,0,0,0,10,40.87c0-.47-.15-1,.42-1.3s.81.23,1.22.47c2.28,1.33,2.66,3.45,2.51,5.82.17,0,.27,0,.31-.06,1.1-1.37,1.59-1.29,2.31.31a3.45,3.45,0,0,1-.05,3.61c-1,1.61-.67,2.16,1.29,2.68.66.18,1.48.68,2,.12s-.26-1.1-.41-1.68c-.81-3.07-1.61-6.15-2.47-9.21-.23-.84-.64-1.64-.94-2.47-.38-1.07-.14-1.39,1-1.35A4.72,4.72,0,0,1,22,42.76a11.16,11.16,0,0,0,7,9.67,16.82,16.82,0,0,1,2,.72,3.43,3.43,0,0,0,3.89-.26c1-.72,1.82-1.3,1.91-2.72.21-3.15,2.65-4.35,5.15-5.39,1-.43,1.89.21,2.77.57.47.2.27.64.08,1a9.5,9.5,0,0,1-2.28,3,5.5,5.5,0,0,0-2.07,4.62,5.7,5.7,0,0,1-2.38,5c-.68.56-1.29,1.22-2,1.79A6.4,6.4,0,0,0,33.83,66c0,1.7,1.3,2.93,2.18,4.26A86.42,86.42,0,0,0,47.37,83.54c1.83,1.82,1.75,1.88,3.54.08a18,18,0,0,1,5-3.28,6.81,6.81,0,0,0,3.63-4.83,48.41,48.41,0,0,1,5.32-12.22,14,14,0,0,1,11.44-7.06c.46,0,.92-.14,1.57-.24l-5-7A10.42,10.42,0,0,0,72,48c-.31-.33-.44-1.09-1-.86s-.17.89-.27,1.35.23.88,0,1.45c-.54,1.75-.06,2.42,1.75,2.77a20.74,20.74,0,0,1,2.2.48c-1.67.77-3.36,1.67-5.24,1.1-1.19-.36-1.31-1.56-1.23-2.65a9.7,9.7,0,0,1,1.56-4.05c.94-1.65.94-1.82-.61-3.16-.51.09.11.92-.65.93s-.69-.54-.93-.93a81.4,81.4,0,0,1-5-9.15,7,7,0,0,1-.4-.83c-.07-.26-.44-.58,0-.8.27-.14.49.11.67.32,2.63,3,5.78,5.58,8.24,8.77a5,5,0,0,1,.59.86c.06.12,0,.32,0,.49,0,0,.09,0,.09-.06,0-.32-.2-.32-.41-.29-.59.08-1-1-1.48-.43s.35,1,.66,1.48c2.48,3.48,5.05,6.9,7.56,10.35a1.26,1.26,0,0,0,1.56.58c2.08-.6,4.18-1.12,6.27-1.69a3.32,3.32,0,0,0,1.69-1.23c1.67-2.21,3.83-4,5.41-6.28a4.71,4.71,0,0,0,.63-5A8.35,8.35,0,0,0,92,39c-1.12-1.15-1.12-2.54-1-4a1.89,1.89,0,0,1,.64-1.27c2.53-2.35,3.91-5.54,5.89-8.29.62-.86.59-2.19.82-3.31a2.17,2.17,0,0,1,1.62-1.72C102.29,19.69,104.77,19.16,106.86,17.66ZM15.05,50.81c.42-.77.82-1.54,1.26-2.29a1.68,1.68,0,0,0-.17-1.86c-.13-.22-.25-.47-.61-.32C14.1,47,13.78,49.6,15.05,50.81Zm88.9-31c-.88.33-1.74.73-2.64,1-2,.55-2.32.88-2.39,3.27C100.5,22.35,102.6,21.52,104,19.81ZM69.58,51.23c-.24,1.05,0,1.77,1.3,1.78A2.57,2.57,0,0,1,69.58,51.23Z"/><path class="cls-2" d="M134,42.08c.89.27,1.6-.42,2.45-.34,0-.86-1.34-.43-1.07-1.24.13-.39.78-.47,1.25-.55.41.6,1,.55,1.63.5.37,0,.93-.21,1,.26s-.5.49-.84.66a6.62,6.62,0,0,1-2.5.81c-.43,0-.79,0-.76.64s.33.68.75.75a5.88,5.88,0,0,0,3-.36,4.94,4.94,0,0,0,2.77-1.93c.47-.79,1.35-.76,2-1.09,1.62-.79,1.77-1,.94-2.57a5.43,5.43,0,0,1-.36-4.82c.27-.64.53-.72,1.18-.56,2.3.59,2.73,2.54,3.34,4.38a11.69,11.69,0,0,1,.35,3c0,.24,0,.6.35.61.16,0,.37-.22.47-.39.9-1.48,1.84-2.79,1.7-4.81a6.81,6.81,0,0,1,2.43-5.12c.39-.38,1-.8,1.55-.48a1.39,1.39,0,0,1,.54,1.64,5.8,5.8,0,0,0,0,2.62c.14.54.32.55.7.26l.11-.08c1.08-.79,2.51-1.22,3.41-.39s-.21,1.93-.63,2.87c-.19.22-.77.33-.42.71s.47-.26.74-.35a15.58,15.58,0,0,1,3.14-.95c.43-.05.93-.13,1.22.31a1.15,1.15,0,0,1-.14,1.33c-2.2,3.13-4,6.68-8.2,7.71a21,21,0,0,0-3.39,1.46,1.27,1.27,0,0,0-.57.32c-1.69,2.63-4.74,2.83-7.25,3.94a68.81,68.81,0,0,1-7.15,2.37,2,2,0,0,0-1.57,1.89c-.62,5.7-1.5,11.35-1,17.14a74.27,74.27,0,0,1-.15,15.2c-.45,3.52-2.69,5.72-5.11,7.88-.34.3-.64.1-1,0A22.57,22.57,0,0,1,119.33,90,19,19,0,0,1,117,86.71c.41,0,.75,0,.77-.55a26.22,26.22,0,0,0,9.75,7.71,1.76,1.76,0,0,0,2.16-.17A12.83,12.83,0,0,0,134,86.91c.61-2.48.29-5,.15-7.51a111.92,111.92,0,0,1,1-24.33A3.73,3.73,0,0,1,138,51.88c3.5-1.24,6.94-2.63,10.42-3.91a4.3,4.3,0,0,0,2.46-2.57c.69-1.57,1.38-3.16,2.22-4.66,2.49-4.42,2.69-5.23,2.13-10.57a7.4,7.4,0,0,0-2.28,5.4c.11,2.43-1.27,4-2.53,5.71A2.78,2.78,0,0,1,148,42.52a13.81,13.81,0,0,0-4.1.86,47.9,47.9,0,0,1-8,1.62A1.54,1.54,0,0,1,134,43.39C134,43,134,42.52,134,42.08Zm20.68-1.29a2.83,2.83,0,0,0,2.09-1,21.87,21.87,0,0,0,2.81-5.44,2.5,2.5,0,0,0-1.85.74c-1.55,1.56-2.18,3.67-3.23,5.52-.09.11-.13.23,0,.31S154.63,40.84,154.68,40.79Zm-2.41,4.49a36.67,36.67,0,0,1,4.32-1.57A8.32,8.32,0,0,0,161.53,40c.58-.83,1.12-1.68,1.78-2.45.17-.19.48-.4.24-.65a.92.92,0,0,0-.74-.11,7.21,7.21,0,0,0-2.6,1.53,18.56,18.56,0,0,1-5.8,3.59c-1.95.64-2.15,1.13-2.12,3.43-.07-.11-.14-.11-.19,0s0,.08,0,.12Zm-9.4-2.69c1.86,0,3.48-.87,5.2-1.31.42-.11.45-.45.42-.84a21.55,21.55,0,0,0-1.05-5,3.52,3.52,0,0,0-1-1.7c-.37-.32-.78-.81-1.23-.63s-.45.88-.4,1.42a10.5,10.5,0,0,0,1,3.26c.82,1.86.38,2.83-1.48,3.61C143.8,41.62,143.14,41.84,142.87,42.59Z"/><path class="cls-1" d="M88.34,131.1c-.52,0-1,.29-1.55-.09,2.66-2.5,6-3.4,9.46-4.16a.65.65,0,0,0,1.07-.06,1.34,1.34,0,0,1,1,0c.21.43.57.35.93.28l1.48.66.24.2,2.38,1.6c.24-.69-.35-1.2-.26-1.81a1.24,1.24,0,0,0-.6-1.41l-.91-2.92c.33-.39.06-.47-.28-.52l-2.77-6.48c.11-.32.07-.59-.3-.7A14.09,14.09,0,0,1,97,107.08c.06-.52-.34-.44-.64-.5.5-1.11,1-2.24,1.5-3.33,1.44-2.89,2.49-6,4.5-8.56.47-.07.55-.34.4-.74a6.83,6.83,0,0,1,1-1.91c.45-.32.43-.89.69-1.31,1.08-1.67,1.61-3.59,2.54-5.33a1.06,1.06,0,0,0,.57-1.22L109,80.77a2,2,0,0,1,1.18.15l-.66,1.54a3.51,3.51,0,0,0-1,2.28l-.78,1.69a1.06,1.06,0,0,0-.56,1.2l-.25.4c-.34.12-.36.38-.27.68l-.24.38a1.07,1.07,0,0,0-.57,1.19l-.59,1.22c-.29,1-1.12,1.66-1.32,2.66a2.93,2.93,0,0,1-.64,1.31c-.56.18-.65.64-.66,1.14l-2.1,4.43a.47.47,0,0,0-.27.66l-.21.4a1.06,1.06,0,0,0-.57,1.22l-1.11,2c-.27.13-.4.28-.1.53l-.17.8a9.23,9.23,0,0,0,0,4.81l.14.54c-.3.24-.16.4.11.52l.15.54c-.35.63-.05,1,.48,1.32a16.27,16.27,0,0,1,1.2,2.9c0,.36,0,.74.46.81.13.39.27.78.41,1.17-.11.3-.09.56.25.7l1.08,2.48a2.65,2.65,0,0,0,.86,2A4.43,4.43,0,0,1,104,126c0,.33-.11.66.27.85l.43,1.34c-.3.25-.15.4.11.52a7.26,7.26,0,0,1,.36,2.44.8.8,0,0,0,.12,1c0,2.48.68,5-.47,7.42a.49.49,0,0,0-.23.71l-.15.36c-.34,0-.48.2-.47.53h0l-.8.28a1.86,1.86,0,0,1-.65-1.4c.15-.32.14-.58-.21-.75l-.78-2.5a.49.49,0,0,0-.25-.68c-.46-1.09-.91-2.19-1.36-3.28a1.75,1.75,0,0,0-.89-1.76c-.45-.75-.92-1.48-1.34-2.24a1.18,1.18,0,0,0-1.4-.67.47.47,0,0,0-.51.13l-.59.06c-.3-.29-.56-.24-.78.1l-.89.05c-.32-.12-.58-.08-.71.28A37.4,37.4,0,0,1,88.34,131.1Z"/><path class="cls-1" d="M117,108l.75.44c.07.32.29.4.58.36a1.19,1.19,0,0,1,.75.44.72.72,0,0,0,.87.61c.85.23,1.17,1,1.65,1.63a42.57,42.57,0,0,1,4.32,5.66c.8,1.43,2,2,3.17,2.89a9.54,9.54,0,0,1,1.54,2.17c-1.68-.37-2.83-1.38-4.37-1.57.31,1,.58,2,.89,2.93.1.3.28.59-.07.81s-.57,0-.77-.29c-1.53-1.81-3.13-3.58-4.54-5.49a9.32,9.32,0,0,1-.88-2.73c-.35.89-.76,1-1.37.32a14.77,14.77,0,0,1-3.92-8.69l.36,0,.24.21A.82.82,0,0,0,117,108Z"/><path class="cls-2" d="M68.11,25.2c.06,3.25,2.36,5.64,3.13,8.68.27-.44.16-1.1,1-.72a3.45,3.45,0,0,1,1.9,4.66c-.43,1.08-.63,2.29-1.6,3.09-.33.28-.12.72-.34,1,.66-.92.43-2,.71-3.06.36-1.3-.46-2.36-1.18-3.38C70.56,33.93,69,32.72,68.08,31A7.19,7.19,0,0,1,68.11,25.2Zm3.63,9.27.27.24,1.33,2c-.26-1.2-.62-1.71-1.35-2,0-.1.2-.16,0-.31s-.2.06-.3.09.07-.18.1-.27l-.1,0Z"/><path class="cls-2" d="M115.94,107.41l-.36,0q-3-4.06-6-8.14-1.84-2.51-3.65-5c-1-1.36-1-1.37-1.94-.11.2-1,1-1.7,1.32-2.66a2.46,2.46,0,0,0,.61,1.78c3.28,4.46,6.53,8.94,9.8,13.41A1.08,1.08,0,0,1,115.94,107.41Z"/><path class="cls-1" d="M117.76,86.16c0,.51-.36.58-.77.55l-1.9-2.64c0-.32-.09-.52-.43-.55a3.15,3.15,0,0,1-.93-1.26.71.71,0,0,0-.58-.87l-.44-.55a.45.45,0,0,0-.44-.51l-.35-.44c-.25-.5-.53-.47-.83,0l-.38.19a4.85,4.85,0,0,0-1.7.73l2.46-5.64c.09-.21.21-.38.49-.3l.45.46a5.6,5.6,0,0,1-.7,2.11c-.53.42-.47.7.2.81,1.24.7,1.63,2.06,2.43,3.1,0,.35,0,.6.44.63A28.94,28.94,0,0,1,117.76,86.16Z"/><path class="cls-2" d="M67.67,23.49c.27-1,.17-2.12,1-2.94a.66.66,0,0,1,.84-.16c.39.25.07.54-.07.79-.47.82-1,1.64-1.44,2.46Z"/><path class="cls-2" d="M65.77,54.6c-.6-.05-1.19-.14-1.23-.89,0-.53.38-.71.8-.54s1.39-.25,1.45.71C66.83,54.52,66.27,54.59,65.77,54.6Z"/><path class="cls-2" d="M98.14,111.43a9.23,9.23,0,0,1,0-4.81Z"/><path class="cls-2" d="M76.18,41.91c-.5.05-.74-.13-.75-.49a.86.86,0,0,1,.85-1,.46.46,0,0,1,.56.54A1,1,0,0,1,76.18,41.91Z"/><path class="cls-2" d="M109.92,1.45c.64.09,1.19.73,2-.07.34-.37.53.41.57.82l-2.14-.14C109.88,2,109.8,1.8,109.92,1.45Z"/><path class="cls-2" d="M139.8,37.08l0-1c.51-.16.79-1.21,1.26-.75s-.45.93-.74,1.4C140.2,36.86,140,37,139.8,37.08Z"/><path class="cls-2" d="M113.09,5.12a.85.85,0,0,0-1-.75c.44-1.05,1.3-.42,2-.52h0Z"/><path class="cls-2" d="M113.48.23c-.77-.09-1.17,1.17-2.07.55C112.18.91,112.53-.54,113.48.23Z"/><path class="cls-2" d="M111.76,4.87c.31,0,.69,0,.76.39s-.29.37-.52.48a5.2,5.2,0,0,0-.73.53A2.52,2.52,0,0,1,111.76,4.87Z"/><path class="cls-2" d="M108.52,84.74a3.51,3.51,0,0,1,1-2.28A6.75,6.75,0,0,1,108.52,84.74Z"/><path class="cls-2" d="M111.63,8.64c.33.44.72.9.25,1.43-.26.29-.62.23-.81-.19C112.43,10,111.27,9,111.63,8.64Z"/><path class="cls-2" d="M110.78,12.23c-.15.66.13,1.54-.91,1.74A5.56,5.56,0,0,1,110.78,12.23Z"/><path class="cls-2" d="M103.28,124.44a2.65,2.65,0,0,1-.86-2A5.61,5.61,0,0,1,103.28,124.44Z"/><path class="cls-2" d="M120.17,5.17a1.47,1.47,0,0,1-1.35-1.34Z"/><path class="cls-2" d="M99,131.06a1.75,1.75,0,0,1,.89,1.76C99.58,132.23,99.28,131.65,99,131.06Z"/><path class="cls-2" d="M109,80.77a4.85,4.85,0,0,1,1.7-.73l-.53.88a2,2,0,0,0-1.18-.15Z"/><path class="cls-2" d="M99,114.35c-.53-.3-.83-.69-.48-1.32Z"/><path class="cls-2" d="M111.31,6.76c.52.37.31.83.18,1.29A1.86,1.86,0,0,1,111.31,6.76Z"/><path class="cls-2" d="M105.85,90.28a1.07,1.07,0,0,1,.57-1.19A2.14,2.14,0,0,1,105.85,90.28Z"/><path class="cls-2" d="M107.18,87.63a1.06,1.06,0,0,1,.56-1.2A2.3,2.3,0,0,1,107.18,87.63Z"/><path class="cls-2" d="M99.49,103.32a1.06,1.06,0,0,1,.57-1.22A2.55,2.55,0,0,1,99.49,103.32Z"/><path class="cls-2" d="M102.64,96.61c0-.5.1-1,.66-1.14A2,2,0,0,1,102.64,96.61Z"/><path class="cls-2" d="M119.93,109.8a.72.72,0,0,1-.87-.61A1.72,1.72,0,0,1,119.93,109.8Z"/><path class="cls-2" d="M113.15,81.39a.71.71,0,0,1,.58.87A1.26,1.26,0,0,1,113.15,81.39Z"/><path class="cls-2" d="M118.26,3.07a.75.75,0,0,1-.78-.81A1.17,1.17,0,0,1,118.26,3.07Z"/><path class="cls-2" d="M104.23,126.83c-.38-.19-.32-.52-.27-.85A.74.74,0,0,1,104.23,126.83Z"/><path class="cls-2" d="M110.79,9.63l-.29.06c-.13,0-.21-.18-.08-.24S110.76,9.36,110.79,9.63Z"/><path class="cls-2" d="M94.37,128.44c.22-.34.48-.39.78-.1A.81.81,0,0,1,94.37,128.44Z"/><path class="cls-2" d="M111.09,79.85c.3-.43.58-.46.83,0Z"/><path class="cls-2" d="M105.25,132.13a.8.8,0,0,1-.12-1A1.11,1.11,0,0,1,105.25,132.13Z"/><path class="cls-2" d="M117,108a.82.82,0,0,1-.8-.33C116.49,107.61,116.81,107.6,117,108Z"/><path class="cls-2" d="M103.13,141.43l.8-.28C103.73,141.45,103.55,141.79,103.13,141.43Z"/><path class="cls-2" d="M100.68,118.06c-.51-.07-.47-.45-.46-.81A.94.94,0,0,1,100.68,118.06Z"/><path class="cls-2" d="M106.66,88.71c-.09-.3-.07-.56.27-.68A.81.81,0,0,1,106.66,88.71Z"/><path class="cls-2" d="M114.66,83.52c.34,0,.46.23.43.55A.61.61,0,0,1,114.66,83.52Z"/><path class="cls-2" d="M103.93,141.15c0-.33.13-.52.47-.53A.7.7,0,0,1,103.93,141.15Z"/><path class="cls-2" d="M138.21,38.94c0-.38.16-.56.55-.54A.85.85,0,0,1,138.21,38.94Z"/><path class="cls-2" d="M104.55,140.26a.49.49,0,0,1,.23-.71A.73.73,0,0,1,104.55,140.26Z"/><path class="cls-2" d="M102.27,139.28c.35.17.36.43.21.75A.93.93,0,0,1,102.27,139.28Z"/><path class="cls-2" d="M101.24,136.1a.49.49,0,0,1,.25.68A.67.67,0,0,1,101.24,136.1Z"/><path class="cls-2" d="M113.18,2.55c.34,0,.56.08.61.44A.84.84,0,0,1,113.18,2.55Z"/><path class="cls-2" d="M138.75,38.41a.46.46,0,0,1,.51-.56A.7.7,0,0,1,138.75,38.41Z"/><path class="cls-2" d="M100.27,101.7a.47.47,0,0,1,.27-.66A.66.66,0,0,1,100.27,101.7Z"/><path class="cls-2" d="M98.28,105.82c-.3-.25-.17-.4.1-.53Z"/><path class="cls-2" d="M109,15.26c0,.33-.1.54-.46.56A.77.77,0,0,1,109,15.26Z"/><path class="cls-2" d="M115.24.87c-.32.1-.57.06-.7-.29A.93.93,0,0,1,115.24.87Z"/><path class="cls-2" d="M118.31,108.75c-.29,0-.51,0-.58-.36C118,108.42,118.21,108.48,118.31,108.75Z"/><path class="cls-2" d="M112.27,80.33a.45.45,0,0,1,.44.51C112.48,80.74,112.29,80.61,112.27,80.33Z"/><path class="cls-2" d="M98.39,112.49c-.27-.12-.41-.28-.11-.52Z"/><path class="cls-2" d="M118.67,3.61a.44.44,0,0,1-.4-.53A.57.57,0,0,1,118.67,3.61Z"/><path class="cls-2" d="M101.34,119.93c-.34-.14-.36-.4-.25-.7A.8.8,0,0,1,101.34,119.93Z"/><path class="cls-2" d="M92.77,128.77c.13-.36.39-.4.71-.28A1,1,0,0,1,92.77,128.77Z"/><path class="cls-2" d="M104.77,128.69c-.26-.12-.41-.27-.11-.52A.43.43,0,0,1,104.77,128.69Z"/><path class="cls-2" d="M95.74,128.28a.47.47,0,0,1,.51-.13C96.14,128.42,96,128.5,95.74,128.28Z"/><path class="cls-3" d="M109,80.77h0l-1.41,3.41A1.61,1.61,0,0,0,107,85.4c-.93,1.74-1.46,3.66-2.54,5.33-.5.1-.74-.3-1-.59-1.7-2.31-3.34-4.66-5-7a1.89,1.89,0,0,1-.21-2.06c.2-.51.23-1.13-.46-1.31s-1.25-.25-1.5.6c-.12.38-.3.74-.43,1.11-.3.85.13,1.38.89,1.37a1.4,1.4,0,0,1,1.3.68c1.75,2.44,3.52,4.86,5.27,7.31.24.33.65.64.45,1.16a6.83,6.83,0,0,0-1,1.91l-.4.74c-2,2.58-3.06,5.67-4.5,8.56-.55,1.09-1,2.22-1.5,3.33-.26.45-.5.91-.77,1.34-.13.2-.25.4,0,.55s.4,0,.54-.2c.3-.39.23-1.06.88-1.19a14.09,14.09,0,0,0,1.26,8.57.79.79,0,0,0,.3.7l2.77,6.48a.5.5,0,0,0,.28.52l.91,2.92a1.06,1.06,0,0,0,.6,1.41c-.09.61.5,1.12.26,1.81l-2.38-1.6c0-.18,0-.28-.24-.2L99.27,127a1,1,0,0,0-.93-.28,1.34,1.34,0,0,0-1,0,1.51,1.51,0,0,0-1.07.06c-3.43.76-6.8,1.66-9.46,4.16a34.61,34.61,0,0,0-9.67,8.7,40.06,40.06,0,0,0-4.58,7,29.1,29.1,0,0,1-1.68-5.53,120.35,120.35,0,0,1-2.62-14.6,84.06,84.06,0,0,1-.76-13.08c.06-1.33-.83-2.28-1.28-3.38a24.34,24.34,0,0,1-1.48-10.78,1.53,1.53,0,0,1,.54-1c1.68-1.68,3.35-3.36,5.06-5,2-1.9,3.48-4.23,5.52-6.06.83-.74,1.65-1.48,2.46-2.23a3.05,3.05,0,0,0,1.18-1.79c-.06-.41.59-.09.53-.51-.25.11-.18.51-.51.52a31,31,0,0,0-5.3,4.66c-2.18,2.25-4.06,4.76-6.39,6.89A32.48,32.48,0,0,1,61,99.67a35.91,35.91,0,0,0-8.89,6.82c-1.11,1.13-2.09,2.39-3.21,3.52s-1.89.92-2.81-.17a36.94,36.94,0,0,1-8-14.29c-1.77-6.5-4.71-12.56-7-18.86A64.28,64.28,0,0,0,28,69.23a8.41,8.41,0,0,0-2.94-3.33,25.84,25.84,0,0,0-6.84-3.44,20.17,20.17,0,0,0-7.1-.36c-.22,0-.43.09-.65.1-1.76.07-3.24,0-4.37-1.89C4.6,57.83,2.82,55.5,1.32,53c-.15-.24-.52-.45-.3-.79s.59-.33,1-.3a3,3,0,0,1,2.19,1.33c.94,1.28,1.91,2.54,2.77,3.87a2.5,2.5,0,0,0,1.93,1.21,6.55,6.55,0,0,0,4.93-1,1.92,1.92,0,0,1,2.48,0c.34.18.64.46,1,.65s.82.36,1-.13-.37-.37-.59-.52c-1.59-1.1-3.35-1.94-5-3a5.11,5.11,0,0,1-2.27-5.13c.29-2.79,1-5.55.4-8.49,1.73.69,2.45,2.18,2.1,4.35-.24,1.45,0,2.91-.26,4.36A1.5,1.5,0,0,0,13,50.43c1.66,1.87,3.61,3.33,6.23,3.3,1.21,0,2.42-.46,3.29,1,.1-.35.21-.53.16-.58-1.77-1.91-2.13-4.36-2.76-6.75-.69-2.64-1.71-5.19-2.59-7.78-.1-.28-.36-.59-.14-.86s.67-.05,1,0a3.22,3.22,0,0,1,2.41,2.83,22.83,22.83,0,0,0,2.2,6.62,12.7,12.7,0,0,0,8.42,6.22c2.81.71,6.06-.91,6.49-3.78s3.59-4.9,6.14-4.77a4.36,4.36,0,0,1-1.48,2,6.32,6.32,0,0,0-2.59,5.52c.23,2.62-1.39,4-3.12,5.48C35.27,60,33.68,61,33.31,63A7.72,7.72,0,0,0,34,68.73a72.38,72.38,0,0,0,9.83,12.94c1.26,1.33,2.43,2.76,3.64,4.14.6.69.2,1.32,0,2C46.76,90.38,46,93,45.34,95.55a2.29,2.29,0,0,0,.18,1.77c.28-1.3.43-2.6.79-3.88a17.34,17.34,0,0,1,6.34-9.18c1.9-1.49,3.83-3,5.85-4.52v1.79a45.47,45.47,0,0,0,1.8-5.27,91,91,0,0,1,5.11-11.62A13.5,13.5,0,0,1,75.66,57.5c3.65-.62,7.28-1.37,10.89-2.2a38.9,38.9,0,0,0,9.48-4c.09-.05.12-.21.33-.6a51.88,51.88,0,0,1-7.65,2.68c1.21-2.16,2.92-3.65,4.4-5.32,2.13-2.39,2.58-5.24.47-8.36a13,13,0,0,1-1.31-2c-.43-1.05-.84-2.2.16-3.21,1.86-1.87,2.94-4.27,4.35-6.44a16.24,16.24,0,0,1,5.07-5.29,41.12,41.12,0,0,0,5-3.67,5.33,5.33,0,0,0,.65-.82c1.2-1.33,2.43-2.63,3.6-4,1-1.16,1-1.18,1.6.24.06.16.15.32.22.48l.06.53.54,1.6.27.53c-.07.4.22.7.33,1.06l.17.54.28,2.48-.58.07c-1.66-.86-2.47-2.42-3.28-4-.17-.33-.26-.85-.74-.81s-.54.53-.67.89a6.21,6.21,0,0,0,.68,5.2c.36.66.21.89-.27,1.26a21.76,21.76,0,0,0-4,4.06c-.19.24-.48.51-.26.81s.54,0,.83-.05c1-.29,1.77-1.19,2.9-1.14.07.2.07.49.21.58.79.52.42.83-.18,1a4,4,0,0,1-1.53.32c-.73-.07-1.2.37-1.77.63-.21.1-.4.24-.38.48s.28.3.49.31c1.81.12,3.57.05,5-1.25a3.26,3.26,0,0,0,1.7-1.65l-.29-.29L110.93,30a6.4,6.4,0,0,1-4.3.84,1.23,1.23,0,0,1,1.25-.69,2.29,2.29,0,0,0,1.41-.17c.56-.29,1.79-.33.79-1.51-.25-.3.14-.38.34-.53.74-.53,1.71-.31,2.49-.67-.23-.51-.86-.07-1-.6.87-.64,1.77-.26,2.65-.06.64.14.51.65.38,1.07a5,5,0,0,1-1.33,2.41c-1.8,1.5-3.72,2.82-6.18,3-.3,0-.26,0-.54.62s-.89.24-1.22.55c.06.61.61.5.88.76-.33.51-.8.18-1.19.17-1.54,0-3.08-.1-4.61-.13-.26,0-.69-.22-.74.27,0,.31.29.41.53.5,1.43.56,2.86,1.13,4.31,1.66.79.3,1,.64.7,1.54-.77,2.12-1.81,4.18-1.85,6.51-.14.67-.56,1.34.05,2.08a3.49,3.49,0,0,0,.5-2.06c.75-1,1.1-2.25,2.36-2.81.49,2.38.74,4.69-.47,6.89-.2.2-.29.43,0,.61s.28-.07.36-.21l1.69-1.88.35.3c-.14.26-.45.44-.38.79-.09.27,0,.36.28.37l.53,0a1.05,1.05,0,0,0,1.32-.43v0c.79,0,1,.28.66,1a11.93,11.93,0,0,0-.64,2c-.22.6.1.83.5,1.08.21.13.41.47.67.29.49-.33-.11-.7,0-1,.14-.73-.73-1.83.75-2.09.23.44.62.46,1,.42A1.06,1.06,0,0,0,114,51l.53.1.53.18,4,1.76c.62,1,1.85,1.62,2.23,2.84.5,1.62,1.45,3.11,1.31,4.92a6,6,0,0,0,.29,2.22q1.53,4.57,3.2,9.1a47.5,47.5,0,0,1,2.64,8.44c.21,1.23.43,2.49.74,4.06a2.64,2.64,0,0,0,.25-1.79A48.27,48.27,0,0,0,127.87,75c-.81-2.14-1.67-4.36-1.13-6.68q1.47-6.37,2.48-12.85c.09-.6.49-1.2.26-1.8-.47-1.22-1-2.39-1.56-3.59a10.12,10.12,0,0,1-.83-3.71l.08-.57a18.28,18.28,0,0,0,2.69-3.07,2.31,2.31,0,0,1,2.58-.76,3.44,3.44,0,0,0,1.56.11c0,.44,0,.88,0,1.31A1.54,1.54,0,0,0,135.91,45a47.9,47.9,0,0,0,8-1.62,13.81,13.81,0,0,1,4.1-.86,2.78,2.78,0,0,0,2.38-1.24c1.26-1.71,2.64-3.28,2.53-5.71a7.4,7.4,0,0,1,2.28-5.4c.56,5.34.36,6.15-2.13,10.57-.84,1.5-1.53,3.09-2.22,4.66A4.3,4.3,0,0,1,148.41,48c-3.48,1.28-6.92,2.67-10.42,3.91a3.73,3.73,0,0,0-2.81,3.19,111.92,111.92,0,0,0-1,24.33c.14,2.5.46,5-.15,7.51a12.83,12.83,0,0,1-4.34,6.79,1.76,1.76,0,0,1-2.16.17,26.22,26.22,0,0,1-9.75-7.71,28.94,28.94,0,0,0-3-4.22.68.68,0,0,0-.44-.63c-.8-1-1.19-2.4-2.43-3.1l-.2-.81a5.6,5.6,0,0,0,.7-2.11c.79-2.72,2.56-4.79,4.45-6.8A13.62,13.62,0,0,0,112,74.17c-.19.22-.27.44,0,.68l0,0c-.28-.08-.4.09-.49.3Zm-20,37a7.9,7.9,0,0,0-.39-1.28,7.47,7.47,0,0,1-.48-2.82c-.19-3.07.46-6.06.72-9.09.07-.86-.18-2,.33-2.57.74-.84.74-1.91,1.28-2.77.15-.24.35-.66,0-.8s-.37.34-.53.56c-1,1.39-.81,3.14-1.35,4.68a28,28,0,0,0-1.2,8.62A7.87,7.87,0,0,0,89.05,117.78ZM77.57,89.15c.05,3.21,1.41,7.52,2.67,8.47C79,94.74,78.63,91.85,77.57,89.15ZM92.28,92c-.37,1.73-1.3,3.27-1.54,5A11.67,11.67,0,0,0,92.28,92Zm6,3.39c-.6-.33-.9.46-1.33.92-.18.2-.67.4-.32.71s.49-.15.67-.37C97.61,96.18,97.77,95.55,98.23,95.36Zm-3.75,16.25a1.17,1.17,0,0,0,.59-1.76ZM92.77,91s0-.06-.06-.07a.14.14,0,0,0-.11,0c-.11,0-.09.08.05.08Zm12.57-58.65c-.06-.18-.16-.32-.36-.3,0,0-.12.21-.09.28a.44.44,0,0,0,.28.24C105.28,32.6,105.41,32.52,105.34,32.35Zm.7.49-.26.3c.1.07.19.16.3.23a.16.16,0,0,0,.26-.13C106.31,33.11,106.18,33,106,32.84ZM80.53,82.1V82l.11,0Z"/><path class="cls-2" d="M119.3,52.23a9.25,9.25,0,0,1,4.32,7.47,18.22,18.22,0,0,0,2.16,7.53c.16-.7.31-1.27.42-1.84.66-3.32,1.29-6.66,2-10a4.37,4.37,0,0,0-.48-3.17c-.38-.69-.62-1.45-.93-2.17h1.14c.53,1.2,1.09,2.37,1.56,3.59.23.6-.17,1.2-.26,1.8q-1,6.48-2.48,12.85c-.54,2.32.32,4.54,1.13,6.68a48.27,48.27,0,0,1,1.85,7.84,2.64,2.64,0,0,1-.25,1.79c-.31-1.57-.53-2.83-.74-4.06a47.5,47.5,0,0,0-2.64-8.44q-1.66-4.53-3.2-9.1a6,6,0,0,1-.29-2.22c.14-1.81-.81-3.3-1.31-4.92-.38-1.22-1.61-1.8-2.23-2.84Z"/><path class="cls-2" d="M111.92,26.7c.13.53.76.09,1,.6-.78.36-1.75.14-2.49.67-.2.15-.59.23-.34.53,1,1.18-.23,1.22-.79,1.51a2.29,2.29,0,0,1-1.41.17,1.23,1.23,0,0,0-1.25.69,6.4,6.4,0,0,0,4.3-.84,1.88,1.88,0,0,0,.18.12c-1.46,1.3-3.22,1.37-5,1.25-.21,0-.47,0-.49-.31s.17-.38.38-.48c.57-.26,1-.7,1.77-.63a4,4,0,0,0,1.53-.32c.6-.21,1-.52.18-1-.14-.09-.14-.38-.21-.58C109.87,27.06,111.06,27.22,111.92,26.7Z"/><path class="cls-2" d="M112.19,50.44c-1.48.26-.61,1.36-.75,2.09-.07.35.53.72,0,1-.26.18-.46-.16-.67-.29-.4-.25-.72-.48-.5-1.08a11.93,11.93,0,0,1,.64-2c.39-.71.13-1-.66-1,.26-.78.95-.57,1.42-.45.82.2,0,.55,0,.83C111.63,50,112.17,50.07,112.19,50.44Z"/><path class="cls-2" d="M126.73,43.68c-.43-.15-.81.09-1.21.17a15.46,15.46,0,0,1,.26-1.54.51.51,0,0,1,.7-.4c.39.17.35.47,0,.67-.59.33,0,.28.11.38S127.29,43.31,126.73,43.68Z"/><path class="cls-2" d="M104.26,45.58a3.49,3.49,0,0,1-.5,2.06c-.61-.74-.19-1.41-.05-2.08Z"/><path class="cls-2" d="M108.53,48.48l-.35-.3c0-.7.73-.93,1.1-1.42A1.16,1.16,0,0,1,108.53,48.48Z"/><path class="cls-2" d="M117.76,10c.55-.86-.33-1.43-.44-2.15a2.11,2.11,0,0,1,1,1.8C118.34,10,118.27,10.4,117.76,10Z"/><path class="cls-2" d="M114,7.56l1.37,1.59C114.44,9.06,114.19,8.35,114,7.56Z"/><path class="cls-2" d="M113.1,5.25l.84,2.07A2,2,0,0,1,113.1,5.25Z"/><path class="cls-2" d="M110.28,49.25a1.05,1.05,0,0,1-1.32.43C109.24,49.06,109.8,49.29,110.28,49.25Z"/><path class="cls-2" d="M116.67,6.56A1.69,1.69,0,0,1,116,5.44C116.54,5.61,116.63,6.07,116.67,6.56Z"/><path class="cls-2" d="M119.75,48c-.08.24.1.69-.34.66s-.53-.36-.54-.74Z"/><path class="cls-2" d="M114,51a1.06,1.06,0,0,1-.81-.15C113.58,50.5,113.86,50.49,114,51Z"/><path class="cls-2" d="M113,15.53l-.06-.53C113.22,15.14,113.31,15.32,113,15.53Z"/><path class="cls-2" d="M125.39,46c-.54-.27-.51-.53,0-.8Z"/><path class="cls-2" d="M113.81,17.66l-.27-.53C113.89,17.18,114.15,17.26,113.81,17.66Z"/><path class="cls-2" d="M115.09,4.13a.67.67,0,0,1-.47-.48C115.05,3.55,115.09,3.82,115.09,4.13Z"/><path class="cls-2" d="M114.31,19.26l-.17-.54C114.5,18.8,114.66,19,114.31,19.26Z"/><path class="cls-2" d="M114,21.81l.58-.07C114.45,22.19,114.27,22.3,114,21.81Z"/><path class="cls-2" d="M115.1,51.29l-.53-.18C114.88,50.76,115,50.93,115.1,51.29Z"/><path class="cls-2" d="M127.17,45.8l-.08.57C126.68,46.11,126.72,45.93,127.17,45.8Z"/><path class="cls-2" d="M120.28,47.22l-.26.35c-.14-.08-.38-.16-.28-.35S120.09,47.19,120.28,47.22Z"/><path class="cls-2" d="M108.43,49.64c-.24,0-.37-.1-.28-.37Z"/><path class="cls-3" d="M15.05,50.81c-1.27-1.21-1-3.85.48-4.47.36-.15.48.1.61.32a1.68,1.68,0,0,1,.17,1.86C15.87,49.27,15.47,50,15.05,50.81Z"/><path class="cls-3" d="M104,19.81c-1.35,1.71-3.45,2.54-5,4.25.07-2.39.35-2.72,2.39-3.27C102.21,20.54,103.07,20.14,104,19.81Z"/><path class="cls-3" d="M69.58,51.23A2.57,2.57,0,0,0,70.88,53C69.63,53,69.34,52.28,69.58,51.23Z"/><path class="cls-3" d="M152.29,45.31c0-2.3.17-2.79,2.12-3.43a18.56,18.56,0,0,0,5.8-3.59,7.21,7.21,0,0,1,2.6-1.53.92.92,0,0,1,.74.11c.24.25-.07.46-.24.65-.66.77-1.2,1.62-1.78,2.45a8.32,8.32,0,0,1-4.94,3.74,36.67,36.67,0,0,0-4.32,1.57Z"/><path class="cls-3" d="M142.87,42.59c.27-.75.93-1,1.52-1.22,1.86-.78,2.3-1.75,1.48-3.61a10.5,10.5,0,0,1-1-3.26c-.05-.54-.13-1.19.4-1.42s.86.31,1.23.63a3.52,3.52,0,0,1,1,1.7,21.55,21.55,0,0,1,1.05,5c0,.39,0,.73-.42.84C146.35,41.72,144.73,42.6,142.87,42.59Z"/><path class="cls-3" d="M154.5,40.63c1.05-1.85,1.68-4,3.23-5.52a2.5,2.5,0,0,1,1.85-.74,21.87,21.87,0,0,1-2.81,5.44,2.83,2.83,0,0,1-2.09,1Z"/><path class="cls-3" d="M152.27,45.28l-.14.15s0-.09,0-.12.12-.11.19,0Z"/><path class="cls-3" d="M154.68,40.79c-.05.05-.13.16-.15.15s-.12-.2,0-.31Z"/><path class="cls-2" d="M103.79,92c.2-.52-.21-.83-.45-1.16-1.75-2.45-3.52-4.87-5.27-7.31a1.4,1.4,0,0,0-1.3-.68c-.76,0-1.19-.52-.89-1.37.13-.37.31-.73.43-1.11.25-.85.91-.75,1.5-.6s.66.8.46,1.31a1.89,1.89,0,0,0,.21,2.06c1.71,2.3,3.35,4.65,5,7,.21.29.45.69,1,.59C104.22,91.15,104.24,91.72,103.79,92Z"/><path class="cls-2" d="M97,107.08c-.65.13-.58.8-.88,1.19-.14.19-.32.33-.54.2s-.12-.35,0-.55c.27-.43.51-.89.77-1.34C96.65,106.64,97.05,106.56,97,107.08Z"/><path class="cls-2" d="M103.11,127.68a1.06,1.06,0,0,1-.6-1.41A1.24,1.24,0,0,1,103.11,127.68Z"/><path class="cls-2" d="M107,85.4a1.61,1.61,0,0,1,.57-1.22A1.06,1.06,0,0,1,107,85.4Z"/><path class="cls-2" d="M96.25,126.85a1.51,1.51,0,0,1,1.07-.06A.65.65,0,0,1,96.25,126.85Z"/><path class="cls-2" d="M98.34,126.75a1,1,0,0,1,.93.28C98.91,127.1,98.55,127.18,98.34,126.75Z"/><path class="cls-2" d="M102.35,94.69l.4-.74C102.9,94.35,102.82,94.62,102.35,94.69Z"/><path class="cls-2" d="M98.55,116.35a.79.79,0,0,1-.3-.7C98.62,115.76,98.66,116,98.55,116.35Z"/><path class="cls-2" d="M101.6,123.35a.5.5,0,0,1-.28-.52C101.66,122.88,101.93,123,101.6,123.35Z"/><path class="cls-2" d="M100.75,127.69c.2-.08.25,0,.24.2Z"/><path class="cls-3" d="M72,34.74c.74.24,1.1.75,1.36,1.95-.48-.71-.9-1.35-1.33-2Z"/><path class="cls-3" d="M71.74,34.48l0-.28.1,0c0,.09-.06.18-.1.27Z"/><path class="cls-3" d="M71.71,34.51c.1,0,.12-.23.3-.09s0,.21,0,.31l0,0-.27-.23Z"/><path class="cls-2" d="M112,74.83l0,0c.49-.2.47-.43,0-.68a13.62,13.62,0,0,1,4.84-5.68c-1.89,2-3.66,4.08-4.45,6.8Z"/><path class="cls-2" d="M111.71,77.4l.2.81C111.24,78.1,111.18,77.82,111.71,77.4Z"/><path class="cls-2" d="M114.34,81.31a.68.68,0,0,1,.44.63C114.39,81.91,114.29,81.66,114.34,81.31Z"/><path class="cls-2" d="M89.05,117.78a7.87,7.87,0,0,1-1.63-5.47,28,28,0,0,1,1.2-8.62c.54-1.54.32-3.29,1.35-4.68.16-.22.1-.74.53-.56s.16.56,0,.8c-.54.86-.54,1.93-1.28,2.77-.51.59-.26,1.71-.33,2.57-.26,3-.91,6-.72,9.09a7.47,7.47,0,0,0,.48,2.82A7.9,7.9,0,0,1,89.05,117.78Z"/><path class="cls-2" d="M77.57,89.15c1.06,2.7,1.46,5.59,2.67,8.47C79,96.67,77.62,92.36,77.57,89.15Z"/><path class="cls-2" d="M92.28,92a11.67,11.67,0,0,1-1.54,5C91,95.24,91.91,93.7,92.28,92Z"/><path class="cls-2" d="M98.23,95.36c-.46.19-.62.82-1,1.26-.18.22-.34.67-.67.37s.14-.51.32-.71C97.33,95.82,97.63,95,98.23,95.36Z"/><path class="cls-2" d="M110.93,30l1.59-1.82.29.29a3.26,3.26,0,0,1-1.7,1.65A1.88,1.88,0,0,1,110.93,30Z"/><path class="cls-2" d="M94.48,111.61l.59-1.76A1.17,1.17,0,0,1,94.48,111.61Z"/><path class="cls-2" d="M79.5,83.28c.33,0,.26-.41.51-.52.06.42-.59.1-.53.51Z"/><path class="cls-2" d="M92.77,91h-.12c-.14,0-.16,0-.05-.08a.14.14,0,0,1,.11,0S92.75,91,92.77,91Z"/><path class="cls-1" d="M105.34,32.35c.07.17-.06.25-.17.22a.44.44,0,0,1-.28-.24c0-.07,0-.28.09-.28C105.18,32,105.28,32.17,105.34,32.35Z"/><path class="cls-1" d="M106.49,50.06c-.08.14-.2.33-.36.21s-.18-.41,0-.61Z"/><path class="cls-1" d="M106,32.84c.14.17.27.27.3.4a.16.16,0,0,1-.26.13c-.11-.07-.2-.16-.3-.23Z"/><polygon class="cls-2" points="80.53 82.1 80.65 82.08 80.54 82.03 80.53 82.1"/><path class="cls-1" d="M112,74.17c.43.25.45.48,0,.68C111.75,74.61,111.83,74.39,112,74.17Z"/></g></g></g></svg>