<svg xmlns="http://www.w3.org/2000/svg" viewBox="0 0 597.15 602.95"><defs><style>.cls-1{fill:#fff;}.cls-2{opacity:0.13;}</style></defs><g id="Laag_2" data-name="Laag 2"><g id="Laag_1-2" data-name="Laag 1"><circle class="cls-1" cx="191.54" cy="117.37" r="1.97"/><circle class="cls-1" cx="209.65" cy="171.09" r="1.97"/><circle class="cls-1" cx="196.65" cy="187.8" r="1.2"/><circle class="cls-1" cx="262.39" cy="203.18" r="1.2"/><circle class="cls-1" cx="222.7" cy="216.01" r="1.2"/><circle class="cls-1" cx="193.51" cy="177.31" r="1.2"/><circle class="cls-1" cx="227.52" cy="145.32" r="1.2"/><circle class="cls-1" cx="261.19" cy="145.93" r="1.2"/><circle class="cls-1" cx="261.19" cy="186.6" r="1.2"/><circle class="cls-1" cx="195.91" cy="132.97" r="1.2"/><circle class="cls-1" cx="200.1" cy="123.68" r="1.2"/><circle class="cls-1" cx="281.27" cy="140.55" r="1.97"/><circle class="cls-1" cx="300.6" cy="217.98" r="1.97"/><circle class="cls-1" cx="164.51" cy="216.01" r="1.97"/><polygon class="cls-1" points="232.14 158 233.94 161.65 237.96 162.23 235.05 165.07 235.74 169.08 232.14 167.19 228.54 169.08 229.23 165.07 226.32 162.23 230.34 161.65 232.14 158"/><polygon class="cls-1" points="273.43 163.84 274.61 166.22 277.24 166.61 275.34 168.47 275.79 171.09 273.43 169.85 271.08 171.09 271.53 168.47 269.62 166.61 272.26 166.22 273.43 163.84"/><polygon class="cls-1" points="174.19 175.2 175.37 177.59 178 177.97 176.09 179.83 176.54 182.45 174.19 181.21 171.84 182.45 172.28 179.83 170.38 177.97 173.01 177.59 174.19 175.2"/><polygon class="cls-1" points="237.96 120.06 239.14 122.44 241.78 122.82 239.87 124.68 240.32 127.3 237.96 126.06 235.61 127.3 236.06 124.68 234.15 122.82 236.79 122.44 237.96 120.06"/><polygon class="cls-1" points="168.37 126.23 170.17 129.88 174.19 130.46 171.28 133.3 171.97 137.31 168.37 135.41 164.77 137.31 165.46 133.3 162.54 130.46 166.57 129.88 168.37 126.23"/><polygon class="cls-1" points="232.14 204.94 233.94 208.58 237.96 209.16 235.05 212 235.74 216.01 232.14 214.12 228.54 216.01 229.23 212 226.32 209.16 230.34 208.58 232.14 204.94"/><polygon class="cls-1" points="281.27 97.55 283.07 101.19 287.09 101.78 284.18 104.61 284.87 108.62 281.27 106.73 277.67 108.62 278.36 104.61 275.44 101.78 279.47 101.19 281.27 97.55"/><circle class="cls-1" cx="98.75" cy="289.13" r="2.47"/><circle class="cls-1" cx="169.05" cy="300.31" r="2.47"/><circle class="cls-1" cx="180.06" cy="324.52" r="1.51"/><circle class="cls-1" cx="235.51" cy="260.38" r="1.51"/><circle class="cls-1" cx="226.62" cy="312" r="1.51"/><circle class="cls-1" cx="166.55" cy="321.89" r="1.51"/><circle class="cls-1" cx="150.81" cy="265.41" r="1.51"/><circle class="cls-1" cx="171.14" cy="228.32" r="1.51"/><circle class="cls-1" cx="216.37" cy="252.04" r="1.51"/><circle class="cls-1" cx="118.64" cy="293.36" r="1.51"/><circle class="cls-1" cx="110.76" cy="283.28" r="1.51"/><circle class="cls-1" cx="176.86" cy="202.86" r="2.47"/><circle class="cls-1" cx="274.24" cy="226.52" r="2.47"/><circle class="cls-1" cx="192.68" cy="376.71" r="2.47"/><polygon class="cls-1" points="167.62 267.67 172.72 267.8 175.72 263.66 177.17 268.56 182.03 270.13 177.83 273.03 177.83 278.13 173.78 275.03 168.92 276.61 170.62 271.8 167.62 267.67"/><polygon class="cls-1" points="198.19 225.15 201.53 225.24 203.49 222.53 204.45 225.73 207.63 226.76 204.87 228.66 204.88 232 202.22 229.97 199.05 231.01 200.16 227.85 198.19 225.15"/><polygon class="cls-1" points="152.94 342.15 156.28 342.23 158.24 339.53 159.2 342.73 162.38 343.76 159.63 345.65 159.63 349 156.97 346.97 153.8 348 154.91 344.85 152.94 342.15"/><polygon class="cls-1" points="128.81 239.06 132.15 239.14 134.11 236.44 135.07 239.64 138.25 240.67 135.49 242.57 135.5 245.91 132.84 243.88 129.67 244.91 130.78 241.76 128.81 239.06"/><polygon class="cls-1" points="95.08 320.06 100.19 320.19 103.19 316.05 104.64 320.95 109.5 322.52 105.3 325.42 105.3 330.52 101.25 327.42 96.39 329 98.09 324.19 95.08 320.06"/><polygon class="cls-1" points="219.81 295.04 224.91 295.17 227.91 291.04 229.37 295.93 234.22 297.5 230.02 300.4 230.03 305.51 225.97 302.4 221.12 303.99 222.81 299.17 219.81 295.04"/><polygon class="cls-1" points="129.04 177.78 134.14 177.9 137.14 173.77 138.59 178.66 143.45 180.23 139.25 183.13 139.25 188.24 135.2 185.13 130.34 186.72 132.04 181.9 129.04 177.78"/><circle class="cls-1" cx="407.29" cy="362.17" r="2.47"/><circle class="cls-1" cx="477.58" cy="373.35" r="2.47"/><circle class="cls-1" cx="488.59" cy="397.56" r="1.51"/><circle class="cls-1" cx="544.04" cy="333.42" r="1.51"/><circle class="cls-1" cx="535.15" cy="385.04" r="1.51"/><circle class="cls-1" cx="475.09" cy="394.93" r="1.51"/><circle class="cls-1" cx="459.35" cy="338.45" r="1.51"/><circle class="cls-1" cx="479.67" cy="301.36" r="1.51"/><circle class="cls-1" cx="524.9" cy="325.08" r="1.51"/><circle class="cls-1" cx="427.18" cy="366.4" r="1.51"/><circle class="cls-1" cx="419.29" cy="356.32" r="1.51"/><circle class="cls-1" cx="485.4" cy="275.9" r="2.47"/><circle class="cls-1" cx="582.78" cy="299.56" r="2.47"/><circle class="cls-1" cx="501.22" cy="449.75" r="2.47"/><polygon class="cls-1" points="476.15 340.71 481.25 340.84 484.25 336.7 485.71 341.6 490.57 343.17 486.36 346.07 486.37 351.17 482.31 348.07 477.46 349.65 479.16 344.84 476.15 340.71"/><polygon class="cls-1" points="506.73 298.19 510.07 298.27 512.03 295.57 512.98 298.77 516.16 299.8 513.41 301.7 513.41 305.04 510.76 303.01 507.58 304.05 508.69 300.89 506.73 298.19"/><polygon class="cls-1" points="461.48 415.19 464.82 415.27 466.78 412.57 467.73 415.77 470.91 416.8 468.16 418.69 468.17 422.04 465.51 420.01 462.33 421.04 463.44 417.89 461.48 415.19"/><polygon class="cls-1" points="437.35 312.1 440.69 312.18 442.65 309.48 443.6 312.68 446.78 313.71 444.03 315.61 444.03 318.95 441.38 316.92 438.2 317.95 439.31 314.8 437.35 312.1"/><polygon class="cls-1" points="403.62 393.1 408.73 393.23 411.72 389.09 413.18 393.99 418.04 395.56 413.83 398.46 413.84 403.56 409.78 400.46 404.93 402.05 406.63 397.23 403.62 393.1"/><polygon class="cls-1" points="528.34 368.08 533.45 368.21 536.45 364.08 537.9 368.97 542.76 370.54 538.56 373.44 538.56 378.55 534.51 375.44 529.65 377.03 531.35 372.21 528.34 368.08"/><polygon class="cls-1" points="437.57 250.81 442.68 250.94 445.67 246.81 447.13 251.7 451.99 253.27 447.78 256.17 447.79 261.28 443.73 258.18 438.88 259.76 440.58 254.94 437.57 250.81"/><circle class="cls-1" cx="307.99" cy="176.71" r="1.74"/><circle class="cls-1" cx="357.52" cy="184.59" r="1.74"/><circle class="cls-1" cx="365.27" cy="201.64" r="1.06"/><circle class="cls-1" cx="404.34" cy="156.45" r="1.06"/><circle class="cls-1" cx="398.08" cy="192.82" r="1.06"/><circle class="cls-1" cx="355.76" cy="199.79" r="1.06"/><circle class="cls-1" cx="344.67" cy="160" r="1.06"/><circle class="cls-1" cx="358.99" cy="133.87" r="1.06"/><circle class="cls-1" cx="390.85" cy="150.58" r="1.06"/><circle class="cls-1" cx="322.01" cy="179.69" r="1.06"/><circle class="cls-1" cx="316.45" cy="172.59" r="1.06"/><circle class="cls-1" cx="363.02" cy="115.93" r="1.74"/><circle class="cls-1" cx="431.63" cy="132.6" r="1.74"/><circle class="cls-1" cx="374.17" cy="238.41" r="1.74"/><polygon class="cls-1" points="356.51 161.59 360.11 161.68 362.22 158.76 363.24 162.21 366.67 163.32 363.7 165.36 363.71 168.96 360.85 166.77 357.43 167.89 358.63 164.5 356.51 161.59"/><polygon class="cls-1" points="378.05 131.63 380.4 131.69 381.78 129.79 382.46 132.04 384.7 132.77 382.76 134.1 382.76 136.46 380.89 135.03 378.65 135.76 379.44 133.54 378.05 131.63"/><polygon class="cls-1" points="346.17 214.06 348.52 214.12 349.91 212.21 350.58 214.47 352.82 215.19 350.88 216.53 350.88 218.88 349.01 217.46 346.77 218.19 347.56 215.96 346.17 214.06"/><polygon class="cls-1" points="329.17 141.43 331.52 141.49 332.9 139.59 333.58 141.84 335.82 142.57 333.88 143.9 333.88 146.26 332.01 144.83 329.77 145.56 330.56 143.34 329.17 141.43"/><polygon class="cls-1" points="305.41 198.5 309 198.59 311.12 195.68 312.14 199.12 315.57 200.23 312.61 202.27 312.61 205.87 309.75 203.69 306.33 204.8 307.53 201.41 305.41 198.5"/><polygon class="cls-1" points="393.28 180.87 396.88 180.96 398.99 178.05 400.01 181.5 403.44 182.61 400.48 184.65 400.48 188.25 397.62 186.06 394.2 187.17 395.4 183.78 393.28 180.87"/><polygon class="cls-1" points="329.33 98.25 332.92 98.34 335.04 95.43 336.06 98.88 339.49 99.99 336.52 102.03 336.53 105.63 333.67 103.44 330.25 104.56 331.45 101.16 329.33 98.25"/><circle class="cls-1" cx="58.75" cy="168.06" r="1.74"/><circle class="cls-1" cx="108.28" cy="175.95" r="1.74"/><circle class="cls-1" cx="116.04" cy="193" r="1.06"/><circle class="cls-1" cx="155.1" cy="147.81" r="1.06"/><circle class="cls-1" cx="148.84" cy="184.18" r="1.06"/><circle class="cls-1" cx="106.52" cy="191.15" r="1.06"/><circle class="cls-1" cx="95.43" cy="151.35" r="1.06"/><circle class="cls-1" cx="109.75" cy="125.23" r="1.06"/><circle class="cls-1" cx="141.62" cy="141.94" r="1.06"/><circle class="cls-1" cx="72.77" cy="171.05" r="1.06"/><circle class="cls-1" cx="67.21" cy="163.95" r="1.06"/><circle class="cls-1" cx="113.78" cy="107.29" r="1.74"/><circle class="cls-1" cx="182.39" cy="123.96" r="1.74"/><circle class="cls-1" cx="124.93" cy="229.77" r="1.74"/><polygon class="cls-1" points="107.27 152.95 110.87 153.04 112.98 150.12 114 153.57 117.43 154.68 114.47 156.72 114.47 160.32 111.61 158.13 108.19 159.25 109.39 155.85 107.27 152.95"/><polygon class="cls-1" points="128.81 122.99 131.16 123.05 132.55 121.14 133.22 123.4 135.46 124.13 133.52 125.46 133.52 127.82 131.65 126.39 129.41 127.12 130.2 124.9 128.81 122.99"/><polygon class="cls-1" points="96.93 205.42 99.29 205.48 100.67 203.57 101.34 205.83 103.58 206.55 101.64 207.89 101.64 210.24 99.77 208.81 97.54 209.54 98.32 207.32 96.93 205.42"/><polygon class="cls-1" points="79.93 132.79 82.28 132.85 83.67 130.94 84.34 133.2 86.58 133.93 84.64 135.26 84.64 137.62 82.77 136.19 80.53 136.91 81.32 134.69 79.93 132.79"/><polygon class="cls-1" points="56.17 189.86 59.77 189.95 61.88 187.03 62.91 190.48 66.33 191.59 63.37 193.63 63.37 197.23 60.51 195.04 57.09 196.16 58.29 192.77 56.17 189.86"/><polygon class="cls-1" points="144.04 172.23 147.64 172.32 149.75 169.41 150.78 172.86 154.2 173.96 151.24 176.01 151.24 179.6 148.38 177.42 144.96 178.53 146.16 175.14 144.04 172.23"/><polygon class="cls-1" points="80.09 89.61 83.69 89.7 85.8 86.79 86.83 90.24 90.25 91.35 87.29 93.39 87.29 96.98 84.43 94.8 81.01 95.91 82.21 92.52 80.09 89.61"/><circle class="cls-1" cx="314.31" cy="548.96" r="1.74"/><circle class="cls-1" cx="295.83" cy="502.34" r="1.74"/><circle class="cls-1" cx="306.54" cy="486.97" r="1.06"/><circle class="cls-1" cx="247.75" cy="476.41" r="1.06"/><circle class="cls-1" cx="282.23" cy="463.25" r="1.06"/><circle class="cls-1" cx="309.8" cy="496.1" r="1.06"/><circle class="cls-1" cx="281.23" cy="525.93" r="1.06"/><circle class="cls-1" cx="251.45" cy="526.94" r="1.06"/><circle class="cls-1" cx="249.57" cy="491.01" r="1.06"/><circle class="cls-1" cx="309.72" cy="535.38" r="1.06"/><circle class="cls-1" cx="306.45" cy="543.78" r="1.06"/><circle class="cls-1" cx="233.96" cy="532.62" r="1.74"/><circle class="cls-1" cx="213.31" cy="465.1" r="1.74"/><circle class="cls-1" cx="333.64" cy="460.57" r="1.74"/><polygon class="cls-1" points="276.56 514.94 274.8 511.8 271.22 511.47 273.66 508.82 272.87 505.32 276.14 506.82 279.23 504.99 278.81 508.56 281.51 510.93 277.98 511.63 276.56 514.94"/><polygon class="cls-1" points="239.81 511.68 238.66 509.63 236.31 509.41 237.91 507.68 237.39 505.39 239.53 506.37 241.56 505.17 241.28 507.51 243.05 509.06 240.74 509.52 239.81 511.68"/><polygon class="cls-1" points="326.97 497.07 325.82 495.01 323.47 494.8 325.07 493.07 324.55 490.77 326.69 491.76 328.71 490.56 328.44 492.89 330.21 494.45 327.9 494.91 326.97 497.07"/><polygon class="cls-1" points="273.16 548.73 272.01 546.68 269.67 546.46 271.27 544.73 270.75 542.44 272.89 543.42 274.91 542.22 274.63 544.56 276.4 546.11 274.09 546.57 273.16 548.73"/><polygon class="cls-1" points="334.37 540.07 332.61 536.93 329.03 536.6 331.47 533.96 330.68 530.45 333.95 531.95 337.04 530.12 336.62 533.69 339.32 536.06 335.79 536.76 334.37 540.07"/><polygon class="cls-1" points="274.4 473.47 272.64 470.33 269.06 470 271.5 467.36 270.71 463.85 273.97 465.36 277.06 463.52 276.64 467.09 279.35 469.46 275.82 470.17 274.4 473.47"/><polygon class="cls-1" points="235.94 570.61 234.18 567.48 230.6 567.14 233.04 564.5 232.25 561 235.52 562.5 238.61 560.66 238.19 564.24 240.89 566.61 237.36 567.31 235.94 570.61"/><circle class="cls-1" cx="370.23" cy="466.23" r="1.16"/><circle class="cls-1" cx="373.65" cy="433.07" r="1.16"/><circle class="cls-1" cx="384.69" cy="427.29" r="0.71"/><circle class="cls-1" cx="353.27" cy="403.02" r="0.71"/><circle class="cls-1" cx="377.64" cy="405.84" r="0.71"/><circle class="cls-1" cx="383.81" cy="433.68" r="0.71"/><circle class="cls-1" cx="357.8" cy="442.49" r="0.71"/><circle class="cls-1" cx="339.93" cy="433.94" r="0.71"/><circle class="cls-1" cx="349.86" cy="412.18" r="0.71"/><circle class="cls-1" cx="371.7" cy="456.81" r="0.71"/><circle class="cls-1" cx="367.19" cy="460.76" r="0.71"/><circle class="cls-1" cx="327.88" cy="431.92" r="1.16"/><circle class="cls-1" cx="336.44" cy="385.77" r="1.16"/><circle class="cls-1" cx="408.77" cy="420.05" r="1.16"/><polygon class="cls-1" points="358.42 434.57 358.35 432.19 356.34 430.89 358.59 430.08 359.2 427.77 360.66 429.66 363.05 429.53 361.7 431.5 362.57 433.73 360.27 433.06 358.42 434.57"/><polygon class="cls-1" points="337.75 421.37 337.71 419.81 336.39 418.96 337.86 418.43 338.26 416.92 339.22 418.16 340.78 418.07 339.9 419.36 340.47 420.82 338.97 420.38 337.75 421.37"/><polygon class="cls-1" points="393.63 439.52 393.58 437.96 392.26 437.11 393.74 436.58 394.14 435.07 395.1 436.31 396.66 436.22 395.78 437.51 396.34 438.97 394.84 438.53 393.63 439.52"/><polygon class="cls-1" points="346.04 453.46 345.99 451.89 344.68 451.05 346.15 450.52 346.55 449 347.51 450.24 349.07 450.15 348.19 451.45 348.76 452.91 347.25 452.47 346.04 453.46"/><polygon class="cls-1" points="384.79 467.14 384.71 464.75 382.7 463.46 384.96 462.65 385.57 460.34 387.03 462.23 389.42 462.1 388.07 464.07 388.94 466.3 386.64 465.63 384.79 467.14"/><polygon class="cls-1" points="369.88 409.46 369.81 407.07 367.8 405.78 370.05 404.97 370.66 402.66 372.12 404.55 374.51 404.42 373.16 406.39 374.03 408.62 371.73 407.95 369.88 409.46"/><polygon class="cls-1" points="317.38 454.93 317.3 452.54 315.3 451.24 317.55 450.44 318.16 448.12 319.62 450.01 322.01 449.88 320.66 451.86 321.52 454.09 319.23 453.42 317.38 454.93"/><circle class="cls-1" cx="116.31" cy="369.8" r="1.16"/><circle class="cls-1" cx="119.73" cy="336.64" r="1.16"/><circle class="cls-1" cx="130.77" cy="330.87" r="0.71"/><circle class="cls-1" cx="99.35" cy="306.59" r="0.71"/><circle class="cls-1" cx="123.71" cy="309.41" r="0.71"/><circle class="cls-1" cx="129.89" cy="337.25" r="0.71"/><circle class="cls-1" cx="103.88" cy="346.06" r="0.71"/><circle class="cls-1" cx="86.01" cy="337.51" r="0.71"/><circle class="cls-1" cx="95.94" cy="315.75" r="0.71"/><circle class="cls-1" cx="117.78" cy="360.39" r="0.71"/><circle class="cls-1" cx="113.27" cy="364.33" r="0.71"/><circle class="cls-1" cx="73.96" cy="335.49" r="1.16"/><circle class="cls-1" cx="82.52" cy="289.34" r="1.16"/><circle class="cls-1" cx="154.85" cy="323.62" r="1.16"/><polygon class="cls-1" points="104.5 338.15 104.43 335.76 102.42 334.46 104.67 333.65 105.28 331.34 106.74 333.23 109.13 333.1 107.78 335.07 108.65 337.3 106.35 336.63 104.5 338.15"/><polygon class="cls-1" points="83.83 324.94 83.78 323.38 82.47 322.53 83.94 322 84.34 320.49 85.3 321.73 86.86 321.64 85.98 322.93 86.55 324.39 85.05 323.95 83.83 324.94"/><polygon class="cls-1" points="139.71 343.09 139.66 341.53 138.34 340.68 139.82 340.15 140.22 338.64 141.18 339.88 142.74 339.79 141.86 341.08 142.42 342.54 140.92 342.1 139.71 343.09"/><polygon class="cls-1" points="92.12 357.03 92.07 355.46 90.76 354.62 92.23 354.09 92.63 352.58 93.59 353.81 95.15 353.73 94.27 355.02 94.84 356.48 93.33 356.04 92.12 357.03"/><polygon class="cls-1" points="130.87 370.72 130.79 368.33 128.78 367.03 131.03 366.22 131.65 363.91 133.11 365.8 135.5 365.67 134.15 367.64 135.01 369.87 132.72 369.2 130.87 370.72"/><polygon class="cls-1" points="115.96 313.04 115.89 310.64 113.88 309.35 116.13 308.54 116.74 306.23 118.2 308.12 120.59 307.99 119.24 309.96 120.11 312.19 117.81 311.52 115.96 313.04"/><polygon class="cls-1" points="63.46 358.5 63.38 356.11 61.37 354.81 63.62 354.01 64.23 351.69 65.7 353.59 68.09 353.45 66.74 355.43 67.61 357.66 65.31 356.99 63.46 358.5"/><circle class="cls-1" cx="465.45" cy="242.43" r="1.16"/><circle class="cls-1" cx="468.88" cy="209.27" r="1.16"/><circle class="cls-1" cx="479.91" cy="203.5" r="0.71"/><circle class="cls-1" cx="448.49" cy="179.22" r="0.71"/><circle class="cls-1" cx="472.86" cy="182.05" r="0.71"/><circle class="cls-1" cx="479.03" cy="209.88" r="0.71"/><circle class="cls-1" cx="453.02" cy="218.7" r="0.71"/><circle class="cls-1" cx="435.16" cy="210.15" r="0.71"/><circle class="cls-1" cx="445.09" cy="188.39" r="0.71"/><circle class="cls-1" cx="466.92" cy="233.02" r="0.71"/><circle class="cls-1" cx="462.41" cy="236.97" r="0.71"/><circle class="cls-1" cx="423.1" cy="208.12" r="1.16"/><circle class="cls-1" cx="431.66" cy="161.98" r="1.16"/><circle class="cls-1" cx="503.99" cy="196.25" r="1.16"/><polygon class="cls-1" points="453.65 210.78 453.58 208.39 451.57 207.1 453.82 206.29 454.43 203.98 455.89 205.87 458.28 205.73 456.93 207.71 457.8 209.94 455.5 209.27 453.65 210.78"/><polygon class="cls-1" points="432.98 197.58 432.93 196.01 431.62 195.16 433.09 194.64 433.49 193.12 434.45 194.36 436.01 194.27 435.13 195.57 435.69 197.03 434.19 196.59 432.98 197.58"/><polygon class="cls-1" points="488.86 215.73 488.81 214.16 487.49 213.31 488.96 212.79 489.37 211.27 490.32 212.51 491.88 212.42 491 213.72 491.57 215.18 490.07 214.74 488.86 215.73"/><polygon class="cls-1" points="441.27 229.66 441.22 228.1 439.91 227.25 441.38 226.72 441.78 225.21 442.74 226.45 444.3 226.36 443.42 227.65 443.98 229.11 442.48 228.67 441.27 229.66"/><polygon class="cls-1" points="480.01 243.35 479.94 240.96 477.93 239.66 480.18 238.86 480.79 236.55 482.26 238.44 484.64 238.3 483.3 240.28 484.16 242.51 481.87 241.84 480.01 243.35"/><polygon class="cls-1" points="465.11 185.67 465.03 183.28 463.02 181.99 465.27 181.18 465.89 178.87 467.35 180.76 469.74 180.62 468.39 182.6 469.25 184.83 466.96 184.16 465.11 185.67"/><polygon class="cls-1" points="412.6 231.13 412.53 228.74 410.52 227.45 412.77 226.64 413.38 224.33 414.85 226.22 417.23 226.09 415.89 228.06 416.75 230.29 414.46 229.62 412.6 231.13"/><circle class="cls-1" cx="201.12" cy="99.37" r="1.16"/><circle class="cls-1" cx="204.55" cy="66.21" r="1.16"/><circle class="cls-1" cx="215.58" cy="60.44" r="0.71"/><circle class="cls-1" cx="184.16" cy="36.16" r="0.71"/><circle class="cls-1" cx="208.53" cy="38.99" r="0.71"/><circle class="cls-1" cx="214.7" cy="66.82" r="0.71"/><circle class="cls-1" cx="188.69" cy="75.64" r="0.71"/><circle class="cls-1" cx="170.83" cy="67.08" r="0.71"/><circle class="cls-1" cx="180.76" cy="45.32" r="0.71"/><circle class="cls-1" cx="202.59" cy="89.96" r="0.71"/><circle class="cls-1" cx="198.08" cy="93.91" r="0.71"/><circle class="cls-1" cx="158.77" cy="65.06" r="1.16"/><circle class="cls-1" cx="167.34" cy="18.92" r="1.16"/><circle class="cls-1" cx="239.67" cy="53.19" r="1.16"/><polygon class="cls-1" points="189.32 67.72 189.25 65.33 187.24 64.03 189.49 63.23 190.1 60.91 191.56 62.8 193.95 62.67 192.6 64.65 193.47 66.88 191.17 66.21 189.32 67.72"/><polygon class="cls-1" points="168.65 54.52 168.6 52.95 167.29 52.1 168.76 51.58 169.16 50.06 170.12 51.3 171.68 51.21 170.8 52.51 171.37 53.96 169.86 53.53 168.65 54.52"/><polygon class="cls-1" points="224.53 72.67 224.48 71.1 223.16 70.25 224.63 69.72 225.03 68.21 225.99 69.45 227.56 69.36 226.67 70.66 227.24 72.11 225.74 71.68 224.53 72.67"/><polygon class="cls-1" points="176.94 86.6 176.89 85.04 175.58 84.19 177.05 83.66 177.45 82.15 178.41 83.39 179.97 83.3 179.09 84.59 179.65 86.05 178.15 85.61 176.94 86.6"/><polygon class="cls-1" points="215.69 100.29 215.61 97.9 213.6 96.6 215.85 95.8 216.46 93.48 217.93 95.38 220.31 95.24 218.97 97.22 219.83 99.45 217.54 98.78 215.69 100.29"/><polygon class="cls-1" points="200.78 42.61 200.71 40.22 198.69 38.92 200.94 38.12 201.56 35.8 203.02 37.69 205.41 37.56 204.06 39.54 204.93 41.77 202.63 41.1 200.78 42.61"/><polygon class="cls-1" points="148.27 88.07 148.2 85.68 146.19 84.39 148.44 83.58 149.05 81.27 150.52 83.16 152.9 83.03 151.56 85 152.42 87.23 150.13 86.56 148.27 88.07"/><circle class="cls-1" cx="160.44" cy="439.24" r="1.16"/><circle class="cls-1" cx="134.48" cy="460.16" r="1.16"/><circle class="cls-1" cx="122.61" cy="456.38" r="0.71"/><circle class="cls-1" cx="127.48" cy="495.79" r="0.71"/><circle class="cls-1" cx="112.34" cy="476.49" r="0.71"/><circle class="cls-1" cx="127.76" cy="452.51" r="0.71"/><circle class="cls-1" cx="152.33" cy="464.78" r="0.71"/><circle class="cls-1" cx="158.83" cy="483.49" r="0.71"/><circle class="cls-1" cx="136.39" cy="491.76" r="0.71"/><circle class="cls-1" cx="152.72" cy="444.83" r="0.71"/><circle class="cls-1" cx="158.7" cy="445.25" r="0.71"/><circle class="cls-1" cx="165.89" cy="493.47" r="1.16"/><circle class="cls-1" cx="127.09" cy="519.88" r="1.16"/><circle class="cls-1" cx="100.51" cy="444.38" r="1.16"/><polygon class="cls-1" points="146.27 469.91 144.62 471.64 145.12 473.98 142.96 472.95 140.89 474.15 141.2 471.78 139.43 470.18 141.78 469.74 142.75 467.56 143.89 469.66 146.27 469.91"/><polygon class="cls-1" points="151.44 493.88 150.37 495.02 150.69 496.55 149.28 495.88 147.92 496.66 148.13 495.11 146.96 494.06 148.5 493.77 149.14 492.34 149.89 493.72 151.44 493.88"/><polygon class="cls-1" points="125 441.42 123.92 442.56 124.24 444.09 122.83 443.42 121.47 444.2 121.68 442.65 120.52 441.6 122.06 441.31 122.69 439.88 123.44 441.26 125 441.42"/><polygon class="cls-1" points="168.4 465.41 167.32 466.54 167.64 468.07 166.23 467.4 164.87 468.18 165.08 466.63 163.92 465.58 165.45 465.3 166.09 463.87 166.84 465.24 168.4 465.41"/><polygon class="cls-1" points="150.84 428.26 149.19 429.99 149.69 432.33 147.53 431.3 145.46 432.49 145.77 430.12 143.99 428.52 146.34 428.09 147.32 425.9 148.46 428 150.84 428.26"/><polygon class="cls-1" points="120.37 479.45 118.72 481.18 119.22 483.52 117.06 482.49 114.99 483.69 115.3 481.32 113.53 479.72 115.88 479.28 116.85 477.1 117.99 479.2 120.37 479.45"/><polygon class="cls-1" points="189.62 484.73 187.97 486.46 188.47 488.8 186.31 487.77 184.24 488.97 184.55 486.6 182.78 485 185.13 484.56 186.1 482.38 187.24 484.48 189.62 484.73"/><circle class="cls-1" cx="425.4" cy="545.99" r="1.16"/><circle class="cls-1" cx="428.82" cy="512.83" r="1.16"/><circle class="cls-1" cx="439.86" cy="507.06" r="0.71"/><circle class="cls-1" cx="408.44" cy="482.78" r="0.71"/><circle class="cls-1" cx="432.81" cy="485.61" r="0.71"/><circle class="cls-1" cx="438.98" cy="513.44" r="0.71"/><circle class="cls-1" cx="412.97" cy="522.25" r="0.71"/><circle class="cls-1" cx="395.1" cy="513.7" r="0.71"/><circle class="cls-1" cx="405.03" cy="491.94" r="0.71"/><circle class="cls-1" cx="426.87" cy="536.58" r="0.71"/><circle class="cls-1" cx="422.36" cy="540.53" r="0.71"/><circle class="cls-1" cx="383.05" cy="511.68" r="1.16"/><circle class="cls-1" cx="391.61" cy="465.54" r="1.16"/><circle class="cls-1" cx="463.94" cy="499.81" r="1.16"/><polygon class="cls-1" points="413.59 514.34 413.52 511.95 411.51 510.65 413.76 509.85 414.37 507.53 415.83 509.43 418.22 509.29 416.88 511.27 417.74 513.5 415.45 512.83 413.59 514.34"/><polygon class="cls-1" points="392.92 501.13 392.88 499.57 391.56 498.72 393.03 498.19 393.43 496.68 394.39 497.92 395.95 497.83 395.07 499.13 395.64 500.58 394.14 500.15 392.92 501.13"/><polygon class="cls-1" points="448.8 519.28 448.75 517.72 447.44 516.87 448.91 516.34 449.31 514.83 450.27 516.07 451.83 515.98 450.95 517.27 451.51 518.73 450.01 518.29 448.8 519.28"/><polygon class="cls-1" points="401.21 533.22 401.17 531.66 399.85 530.81 401.32 530.28 401.72 528.77 402.68 530 404.24 529.92 403.36 531.21 403.93 532.67 402.43 532.23 401.21 533.22"/><polygon class="cls-1" points="439.96 546.91 439.89 544.52 437.88 543.22 440.13 542.41 440.74 540.1 442.2 541.99 444.59 541.86 443.24 543.84 444.11 546.07 441.81 545.4 439.96 546.91"/><polygon class="cls-1" points="425.05 489.23 424.98 486.84 422.97 485.54 425.22 484.74 425.83 482.42 427.29 484.31 429.68 484.18 428.33 486.16 429.2 488.38 426.9 487.72 425.05 489.23"/><polygon class="cls-1" points="372.55 534.69 372.48 532.3 370.47 531.01 372.72 530.2 373.33 527.89 374.79 529.78 377.18 529.64 375.83 531.62 376.7 533.85 374.4 533.18 372.55 534.69"/><circle class="cls-1" cx="536.24" cy="266.9" r="1.16"/><circle class="cls-1" cx="561.57" cy="245.23" r="1.16"/><circle class="cls-1" cx="573.55" cy="248.66" r="0.71"/><circle class="cls-1" cx="567.51" cy="209.41" r="0.71"/><circle class="cls-1" cx="583.22" cy="228.25" r="0.71"/><circle class="cls-1" cx="568.51" cy="252.68" r="0.71"/><circle class="cls-1" cx="543.59" cy="241.14" r="0.71"/><circle class="cls-1" cx="536.54" cy="222.63" r="0.71"/><circle class="cls-1" cx="558.73" cy="213.71" r="0.71"/><circle class="cls-1" cx="543.79" cy="261.1" r="0.71"/><circle class="cls-1" cx="537.8" cy="260.85" r="0.71"/><circle class="cls-1" cx="529.19" cy="212.86" r="1.16"/><circle class="cls-1" cx="567.2" cy="185.32" r="1.16"/><circle class="cls-1" cx="595.99" cy="260" r="1.16"/><polygon class="cls-1" points="549.5 235.83 551.09 234.05 550.53 231.73 552.72 232.69 554.75 231.44 554.51 233.82 556.33 235.37 553.99 235.87 553.08 238.08 551.88 236.01 549.5 235.83"/><polygon class="cls-1" points="543.62 212.02 544.66 210.86 544.29 209.34 545.73 209.97 547.06 209.15 546.9 210.7 548.09 211.72 546.56 212.05 545.97 213.49 545.18 212.14 543.62 212.02"/><polygon class="cls-1" points="571.6 263.68 572.64 262.51 572.27 260.99 573.71 261.63 575.04 260.8 574.88 262.36 576.07 263.37 574.54 263.7 573.95 265.15 573.16 263.8 571.6 263.68"/><polygon class="cls-1" points="527.51 240.98 528.56 239.82 528.19 238.3 529.62 238.93 530.95 238.11 530.79 239.66 531.99 240.68 530.46 241.01 529.86 242.46 529.07 241.1 527.51 240.98"/><polygon class="cls-1" points="546.16 277.6 547.75 275.82 547.19 273.5 549.38 274.46 551.41 273.21 551.17 275.59 552.99 277.14 550.65 277.64 549.74 279.85 548.54 277.79 546.16 277.6"/><polygon class="cls-1" points="575.11 225.53 576.7 223.75 576.14 221.43 578.32 222.39 580.36 221.14 580.12 223.52 581.94 225.07 579.6 225.57 578.69 227.78 577.49 225.72 575.11 225.53"/><polygon class="cls-1" points="505.73 222.3 507.32 220.51 506.76 218.19 508.95 219.16 510.98 217.9 510.74 220.28 512.56 221.83 510.23 222.33 509.32 224.54 508.11 222.48 505.73 222.3"/><circle class="cls-1" cx="300.9" cy="427.63" r="2.47"/><circle class="cls-1" cx="244.05" cy="384.78" r="2.47"/><circle class="cls-1" cx="245.68" cy="358.24" r="1.51"/><circle class="cls-1" cx="166.63" cy="388.89" r="1.51"/><circle class="cls-1" cx="198.69" cy="347.46" r="1.51"/><circle class="cls-1" cx="256.38" cy="366.89" r="1.51"/><circle class="cls-1" cx="243.8" cy="424.16" r="1.51"/><circle class="cls-1" cx="208.45" cy="447.39" r="1.51"/><circle class="cls-1" cx="179.63" cy="405.23" r="1.51"/><circle class="cls-1" cx="285.32" cy="414.56" r="1.51"/><circle class="cls-1" cx="287.56" cy="427.16" r="1.51"/><circle class="cls-1" cx="191.46" cy="467.2" r="2.47"/><circle class="cls-1" cx="116.54" cy="400.63" r="2.47"/><circle class="cls-1" cx="259.01" cy="306.22" r="2.47"/><polygon class="cls-1" points="230.01 414.29 225.56 411.78 220.98 414.03 221.99 409.02 218.43 405.36 223.51 404.77 225.9 400.25 228.02 404.9 233.05 405.77 229.3 409.23 230.01 414.29"/><polygon class="cls-1" points="183.07 437.5 180.16 435.87 177.16 437.33 177.82 434.06 175.49 431.66 178.81 431.27 180.38 428.32 181.77 431.36 185.06 431.93 182.6 434.19 183.07 437.5"/><polygon class="cls-1" points="277.9 355.38 274.99 353.75 271.99 355.21 272.64 351.94 270.32 349.54 273.64 349.15 275.2 346.2 276.6 349.24 279.89 349.81 277.43 352.07 277.9 355.38"/><polygon class="cls-1" points="250.88 457.75 247.96 456.11 244.96 457.58 245.62 454.31 243.3 451.91 246.62 451.52 248.18 448.57 249.57 451.61 252.86 452.18 250.4 454.44 250.88 457.75"/><polygon class="cls-1" points="318.64 402.02 314.19 399.52 309.61 401.76 310.62 396.76 307.06 393.09 312.13 392.5 314.52 387.99 316.65 392.63 321.68 393.51 317.93 396.97 318.64 402.02"/><polygon class="cls-1" points="196.75 365.63 192.3 363.13 187.72 365.38 188.72 360.37 185.17 356.7 190.24 356.12 192.63 351.6 194.76 356.25 199.79 357.12 196.03 360.58 196.75 365.63"/><polygon class="cls-1" points="221.94 511.78 217.49 509.27 212.9 511.52 213.91 506.51 210.36 502.85 215.43 502.26 217.82 497.75 219.94 502.39 224.97 503.26 221.22 506.72 221.94 511.78"/><ellipse class="cls-1" cx="323.55" cy="255.29" rx="1.61" ry="1.88" transform="translate(-67.96 384.04) rotate(-56.48)"/><ellipse class="cls-1" cx="313.75" cy="301.38" rx="1.61" ry="1.88" transform="translate(-110.77 396.51) rotate(-56.48)"/><ellipse class="cls-1" cx="295.88" cy="305.91" rx="0.98" ry="1.15" transform="translate(-122.55 383.63) rotate(-56.48)"/><ellipse class="cls-1" cx="341.24" cy="351.01" rx="0.98" ry="1.15" transform="translate(-139.84 441.64) rotate(-56.48)"/><ellipse class="cls-1" cx="303.89" cy="338.82" rx="0.98" ry="1.15" transform="translate(-146.4 405.05) rotate(-56.48)"/><ellipse class="cls-1" cx="298.11" cy="297.11" rx="0.98" ry="1.15" transform="translate(-114.21 381.55) rotate(-56.48)"/><ellipse class="cls-1" cx="339.58" cy="293.26" rx="0.98" ry="1.15" transform="translate(-92.44 414.41) rotate(-56.48)"/><ellipse class="cls-1" cx="366.08" cy="311.43" rx="0.98" ry="1.15" transform="translate(-95.72 444.64) rotate(-56.48)"/><ellipse class="cls-1" cx="347.75" cy="339.09" rx="0.98" ry="1.15" transform="translate(-126.99 441.74) rotate(-56.48)"/><ellipse class="cls-1" cx="320" cy="268.21" rx="0.98" ry="1.15" transform="matrix(0.55, -0.83, 0.83, 0.55, -80.32, 386.87)"/><ellipse class="cls-1" cx="327.52" cy="264.09" rx="0.98" ry="1.15" transform="matrix(0.55, -0.83, 0.83, 0.55, -73.52, 391.29)"/><ellipse class="cls-1" cx="384.48" cy="318.34" rx="1.61" ry="1.88" transform="translate(-93.24 463.07) rotate(-56.48)"/><ellipse class="cls-1" cx="364.96" cy="381.2" rx="1.61" ry="1.88" transform="translate(-154.39 474.94) rotate(-56.48)"/><ellipse class="cls-1" cx="257.6" cy="308.16" rx="1.61" ry="1.88" transform="translate(-141.57 352.74) rotate(-56.48)"/><polygon class="cls-1" points="337.54 304.33 337.32 307.76 340.26 310.27 336.67 310.67 335.41 313.76 333.4 310.58 329.68 309.97 332.04 307.6 331 304.14 334.46 305.86 337.54 304.33"/><polygon class="cls-1" points="367.75 330.06 367.61 332.3 369.53 333.95 367.18 334.21 366.36 336.23 365.04 334.15 362.61 333.75 364.15 332.2 363.47 329.93 365.74 331.06 367.75 330.06"/><polygon class="cls-1" points="283.69 285.5 283.55 287.74 285.47 289.39 283.12 289.65 282.3 291.67 280.98 289.58 278.55 289.19 280.09 287.64 279.41 285.37 281.68 286.5 283.69 285.5"/><polygon class="cls-1" points="359.27 281.58 359.13 283.82 361.05 285.47 358.7 285.73 357.88 287.75 356.56 285.67 354.13 285.27 355.67 283.72 354.99 281.45 357.26 282.58 359.27 281.58"/><polygon class="cls-1" points="301.13 249.11 300.92 252.54 303.85 255.06 300.26 255.45 299 258.54 296.99 255.36 293.27 254.75 295.63 252.39 294.59 248.92 298.06 250.64 301.13 249.11"/><polygon class="cls-1" points="316.38 336.26 316.17 339.69 319.11 342.2 315.52 342.6 314.26 345.69 312.25 342.51 308.53 341.9 310.88 339.53 309.85 336.07 313.31 337.79 316.38 336.26"/><polygon class="cls-1" points="403.86 289.08 403.65 292.51 406.58 295.03 402.99 295.43 401.73 298.51 399.72 295.33 396 294.72 398.36 292.36 397.32 288.89 400.79 290.62 403.86 289.08"/><g class="cls-2"><circle class="cls-1" cx="470.98" cy="129.1" r="2.18"/><circle class="cls-1" cx="418.85" cy="163.84" r="2.18"/><circle class="cls-1" cx="397.28" cy="154.76" r="1.33"/><circle class="cls-1" cx="399.73" cy="229.34" r="1.33"/><circle class="cls-1" cx="374.65" cy="190.65" r="1.33"/><circle class="cls-1" cx="407.58" cy="148.39" r="1.33"/><circle class="cls-1" cx="451.48" cy="175.51" r="1.33"/><circle class="cls-1" cx="460.48" cy="211.63" r="1.33"/><circle class="cls-1" cx="417.08" cy="223.3" r="1.33"/><circle class="cls-1" cx="455.59" cy="138.24" r="1.33"/><circle class="cls-1" cx="466.7" cy="140.04" r="1.33"/><circle class="cls-1" cx="471.99" cy="231.51" r="2.18"/><circle class="cls-1" cx="394.9" cy="274.35" r="2.18"/><circle class="cls-1" cx="357.96" cy="128.55" r="2.18"/><polygon class="cls-1" points="439.27 184.09 435.89 187.05 436.42 191.51 432.56 189.22 428.48 191.1 429.46 186.72 426.41 183.42 430.89 183.01 433.08 179.09 434.86 183.21 439.27 184.09"/><polygon class="cls-1" points="444.88 229.83 442.68 231.77 443.02 234.69 440.5 233.19 437.82 234.42 438.47 231.55 436.47 229.4 439.4 229.12 440.84 226.56 442 229.26 444.88 229.83"/><polygon class="cls-1" points="404.28 127.17 402.07 129.11 402.42 132.03 399.89 130.53 397.22 131.77 397.87 128.9 395.87 126.74 398.8 126.47 400.24 123.9 401.4 126.6 404.28 127.17"/><polygon class="cls-1" points="481.44 179.41 479.23 181.35 479.57 184.27 477.05 182.77 474.38 184.01 475.02 181.14 473.02 178.98 475.95 178.71 477.39 176.14 478.55 178.84 481.44 179.41"/><polygon class="cls-1" points="454.88 106.91 451.5 109.87 452.03 114.34 448.17 112.04 444.09 113.93 445.08 109.54 442.02 106.25 446.5 105.83 448.69 101.91 450.47 106.03 454.88 106.91"/><polygon class="cls-1" points="389.18 197.55 385.8 200.52 386.33 204.98 382.47 202.69 378.39 204.57 379.38 200.19 376.33 196.89 380.8 196.47 382.99 192.55 384.77 196.68 389.18 197.55"/><polygon class="cls-1" points="517.88 219.17 514.51 222.14 515.04 226.6 511.17 224.31 507.1 226.19 508.08 221.81 505.03 218.51 509.5 218.09 511.7 214.17 513.48 218.3 517.88 219.17"/><circle class="cls-1" cx="261.05" cy="79.35" r="2.73"/><circle class="cls-1" cx="269.28" cy="157.58" r="2.73"/><circle class="cls-1" cx="246.61" cy="176.28" r="1.67"/><circle class="cls-1" cx="330.97" cy="217.05" r="1.67"/><circle class="cls-1" cx="273.33" cy="222.38" r="1.67"/><circle class="cls-1" cx="245.54" cy="161.11" r="1.67"/><circle class="cls-1" cx="301.3" cy="128.1" r="1.67"/><circle class="cls-1" cx="346.71" cy="139.16" r="1.67"/><circle class="cls-1" cx="334.38" cy="194.23" r="1.67"/><circle class="cls-1" cx="262.24" cy="101.79" r="1.67"/><circle class="cls-1" cx="270.73" cy="90.48" r="1.67"/><circle class="cls-1" cx="375.53" cy="137.96" r="2.73"/><circle class="cls-1" cx="378.22" cy="248.68" r="2.73"/><circle class="cls-1" cx="194.53" cy="204.72" r="2.73"/><polygon class="cls-1" points="303.71 146.69 305.04 152.17 310.31 154.18 305.51 157.14 305.22 162.78 300.93 159.12 295.48 160.59 297.62 155.38 294.54 150.65 300.17 151.08 303.71 146.69"/><polygon class="cls-1" points="357.86 167.12 358.73 170.71 362.18 172.02 359.04 173.96 358.85 177.65 356.04 175.26 352.47 176.22 353.88 172.81 351.86 169.71 355.54 169.99 357.86 167.12"/><polygon class="cls-1" points="220.01 152.4 220.88 155.98 224.33 157.3 221.19 159.24 221 162.93 218.19 160.53 214.62 161.5 216.03 158.08 214.01 154.99 217.69 155.27 220.01 152.4"/><polygon class="cls-1" points="323.11 97.06 323.98 100.65 327.43 101.97 324.29 103.91 324.1 107.59 321.29 105.2 317.72 106.16 319.13 102.75 317.11 99.66 320.79 99.94 323.11 97.06"/><polygon class="cls-1" points="226.99 84.31 228.32 89.79 233.59 91.81 228.78 94.77 228.5 100.4 224.2 96.75 218.75 98.22 220.9 93 217.82 88.27 223.44 88.7 226.99 84.31"/><polygon class="cls-1" points="289.47 210.24 290.8 215.73 296.07 217.74 291.27 220.7 290.98 226.33 286.69 222.68 281.24 224.15 283.38 218.93 280.3 214.21 285.93 214.63 289.47 210.24"/><polygon class="cls-1" points="388.58 79.72 389.91 85.2 395.18 87.22 390.38 90.18 390.1 95.81 385.8 92.16 380.35 93.63 382.5 88.41 379.41 83.68 385.04 84.11 388.58 79.72"/><circle class="cls-1" cx="271.62" cy="429.58" r="2.73"/><circle class="cls-1" cx="279.86" cy="507.82" r="2.73"/><circle class="cls-1" cx="257.18" cy="526.51" r="1.67"/><circle class="cls-1" cx="341.54" cy="567.29" r="1.67"/><circle class="cls-1" cx="283.9" cy="572.62" r="1.67"/><circle class="cls-1" cx="256.11" cy="511.35" r="1.67"/><circle class="cls-1" cx="311.87" cy="478.34" r="1.67"/><circle class="cls-1" cx="357.29" cy="489.4" r="1.67"/><circle class="cls-1" cx="344.95" cy="544.47" r="1.67"/><circle class="cls-1" cx="272.81" cy="452.03" r="1.67"/><circle class="cls-1" cx="281.3" cy="440.72" r="1.67"/><circle class="cls-1" cx="386.11" cy="488.2" r="2.73"/><circle class="cls-1" cx="388.79" cy="598.92" r="2.73"/><circle class="cls-1" cx="205.1" cy="554.96" r="2.73"/><polygon class="cls-1" points="314.28 496.93 315.61 502.41 320.88 504.42 316.08 507.38 315.8 513.01 311.5 509.36 306.05 510.83 308.19 505.61 305.11 500.89 310.74 501.32 314.28 496.93"/><polygon class="cls-1" points="368.43 517.36 369.3 520.95 372.75 522.26 369.61 524.2 369.42 527.89 366.61 525.5 363.04 526.46 364.45 523.04 362.43 519.95 366.11 520.23 368.43 517.36"/><polygon class="cls-1" points="230.59 502.63 231.46 506.22 234.91 507.54 231.76 509.48 231.57 513.16 228.76 510.77 225.2 511.74 226.6 508.32 224.58 505.23 228.27 505.51 230.59 502.63"/><polygon class="cls-1" points="333.68 447.3 334.55 450.89 338 452.21 334.86 454.14 334.67 457.83 331.86 455.44 328.29 456.4 329.7 452.99 327.68 449.89 331.36 450.18 333.68 447.3"/><polygon class="cls-1" points="237.56 434.55 238.89 440.03 244.16 442.05 239.36 445 239.07 450.64 234.77 446.99 229.32 448.46 231.47 443.24 228.39 438.51 234.01 438.94 237.56 434.55"/><polygon class="cls-1" points="300.04 560.48 301.37 565.96 306.64 567.98 301.84 570.94 301.56 576.57 297.26 572.92 291.81 574.39 293.96 569.17 290.87 564.44 296.5 564.87 300.04 560.48"/><polygon class="cls-1" points="399.15 429.96 400.48 435.44 405.75 437.45 400.95 440.41 400.67 446.05 396.37 442.39 390.92 443.87 393.07 438.65 389.99 433.92 395.61 434.35 399.15 429.96"/><circle class="cls-1" cx="441.07" cy="270.4" r="1.93"/><circle class="cls-1" cx="446.87" cy="325.52" r="1.93"/><circle class="cls-1" cx="430.89" cy="338.69" r="1.17"/><circle class="cls-1" cx="490.33" cy="367.42" r="1.17"/><circle class="cls-1" cx="449.72" cy="371.17" r="1.17"/><circle class="cls-1" cx="430.14" cy="328" r="1.17"/><circle class="cls-1" cx="469.42" cy="304.75" r="1.17"/><circle class="cls-1" cx="501.42" cy="312.54" r="1.17"/><circle class="cls-1" cx="492.73" cy="351.34" r="1.17"/><circle class="cls-1" cx="441.91" cy="286.22" r="1.17"/><circle class="cls-1" cx="447.89" cy="278.25" r="1.17"/><circle class="cls-1" cx="521.72" cy="311.7" r="1.93"/><circle class="cls-1" cx="523.61" cy="389.7" r="1.93"/><circle class="cls-1" cx="394.2" cy="358.73" r="1.93"/><polygon class="cls-1" points="471.12 317.85 472.06 321.71 475.77 323.13 472.39 325.21 472.19 329.18 469.16 326.61 465.32 327.64 466.83 323.97 464.66 320.64 468.63 320.94 471.12 317.85"/><polygon class="cls-1" points="509.27 332.24 509.88 334.77 512.31 335.7 510.1 337.06 509.97 339.66 507.99 337.97 505.47 338.65 506.46 336.25 505.04 334.07 507.64 334.26 509.27 332.24"/><polygon class="cls-1" points="412.15 321.87 412.77 324.39 415.2 325.32 412.98 326.69 412.85 329.29 410.87 327.6 408.36 328.28 409.35 325.87 407.93 323.69 410.52 323.89 412.15 321.87"/><polygon class="cls-1" points="484.79 282.88 485.4 285.41 487.83 286.34 485.62 287.7 485.49 290.3 483.5 288.62 480.99 289.3 481.98 286.89 480.56 284.71 483.15 284.91 484.79 282.88"/><polygon class="cls-1" points="417.07 273.9 418 277.76 421.72 279.18 418.33 281.27 418.13 285.24 415.1 282.66 411.27 283.7 412.78 280.02 410.61 276.69 414.57 276.99 417.07 273.9"/><polygon class="cls-1" points="461.09 362.62 462.03 366.49 465.74 367.9 462.36 369.99 462.15 373.96 459.13 371.38 455.29 372.42 456.8 368.74 454.63 365.41 458.59 365.72 461.09 362.62"/><polygon class="cls-1" points="530.91 270.67 531.85 274.53 535.57 275.95 532.18 278.03 531.98 282 528.95 279.43 525.12 280.46 526.63 276.79 524.46 273.46 528.42 273.76 530.91 270.67"/><circle class="cls-1" cx="378.78" cy="1.93" r="1.93"/><circle class="cls-1" cx="384.58" cy="57.04" r="1.93"/><circle class="cls-1" cx="368.6" cy="70.22" r="1.17"/><circle class="cls-1" cx="428.04" cy="98.94" r="1.17"/><circle class="cls-1" cx="387.43" cy="102.69" r="1.17"/><circle class="cls-1" cx="367.85" cy="59.53" r="1.17"/><circle class="cls-1" cx="407.14" cy="36.28" r="1.17"/><circle class="cls-1" cx="439.13" cy="44.06" r="1.17"/><circle class="cls-1" cx="430.44" cy="82.87" r="1.17"/><circle class="cls-1" cx="379.62" cy="17.74" r="1.17"/><circle class="cls-1" cx="385.6" cy="9.77" r="1.17"/><circle class="cls-1" cx="459.44" cy="43.22" r="1.93"/><circle class="cls-1" cx="461.33" cy="121.22" r="1.93"/><circle class="cls-1" cx="331.91" cy="90.26" r="1.93"/><polygon class="cls-1" points="408.83 49.37 409.77 53.23 413.49 54.65 410.1 56.73 409.9 60.7 406.87 58.13 403.03 59.17 404.55 55.49 402.38 52.16 406.34 52.46 408.83 49.37"/><polygon class="cls-1" points="446.98 63.76 447.6 66.29 450.03 67.22 447.81 68.58 447.68 71.18 445.7 69.5 443.19 70.17 444.18 67.77 442.75 65.59 445.35 65.79 446.98 63.76"/><polygon class="cls-1" points="349.87 53.39 350.48 55.92 352.91 56.85 350.7 58.21 350.56 60.81 348.58 59.13 346.07 59.8 347.06 57.4 345.64 55.22 348.23 55.41 349.87 53.39"/><polygon class="cls-1" points="422.5 14.41 423.12 16.94 425.55 17.86 423.33 19.23 423.2 21.83 421.22 20.14 418.7 20.82 419.69 18.41 418.27 16.23 420.87 16.43 422.5 14.41"/><polygon class="cls-1" points="354.78 5.42 355.72 9.29 359.43 10.7 356.05 12.79 355.85 16.76 352.82 14.19 348.98 15.22 350.49 11.54 348.32 8.21 352.28 8.52 354.78 5.42"/><polygon class="cls-1" points="398.8 94.14 399.74 98.01 403.45 99.43 400.07 101.51 399.87 105.48 396.84 102.91 393 103.94 394.51 100.27 392.34 96.94 396.31 97.24 398.8 94.14"/><polygon class="cls-1" points="468.63 2.19 469.57 6.05 473.28 7.47 469.89 9.55 469.69 13.53 466.67 10.95 462.83 11.99 464.34 8.31 462.17 4.98 466.13 5.28 468.63 2.19"/><circle class="cls-1" cx="45.59" cy="383.95" r="1.93"/><circle class="cls-1" cx="90.05" cy="350.85" r="1.93"/><circle class="cls-1" cx="109.52" cy="357.87" r="1.17"/><circle class="cls-1" cx="103.92" cy="292.1" r="1.17"/><circle class="cls-1" cx="127.86" cy="325.12" r="1.17"/><circle class="cls-1" cx="100.72" cy="363.97" r="1.17"/><circle class="cls-1" cx="60.68" cy="342.04" r="1.17"/><circle class="cls-1" cx="51.06" cy="310.54" r="1.17"/><circle class="cls-1" cx="88.87" cy="298.23" r="1.17"/><circle class="cls-1" cx="58.77" cy="375.16" r="1.17"/><circle class="cls-1" cx="48.86" cy="374.08" r="1.17"/><circle class="cls-1" cx="39.98" cy="293.51" r="1.93"/><circle class="cls-1" cx="106.12" cy="252.1" r="1.93"/><circle class="cls-1" cx="145.47" cy="379.22" r="1.93"/><polygon class="cls-1" points="71.08 333.9 73.92 331.12 73.25 327.21 76.77 329.05 80.28 327.2 79.61 331.12 82.46 333.89 78.53 334.47 76.77 338.03 75.01 334.47 71.08 333.9"/><polygon class="cls-1" points="64 293.74 65.86 291.93 65.42 289.36 67.73 290.57 70.03 289.36 69.59 291.92 71.45 293.74 68.88 294.12 67.73 296.45 66.58 294.12 64 293.74"/><polygon class="cls-1" points="104.61 382.57 106.47 380.75 106.03 378.19 108.33 379.4 110.63 378.19 110.19 380.75 112.06 382.57 109.48 382.94 108.33 385.28 107.18 382.94 104.61 382.57"/><polygon class="cls-1" points="34.03 339.97 35.9 338.15 35.45 335.59 37.76 336.8 40.06 335.59 39.62 338.15 41.48 339.97 38.91 340.34 37.76 342.68 36.61 340.35 34.03 339.97"/><polygon class="cls-1" points="60.84 402.81 63.69 400.03 63.01 396.11 66.53 397.96 70.05 396.11 69.38 400.03 72.23 402.8 68.29 403.37 66.54 406.94 64.78 403.38 60.84 402.81"/><polygon class="cls-1" points="114.71 319.69 117.55 316.92 116.88 313 120.4 314.85 123.92 313 123.25 316.92 126.09 319.69 122.16 320.26 120.4 323.83 118.64 320.26 114.71 319.69"/><polygon class="cls-1" points="0 306.52 2.85 303.75 2.17 299.83 5.69 301.68 9.21 299.83 8.54 303.75 11.39 306.52 7.45 307.09 5.7 310.66 3.93 307.09 0 306.52"/><circle class="cls-1" cx="149.94" cy="419.89" r="1.28"/><circle class="cls-1" cx="186.31" cy="414.03" r="1.28"/><circle class="cls-1" cx="195.63" cy="424.15" r="0.78"/><circle class="cls-1" cx="212.53" cy="383.65" r="0.78"/><circle class="cls-1" cx="216.5" cy="410.47" r="0.78"/><circle class="cls-1" cx="188.57" cy="425.04" r="0.78"/><circle class="cls-1" cx="171.7" cy="399.82" r="0.78"/><circle class="cls-1" cx="175.7" cy="378.29" r="0.78"/><circle class="cls-1" cx="201.77" cy="382.65" r="0.78"/><circle class="cls-1" cx="160.4" cy="418.76" r="0.78"/><circle class="cls-1" cx="154.89" cy="415.08" r="0.78"/><circle class="cls-1" cx="174.4" cy="364.85" r="1.28"/><circle class="cls-1" cx="226.1" cy="360.75" r="1.28"/><circle class="cls-1" cx="210.28" cy="447.77" r="1.28"/><polygon class="cls-1" points="180.33 398.21 182.86 397.45 183.66 394.93 185.17 397.1 187.81 397.09 186.22 399.19 187.04 401.7 184.55 400.83 182.42 402.4 182.47 399.75 180.33 398.21"/><polygon class="cls-1" points="188.49 372.36 190.15 371.86 190.67 370.22 191.66 371.64 193.39 371.63 192.34 373.01 192.88 374.65 191.25 374.08 189.86 375.1 189.89 373.37 188.49 372.36"/><polygon class="cls-1" points="185.15 437.2 186.81 436.7 187.33 435.06 188.32 436.48 190.05 436.47 189 437.85 189.54 439.49 187.91 438.92 186.52 439.94 186.55 438.21 185.15 437.2"/><polygon class="cls-1" points="156.62 390.42 158.28 389.92 158.81 388.27 159.79 389.69 161.52 389.68 160.48 391.06 161.02 392.7 159.38 392.13 157.99 393.15 158.03 391.43 156.62 390.42"/><polygon class="cls-1" points="153.13 435.69 155.66 434.93 156.47 432.41 157.98 434.58 160.62 434.57 159.02 436.68 159.85 439.19 157.35 438.32 155.22 439.88 155.28 437.24 153.13 435.69"/><polygon class="cls-1" points="210.41 403.23 212.94 402.47 213.75 399.95 215.26 402.13 217.9 402.11 216.3 404.22 217.13 406.73 214.63 405.86 212.5 407.42 212.56 404.78 210.41 403.23"/><polygon class="cls-1" points="146.83 360.25 149.36 359.48 150.16 356.96 151.67 359.13 154.31 359.12 152.72 361.23 153.54 363.74 151.05 362.87 148.92 364.43 148.97 361.79 146.83 360.25"/><circle class="cls-1" cx="180" cy="121.23" r="1.28"/><circle class="cls-1" cx="216.37" cy="115.37" r="1.28"/><circle class="cls-1" cx="225.69" cy="125.49" r="0.78"/><circle class="cls-1" cx="242.59" cy="84.99" r="0.78"/><circle class="cls-1" cx="246.56" cy="111.81" r="0.78"/><circle class="cls-1" cx="218.63" cy="126.38" r="0.78"/><circle class="cls-1" cx="201.76" cy="101.15" r="0.78"/><circle class="cls-1" cx="205.76" cy="79.63" r="0.78"/><circle class="cls-1" cx="231.83" cy="83.99" r="0.78"/><circle class="cls-1" cx="190.46" cy="120.1" r="0.78"/><circle class="cls-1" cx="184.95" cy="116.42" r="0.78"/><circle class="cls-1" cx="204.46" cy="66.19" r="1.28"/><circle class="cls-1" cx="256.16" cy="62.08" r="1.28"/><circle class="cls-1" cx="240.34" cy="149.11" r="1.28"/><polygon class="cls-1" points="210.39 99.55 212.92 98.78 213.72 96.27 215.23 98.44 217.87 98.43 216.28 100.53 217.1 103.04 214.61 102.17 212.48 103.73 212.53 101.09 210.39 99.55"/><polygon class="cls-1" points="218.55 73.7 220.21 73.2 220.73 71.56 221.72 72.97 223.45 72.97 222.4 74.34 222.94 75.99 221.31 75.42 219.92 76.44 219.95 74.71 218.55 73.7"/><polygon class="cls-1" points="215.21 138.54 216.87 138.04 217.39 136.39 218.38 137.81 220.11 137.81 219.06 139.18 219.6 140.83 217.97 140.26 216.58 141.28 216.61 139.55 215.21 138.54"/><polygon class="cls-1" points="186.68 91.75 188.34 91.25 188.87 89.61 189.85 91.03 191.58 91.02 190.54 92.4 191.08 94.04 189.44 93.47 188.05 94.49 188.09 92.76 186.68 91.75"/><polygon class="cls-1" points="183.19 137.03 185.72 136.27 186.53 133.75 188.04 135.92 190.68 135.91 189.08 138.01 189.91 140.52 187.41 139.66 185.28 141.22 185.34 138.57 183.19 137.03"/><polygon class="cls-1" points="240.47 104.57 243 103.81 243.81 101.29 245.32 103.46 247.96 103.45 246.36 105.56 247.19 108.06 244.69 107.19 242.56 108.76 242.62 106.12 240.47 104.57"/><polygon class="cls-1" points="176.89 61.58 179.42 60.82 180.22 58.3 181.73 60.47 184.38 60.46 182.78 62.57 183.6 65.08 181.11 64.21 178.98 65.77 179.03 63.13 176.89 61.58"/><circle class="cls-1" cx="416.1" cy="457.31" r="1.28"/><circle class="cls-1" cx="452.47" cy="451.45" r="1.28"/><circle class="cls-1" cx="461.8" cy="461.57" r="0.78"/><circle class="cls-1" cx="478.7" cy="421.07" r="0.78"/><circle class="cls-1" cx="482.67" cy="447.89" r="0.78"/><circle class="cls-1" cx="454.73" cy="462.46" r="0.78"/><circle class="cls-1" cx="437.86" cy="437.24" r="0.78"/><circle class="cls-1" cx="441.87" cy="415.72" r="0.78"/><circle class="cls-1" cx="467.94" cy="420.07" r="0.78"/><circle class="cls-1" cx="426.57" cy="456.18" r="0.78"/><circle class="cls-1" cx="421.06" cy="452.5" r="0.78"/><circle class="cls-1" cx="440.56" cy="402.27" r="1.28"/><circle class="cls-1" cx="492.27" cy="398.17" r="1.28"/><circle class="cls-1" cx="476.44" cy="485.19" r="1.28"/><polygon class="cls-1" points="446.49 435.63 449.02 434.87 449.83 432.35 451.34 434.52 453.98 434.51 452.38 436.61 453.21 439.12 450.71 438.25 448.58 439.82 448.64 437.18 446.49 435.63"/><polygon class="cls-1" points="454.65 409.78 456.31 409.29 456.84 407.64 457.82 409.06 459.55 409.05 458.51 410.43 459.05 412.07 457.42 411.5 456.02 412.52 456.06 410.8 454.65 409.78"/><polygon class="cls-1" points="451.31 474.62 452.97 474.12 453.5 472.48 454.49 473.9 456.21 473.89 455.17 475.27 455.71 476.91 454.08 476.34 452.68 477.36 452.72 475.63 451.31 474.62"/><polygon class="cls-1" points="422.79 427.84 424.44 427.34 424.97 425.69 425.96 427.11 427.69 427.1 426.64 428.48 427.18 430.12 425.55 429.55 424.15 430.58 424.19 428.85 422.79 427.84"/><polygon class="cls-1" points="419.3 473.11 421.83 472.35 422.63 469.83 424.14 472 426.78 471.99 425.19 474.1 426.01 476.61 423.52 475.74 421.39 477.3 421.44 474.66 419.3 473.11"/><polygon class="cls-1" points="476.58 440.65 479.11 439.89 479.92 437.38 481.42 439.55 484.06 439.53 482.47 441.64 483.3 444.15 480.8 443.28 478.67 444.84 478.72 442.2 476.58 440.65"/><polygon class="cls-1" points="412.99 397.67 415.52 396.9 416.33 394.39 417.84 396.56 420.48 396.54 418.88 398.65 419.71 401.16 417.21 400.29 415.08 401.85 415.14 399.21 412.99 397.67"/><circle class="cls-1" cx="492.94" cy="134.16" r="1.28"/><circle class="cls-1" cx="529.32" cy="128.3" r="1.28"/><circle class="cls-1" cx="538.64" cy="138.42" r="0.78"/><circle class="cls-1" cx="555.54" cy="97.92" r="0.78"/><circle class="cls-1" cx="559.51" cy="124.74" r="0.78"/><circle class="cls-1" cx="531.57" cy="139.31" r="0.78"/><circle class="cls-1" cx="514.71" cy="114.09" r="0.78"/><circle class="cls-1" cx="518.71" cy="92.57" r="0.78"/><circle class="cls-1" cx="544.78" cy="96.92" r="0.78"/><circle class="cls-1" cx="503.41" cy="133.03" r="0.78"/><circle class="cls-1" cx="497.9" cy="129.35" r="0.78"/><circle class="cls-1" cx="517.41" cy="79.12" r="1.28"/><circle class="cls-1" cx="569.11" cy="75.02" r="1.28"/><circle class="cls-1" cx="553.28" cy="162.04" r="1.28"/><polygon class="cls-1" points="523.34 112.48 525.87 111.72 526.67 109.2 528.18 111.37 530.82 111.36 529.22 113.46 530.05 115.97 527.55 115.1 525.42 116.67 525.48 114.03 523.34 112.48"/><polygon class="cls-1" points="531.5 86.63 533.15 86.14 533.68 84.49 534.67 85.91 536.39 85.9 535.35 87.28 535.89 88.92 534.26 88.35 532.86 89.37 532.9 87.64 531.5 86.63"/><polygon class="cls-1" points="528.16 151.47 529.81 150.97 530.34 149.33 531.33 150.75 533.06 150.74 532.01 152.12 532.55 153.76 530.92 153.19 529.52 154.21 529.56 152.48 528.16 151.47"/><polygon class="cls-1" points="499.63 104.69 501.29 104.19 501.81 102.54 502.8 103.96 504.53 103.95 503.48 105.33 504.02 106.97 502.39 106.4 501 107.43 501.03 105.7 499.63 104.69"/><polygon class="cls-1" points="496.14 149.96 498.67 149.2 499.48 146.68 500.98 148.85 503.63 148.84 502.03 150.95 502.86 153.46 500.36 152.59 498.23 154.15 498.29 151.51 496.14 149.96"/><polygon class="cls-1" points="553.42 117.5 555.95 116.74 556.76 114.22 558.26 116.39 560.91 116.38 559.31 118.49 560.14 121 557.64 120.13 555.51 121.69 555.57 119.05 553.42 117.5"/><polygon class="cls-1" points="489.84 74.52 492.37 73.75 493.17 71.24 494.68 73.41 497.32 73.39 495.72 75.5 496.55 78.01 494.06 77.14 491.93 78.7 491.98 76.06 489.84 74.52"/><circle class="cls-1" cx="118.54" cy="188.25" r="1.28"/><circle class="cls-1" cx="88.77" cy="166.55" r="1.28"/><circle class="cls-1" cx="89.4" cy="152.8" r="0.78"/><circle class="cls-1" cx="48.74" cy="169.31" r="0.78"/><circle class="cls-1" cx="64.99" cy="147.6" r="0.78"/><circle class="cls-1" cx="95" cy="157.19" r="0.78"/><circle class="cls-1" cx="88.96" cy="186.93" r="0.78"/><circle class="cls-1" cx="70.86" cy="199.24" r="0.78"/><circle class="cls-1" cx="55.6" cy="177.66" r="0.78"/><circle class="cls-1" cx="110.37" cy="181.62" r="0.78"/><circle class="cls-1" cx="111.63" cy="188.12" r="0.78"/><circle class="cls-1" cx="62.23" cy="209.63" r="1.28"/><circle class="cls-1" cx="22.91" cy="175.79" r="1.28"/><circle class="cls-1" cx="95.86" cy="125.77" r="1.28"/><polygon class="cls-1" points="81.75 181.93 79.42 180.67 77.07 181.87 77.55 179.27 75.68 177.4 78.3 177.06 79.5 174.7 80.64 177.09 83.25 177.5 81.33 179.32 81.75 181.93"/><polygon class="cls-1" points="57.65 194.33 56.13 193.5 54.58 194.29 54.9 192.59 53.68 191.37 55.39 191.14 56.17 189.6 56.92 191.16 58.63 191.43 57.38 192.62 57.65 194.33"/><polygon class="cls-1" points="106.05 151.05 104.53 150.23 102.98 151.01 103.3 149.31 102.08 148.09 103.79 147.86 104.58 146.32 105.32 147.88 107.03 148.15 105.78 149.34 106.05 151.05"/><polygon class="cls-1" points="92.9 204.25 91.38 203.43 89.84 204.21 90.15 202.51 88.93 201.29 90.64 201.06 91.43 199.52 92.17 201.08 93.88 201.35 92.63 202.54 92.9 204.25"/><polygon class="cls-1" points="127.51 174.85 125.19 173.59 122.84 174.79 123.32 172.2 121.45 170.33 124.07 169.98 125.27 167.63 126.41 170.01 129.01 170.43 127.1 172.25 127.51 174.85"/><polygon class="cls-1" points="64.13 157.03 61.81 155.76 59.46 156.97 59.94 154.37 58.07 152.5 60.69 152.15 61.89 149.8 63.03 152.18 65.64 152.59 63.72 154.41 64.13 157.03"/><polygon class="cls-1" points="78.37 232.45 76.05 231.19 73.69 232.39 74.17 229.79 72.3 227.92 74.92 227.57 76.12 225.22 77.26 227.6 79.87 228.02 77.95 229.84 78.37 232.45"/><circle class="cls-1" cx="80.64" cy="501.66" r="1.28"/><circle class="cls-1" cx="117.01" cy="495.8" r="1.28"/><circle class="cls-1" cx="126.34" cy="505.92" r="0.78"/><circle class="cls-1" cx="143.23" cy="465.42" r="0.78"/><circle class="cls-1" cx="147.21" cy="492.24" r="0.78"/><circle class="cls-1" cx="119.27" cy="506.81" r="0.78"/><circle class="cls-1" cx="102.4" cy="481.58" r="0.78"/><circle class="cls-1" cx="106.4" cy="460.06" r="0.78"/><circle class="cls-1" cx="132.47" cy="464.41" r="0.78"/><circle class="cls-1" cx="91.1" cy="500.52" r="0.78"/><circle class="cls-1" cx="85.6" cy="496.84" r="0.78"/><circle class="cls-1" cx="105.1" cy="446.61" r="1.28"/><circle class="cls-1" cx="156.81" cy="442.51" r="1.28"/><circle class="cls-1" cx="140.98" cy="529.54" r="1.28"/><polygon class="cls-1" points="111.03 479.98 113.56 479.21 114.37 476.7 115.87 478.87 118.52 478.86 116.92 480.96 117.75 483.47 115.25 482.6 113.12 484.16 113.17 481.52 111.03 479.98"/><polygon class="cls-1" points="119.19 454.13 120.85 453.63 121.38 451.98 122.36 453.4 124.09 453.4 123.05 454.77 123.59 456.42 121.95 455.85 120.56 456.87 120.59 455.14 119.19 454.13"/><polygon class="cls-1" points="115.85 518.97 117.51 518.47 118.04 516.82 119.02 518.24 120.75 518.24 119.71 519.61 120.25 521.25 118.61 520.69 117.22 521.71 117.26 519.98 115.85 518.97"/><polygon class="cls-1" points="87.33 472.18 88.98 471.68 89.51 470.04 90.5 471.45 92.22 471.45 91.18 472.82 91.72 474.47 90.09 473.9 88.69 474.92 88.73 473.19 87.33 472.18"/><polygon class="cls-1" points="83.84 517.46 86.36 516.7 87.17 514.18 88.68 516.35 91.32 516.34 89.72 518.44 90.55 520.95 88.06 520.08 85.92 521.64 85.98 519 83.84 517.46"/><polygon class="cls-1" points="141.12 485 143.65 484.24 144.45 481.72 145.96 483.89 148.6 483.88 147 485.98 147.83 488.49 145.34 487.62 143.21 489.19 143.26 486.54 141.12 485"/><polygon class="cls-1" points="77.53 442.01 80.06 441.25 80.87 438.73 82.38 440.9 85.02 440.89 83.42 442.99 84.25 445.5 81.75 444.63 79.62 446.2 79.68 443.56 77.53 442.01"/><circle class="cls-1" cx="410.29" cy="539.88" r="1.28"/><circle class="cls-1" cx="440.69" cy="560.7" r="1.28"/><circle class="cls-1" cx="440.47" cy="574.46" r="0.78"/><circle class="cls-1" cx="480.62" cy="556.76" r="0.78"/><circle class="cls-1" cx="465.02" cy="578.93" r="0.78"/><circle class="cls-1" cx="434.73" cy="570.24" r="0.78"/><circle class="cls-1" cx="439.9" cy="540.33" r="0.78"/><circle class="cls-1" cx="457.63" cy="527.49" r="0.78"/><circle class="cls-1" cx="473.52" cy="548.62" r="0.78"/><circle class="cls-1" cx="418.66" cy="546.27" r="0.78"/><circle class="cls-1" cx="417.2" cy="539.81" r="0.78"/><circle class="cls-1" cx="465.95" cy="516.85" r="1.28"/><circle class="cls-1" cx="506.25" cy="549.51" r="1.28"/><circle class="cls-1" cx="434.8" cy="601.67" r="1.28"/><polygon class="cls-1" points="447.26 545.11 449.62 546.3 451.93 545.03 451.53 547.65 453.45 549.46 450.84 549.88 449.71 552.27 448.5 549.92 445.88 549.59 447.75 547.71 447.26 545.11"/><polygon class="cls-1" points="470.98 532.01 472.53 532.79 474.04 531.96 473.78 533.67 475.04 534.85 473.33 535.13 472.59 536.69 471.8 535.16 470.08 534.94 471.3 533.71 470.98 532.01"/><polygon class="cls-1" points="423.88 576.69 425.42 577.47 426.94 576.64 426.68 578.35 427.93 579.54 426.23 579.81 425.49 581.38 424.7 579.84 422.98 579.62 424.2 578.39 423.88 576.69"/><polygon class="cls-1" points="435.45 523.13 437 523.91 438.51 523.08 438.25 524.79 439.51 525.97 437.8 526.25 437.06 527.81 436.27 526.28 434.55 526.06 435.77 524.83 435.45 523.13"/><polygon class="cls-1" points="401.72 553.53 404.08 554.72 406.39 553.46 405.99 556.07 407.92 557.88 405.31 558.3 404.18 560.69 402.97 558.34 400.35 558 402.21 556.13 401.72 553.53"/><polygon class="cls-1" points="465.6 569.49 467.95 570.68 470.27 569.41 469.87 572.02 471.79 573.83 469.18 574.26 468.05 576.65 466.85 574.3 464.22 573.96 466.08 572.09 465.6 569.49"/><polygon class="cls-1" points="449.15 494.52 451.5 495.71 453.82 494.44 453.42 497.05 455.34 498.86 452.74 499.29 451.61 501.68 450.4 499.33 447.77 498.99 449.64 497.11 449.15 494.52"/><circle class="cls-1" cx="171.24" cy="334.83" r="2.73"/><circle class="cls-1" cx="200.66" cy="261.87" r="2.73"/><circle class="cls-1" cx="229.45" cy="255.99" r="1.67"/><circle class="cls-1" cx="174.06" cy="180.42" r="1.67"/><circle class="cls-1" cx="227.47" cy="202.74" r="1.67"/><circle class="cls-1" cx="223.28" cy="269.89" r="1.67"/><circle class="cls-1" cx="158.55" cy="272.89" r="1.67"/><circle class="cls-1" cx="123.63" cy="241.83" r="1.67"/><circle class="cls-1" cx="160.35" cy="198.97" r="1.67"/><circle class="cls-1" cx="180.72" cy="314.44" r="1.67"/><circle class="cls-1" cx="167.91" cy="320.45" r="1.67"/><circle class="cls-1" cx="97.61" cy="229.38" r="2.73"/><circle class="cls-1" cx="147.16" cy="130.33" r="2.73"/><circle class="cls-1" cx="288.79" cy="255.28" r="2.73"/><polygon class="cls-1" points="165.14 255.35 166.53 249.88 162.82 245.63 168.45 245.27 171.35 240.43 173.43 245.67 178.93 246.93 174.59 250.53 175.09 256.15 170.33 253.13 165.14 255.35"/><polygon class="cls-1" points="126.89 211.91 127.81 208.33 125.38 205.55 129.06 205.31 130.96 202.15 132.32 205.58 135.92 206.4 133.08 208.76 133.41 212.43 130.29 210.46 126.89 211.91"/><polygon class="cls-1" points="241.74 289.55 242.66 285.97 240.22 283.19 243.91 282.96 245.81 279.79 247.17 283.22 250.77 284.04 247.93 286.4 248.26 290.07 245.14 288.1 241.74 289.55"/><polygon class="cls-1" points="124.73 290.08 125.65 286.5 123.22 283.72 126.91 283.49 128.8 280.31 130.16 283.75 133.76 284.57 130.92 286.93 131.25 290.61 128.13 288.63 124.73 290.08"/><polygon class="cls-1" points="203.66 346.42 205.05 340.95 201.34 336.7 206.97 336.34 209.87 331.5 211.95 336.74 217.45 338 213.11 341.6 213.61 347.22 208.84 344.2 203.66 346.42"/><polygon class="cls-1" points="207.52 205.89 208.91 200.42 205.2 196.17 210.83 195.81 213.73 190.97 215.81 196.21 221.31 197.47 216.97 201.07 217.47 206.69 212.71 203.67 207.52 205.89"/><polygon class="cls-1" points="58.77 274.7 60.17 269.23 56.46 264.98 62.09 264.62 64.98 259.78 67.07 265.02 72.57 266.28 68.23 269.88 68.73 275.5 63.96 272.48 58.77 274.7"/><ellipse class="cls-1" cx="361.66" cy="309.56" rx="2.08" ry="1.78" transform="translate(-46.55 554.49) rotate(-71.53)"/><ellipse class="cls-1" cx="309.66" cy="312.32" rx="2.08" ry="1.78" transform="translate(-84.69 507.06) rotate(-71.53)"/><ellipse class="cls-1" cx="299.71" cy="294.54" rx="1.27" ry="1.08" transform="translate(-74.63 485.47) rotate(-71.53)"/><ellipse class="cls-1" cx="264.58" cy="355.89" rx="1.27" ry="1.08" transform="translate(-156.81 494.07) rotate(-71.53)"/><ellipse class="cls-1" cx="266.87" cy="312.53" rx="1.27" ry="1.08" transform="matrix(0.32, -0.95, 0.95, 0.32, -114.12, 466.62)"/><ellipse class="cls-1" cx="309.73" cy="294.4" rx="1.27" ry="1.08" transform="translate(-67.64 494.88) rotate(-71.53)"/><ellipse class="cls-1" cx="325.74" cy="337.56" rx="1.27" ry="1.08" transform="translate(-97.64 539.54) rotate(-71.53)"/><ellipse class="cls-1" cx="313.96" cy="371.05" rx="1.27" ry="1.08" transform="translate(-137.46 551.25) rotate(-71.53)"/><ellipse class="cls-1" cx="279.17" cy="359.43" rx="1.27" ry="1.08" transform="translate(-150.2 510.32) rotate(-71.53)"/><ellipse class="cls-1" cx="346.86" cy="309.47" rx="1.27" ry="1.08" transform="translate(-56.58 540.39) rotate(-71.53)"/><ellipse class="cls-1" cx="353.41" cy="316.32" rx="1.27" ry="1.08" transform="translate(-58.6 551.28) rotate(-71.53)"/><ellipse class="cls-1" cx="311.85" cy="392.67" rx="2.08" ry="1.78" transform="translate(-159.4 564.02) rotate(-71.53)"/><ellipse class="cls-1" cx="239.16" cy="389.87" rx="2.08" ry="1.78" transform="translate(-206.4 493.17) rotate(-71.53)"/><ellipse class="cls-1" cx="286.32" cy="254.34" rx="2.08" ry="1.78" transform="translate(-45.65 445.31) rotate(-71.53)"/><polygon class="cls-1" points="313.34 338.55 309.62 339.31 307.77 343.17 306.32 339.44 302.66 338.99 305.48 335.93 305.07 331.79 308.27 333.62 311.67 331.52 310.82 335.71 313.34 338.55"/><polygon class="cls-1" points="294.55 378.18 292.12 378.68 290.91 381.2 289.96 378.76 287.56 378.46 289.41 376.46 289.14 373.75 291.23 374.95 293.46 373.58 292.9 376.32 294.55 378.18"/><polygon class="cls-1" points="317.99 275.68 315.56 276.18 314.35 278.7 313.4 276.26 311 275.96 312.85 273.96 312.58 271.25 314.67 272.45 316.89 271.08 316.34 273.82 317.99 275.68"/><polygon class="cls-1" points="343.86 355.22 341.42 355.71 340.21 358.24 339.26 355.8 336.87 355.5 338.71 353.5 338.44 350.79 340.53 351.99 342.76 350.62 342.21 353.36 343.86 355.22"/><polygon class="cls-1" points="361.82 283.85 358.11 284.61 356.26 288.47 354.81 284.74 351.15 284.29 353.97 281.23 353.55 277.09 356.75 278.92 360.15 276.82 359.31 281.01 361.82 283.85"/><polygon class="cls-1" points="273.19 325.14 269.47 325.9 267.63 329.75 266.18 326.03 262.52 325.57 265.34 322.51 264.92 318.38 268.12 320.21 271.52 318.11 270.68 322.3 273.19 325.14"/><polygon class="cls-1" points="348.64 404.96 344.92 405.72 343.07 409.57 341.62 405.85 337.96 405.39 340.78 402.33 340.37 398.19 343.57 400.03 346.97 397.93 346.12 402.12 348.64 404.96"/></g></g></g></svg>