<svg xmlns="http://www.w3.org/2000/svg" viewBox="0 0 178.5 193.23"><defs><style>.cls-1{fill:#010101;}.cls-2{fill:#010202;}.cls-3{fill:#020303;}.cls-4{fill:#030404;}.cls-5{fill:#050505;}.cls-6{fill:#050506;}.cls-7{fill:#050606;}.cls-8{fill:#0c0c0c;}.cls-9{fill:#0b0b0b;}.cls-10{fill:#0a0b0b;}.cls-11{fill:#101010;}.cls-12{fill:#121212;}.cls-13{fill:#141414;}.cls-14{fill:#161616;}.cls-15{fill:#090a0a;}.cls-16{fill:#131313;}.cls-17{fill:#191919;}.cls-18{fill:#171717;}.cls-19{fill:#202020;}.cls-20{fill:#1c1d1d;}.cls-21{fill:#1a1a1a;}.cls-22{fill:#2a2a2a;}.cls-23{fill:#1c1c1c;}.cls-24{fill:#1e1e1e;}.cls-25{fill:#222;}.cls-26{fill:#111;}.cls-27{fill:#2b2b2c;}.cls-28{fill:#aaa;}.cls-29{fill:#343434;}.cls-30{fill:#373737;}.cls-31{fill:#090909;}.cls-32{fill:#3c3c3c;}.cls-33{fill:#3c3d3d;}.cls-34{fill:#2c2c2c;}.cls-35{fill:#161717;}.cls-36{fill:#3a3a3a;}.cls-37{fill:#c9c8c8;}.cls-38{fill:#444;}.cls-39{fill:#8a8a8a;}.cls-40{fill:#333233;}.cls-41{fill:#272727;}.cls-42{fill:#feffff;}.cls-43{fill:#0b0c0c;}.cls-44{fill:#ccc;}.cls-45{fill:#0f0f0f;}.cls-46{fill:#333;}.cls-47{fill:#020202;}.cls-48{fill:#555454;}.cls-49{fill:#656565;}.cls-50{fill:#3b3b3b;}.cls-51{fill:#4d4d4d;}.cls-52{fill:#4a494a;}.cls-53{fill:#151515;}.cls-54{fill:#1f1f1f;}.cls-55{fill:#4b4b4b;}.cls-56{fill:#2d2d2e;}.cls-57{fill:#040505;}.cls-58{fill:#2f2f2f;}.cls-59{fill:#454545;}.cls-60{fill:#070808;}.cls-61{fill:#5a5a5a;}.cls-62{fill:#353535;}.cls-63{fill:#3d3d3d;}.cls-64{fill:#3e3e3e;}.cls-65{fill:#565656;}.cls-66{fill:#515151;}.cls-67{fill:#3b3a3a;}.cls-68{fill:#0e0e0e;}.cls-69{fill:#484748;}.cls-70{fill:#999998;}.cls-71{fill:#89898a;}.cls-72{fill:#262626;}.cls-73{fill:#1d1e1e;}.cls-74{fill:#d6d6d6;}.cls-75{fill:#565555;}.cls-76{fill:#434343;}.cls-77{fill:#7c7d7d;}.cls-78{fill:#858586;}.cls-79{fill:#525252;}.cls-80{fill:#2e2e2e;}.cls-81{fill:#2b2b2b;}.cls-82{fill:#3f3f3f;}.cls-83{fill:#5d5d5d;}.cls-84{fill:#09090a;}.cls-85{fill:#fff;}.cls-86{fill:#fefefe;}.cls-87{fill:#f9f9f9;}.cls-88{fill:#fafafa;}.cls-89{fill:#faf9f9;}.cls-90{fill:#f4f4f4;}.cls-91{fill:#faf9fa;}.cls-92{fill:#f6f6f6;}.cls-93{fill:#f8f8f8;}.cls-94{fill:#f5f5f5;}.cls-95{fill:#ededed;}.cls-96{fill:#f4f3f3;}.cls-97{fill:#f3f3f3;}.cls-98{fill:#f5f4f4;}.cls-99{fill:#eee;}.cls-100{fill:#dbdcdb;}.cls-101{fill:#f0f0f0;}.cls-102{fill:#efefef;}.cls-103{fill:#f1f1f1;}.cls-104{fill:#ddd;}.cls-105{fill:#dedede;}.cls-106{fill:#eaeaea;}.cls-107{fill:#ebebeb;}.cls-108{fill:#d3d3d3;}.cls-109{fill:#e9e9e9;}.cls-110{fill:#1d1d1d;}.cls-111{fill:#e6e6e5;}.cls-112{fill:#e7e7e7;}.cls-113{fill:#e5e5e5;}.cls-114{fill:#e3e3e3;}.cls-115{fill:#212121;}.cls-116{fill:#e4e4e3;}.cls-117{fill:#cececd;}.cls-118{fill:#0c0d0d;}.cls-119{fill:#d5d5d6;}.cls-120{fill:#1b1b1b;}.cls-121{fill:#838383;}.cls-122{fill:#cccbcb;}.cls-123{fill:#cacaca;}.cls-124{fill:#e4e4e4;}.cls-125{fill:#3f3f40;}.cls-126{fill:#303030;}.cls-127{fill:#c6c6c6;}.cls-128{fill:#d4d3d3;}.cls-129{fill:#e8e8e8;}.cls-130{fill:#b3b2b2;}.cls-131{fill:#d1d1d1;}.cls-132{fill:#181818;}.cls-133{fill:#b2b1b1;}.cls-134{fill:#424242;}.cls-135{fill:#a4a4a3;}.cls-136{fill:#c4c3c3;}.cls-137{fill:#bdbcbc;}.cls-138{fill:#242424;}.cls-139{fill:#6f6e6e;}.cls-140{fill:#0b0b0c;}.cls-141{fill:#989898;}.cls-142{fill:#595858;}.cls-143{fill:#2d2d2d;}.cls-144{fill:#504f4f;}.cls-145{fill:#2c2b2c;}.cls-146{fill:#f8f7f7;}.cls-147{fill:#272728;}.cls-148{fill:#7d7d7d;}.cls-149{fill:#383837;}.cls-150{fill:#898989;}.cls-151{fill:#4c4b4b;}.cls-152{fill:#404040;}.cls-153{fill:#626261;}.cls-154{fill:#080808;}.cls-155{fill:#ececec;}.cls-156{fill:#c3c3c3;}.cls-157{fill:#cdcccc;}.cls-158{fill:#555;}.cls-159{fill:#414141;}.cls-160{fill:#2e2e2f;}.cls-161{fill:#2e2f2f;}.cls-162{fill:#464646;}.cls-163{fill:#676767;}.cls-164{fill:#313131;}.cls-165{fill:#646463;}.cls-166{fill:#303131;}.cls-167{fill:#292929;}.cls-168{fill:#393939;}.cls-169{fill:#626262;}.cls-170{fill:#c5c4c5;}.cls-171{fill:#212222;}.cls-172{fill:#060707;}.cls-173{fill:#0a0a0a;}.cls-174{fill:#202121;}.cls-175{fill:#282829;}.cls-176{fill:#1f2020;}.cls-177{fill:#242425;}.cls-178{fill:#5b5b5b;}.cls-179{fill:#7a7a7a;}.cls-180{fill:#6e6e6e;}.cls-181{fill:#939393;}.cls-182{fill:#2c2c2d;}.cls-183{fill:#818182;}.cls-184{fill:#747474;}.cls-185{fill:#797979;}.cls-186{fill:#727272;}.cls-187{fill:#6d6d6d;}.cls-188{fill:#252525;}.cls-189{fill:#0e0f0f;}.cls-190{fill:#4d4c4c;}.cls-191{fill:gray;}.cls-192{fill:#848484;}.cls-193{fill:#232323;}.cls-194{fill:#979797;}.cls-195{fill:#313132;}.cls-196{fill:#858585;}.cls-197{fill:#282828;}.cls-198{fill:#757575;}.cls-199{fill:#535252;}.cls-200{fill:#4a4a4a;}.cls-201{fill:#787878;}.cls-202{fill:#a2a1a1;}.cls-203{fill:#a8a8a8;}.cls-204{fill:#8e8e8f;}.cls-205{fill:#949494;}.cls-206{fill:#b1b0b0;}.cls-207{fill:#9f9f9f;}.cls-208{fill:#5c5c5c;}.cls-209{fill:#7e7f7f;}.cls-210{fill:#0a0a0b;}.cls-211{fill:#323232;}.cls-212{fill:#464545;}.cls-213{fill:#6c6c6c;}.cls-214{fill:#383838;}.cls-215{fill:#0d0e0e;}.cls-216{fill:#d5d5d5;}.cls-217{fill:#474747;}.cls-218{fill:#969696;}.cls-219{fill:#777;}.cls-220{fill:#030303;}.cls-221{fill:#c1c0c0;}.cls-222{fill:#5c5b5b;}.cls-223{fill:#121211;}.cls-224{fill:#494949;}.cls-225{fill:#545353;}.cls-226{fill:#535353;}.cls-227{fill:#4e4e4e;}.cls-228{fill:#767677;}.cls-229{fill:#575757;}.cls-230{fill:#070707;}.cls-231{fill:#8f8f8f;}.cls-232{fill:#6b6b6b;}.cls-233{fill:#606060;}</style></defs><g id="Laag_2" data-name="Laag 2"><g id="Laag_1-2" data-name="Laag 1"><g id="INATyy"><path class="cls-1" d="M150.42,151.73c.74-2.92,2.58-5.27,4-7.82.34-.59.32-1.36.94-1.8a2.5,2.5,0,0,1,.5-.66.33.33,0,0,0,.11-.15l-.17.16a1.52,1.52,0,0,1-.69.43c-3,1.82-4.87,4.61-6.32,7.73-.52,1.11-1.23,2.13-1.86,3.19-.29.06-.44,0-.33-.34-.2-1,.61-1.53,1-2.22,1.51-2.61,2.54-5.55,5-7.55a10.72,10.72,0,0,0,2.36-2.44c-1.55-1-1.47-1-2.56.46a39.87,39.87,0,0,1-4.56,4.9c-3,2.83-5.79,5.76-7.34,9.67a8.19,8.19,0,0,1-.74,1.23.22.22,0,0,1-.32,0l.52-1.79-.22-.18L138.45,156c-.27.08-.35,0-.3-.29,1-2.66,3.26-4.46,5.12-6.43s3.19-4,5.29-5.55a10.75,10.75,0,0,0,3.24-4.26c.29-.62.42-1-.44-1.27S150,137,149,136.49c-.13,3.34-2.74,5.49-3.67,8.41a1.77,1.77,0,0,1-1,1c-.29.06-.41-.06-.33-.35.82-2,2-3.71,2.83-5.66a6.92,6.92,0,0,0,.54-3.71,1.39,1.39,0,0,0-1.06-1.23c-.62-.11-.59.64-.7,1-.38,1.31-.8,2.59-1.28,3.87a5.9,5.9,0,0,1-1.35,2.06c-.26.07-.36-.09-.42-.29a11.47,11.47,0,0,1,1-2.71,35.34,35.34,0,0,0,.91-5.6,18.1,18.1,0,0,1-2.47,5.82,9.68,9.68,0,0,1-5.67,4c-.2-.09-.35-.2-.28-.45a24.86,24.86,0,0,0,4.29-3.7c1.86-1.82,2-4.34,2.33-6.74.06-.39-.25-.63-.45-.92a3.53,3.53,0,0,1,.23-4.71,14.09,14.09,0,0,0,3.32-6.23c.54-1.86,1.62-2.33,3.33-1.44.28.14.56.58.88.09s-.19-.53-.43-.75c-2.08-1.88-2.44-3.11-1.17-5.18a20,20,0,0,0,2.34-7.1,3.79,3.79,0,0,1,1.8-2.9c.31-.12.59.07,1,0a4.91,4.91,0,0,1-1-.24,6.69,6.69,0,0,1-.37-3.85,12.29,12.29,0,0,0-.37-4.83,29.15,29.15,0,0,1-.65-4.27c-.12-1,.52-1.52,1.48-1.67.34,0,.77,0,1-.16s.87-.3.68-.81-.59-.22-.94-.18c-2.1.24-3.23-.32-4-2.31S147,81,146.39,78.78a5.21,5.21,0,0,1,.12-3.59,3.54,3.54,0,0,0,.15-1.46c-.91.22-1.16,1.12-1.87,1.49a1.72,1.72,0,0,1-2.17-.06,19.51,19.51,0,0,0-5-2.56c-1.14-.5-2.43-.66-3.44-1.47a2,2,0,0,1-.68-3c.18-.4.46-.94,0-1.19s-.75.21-1,.63A3.45,3.45,0,0,0,132,69a1.73,1.73,0,0,1-2.25,1.53,69.51,69.51,0,0,0-8.4-.87c-.13,0-.26,0-.39,0-2.46.22-3.33-.46-3.76-2.93-.06-.35.25-1-.56-.91-.64.06-1.12.27-1.24,1a.62.62,0,0,0,0,.13c0,1,.33,2.24-.51,3s-2.34,1-3.58,1.25a21,21,0,0,1-5.73.89c-.74,0-.73.44-.73,1,0,1.51.5,3,.44,4.48A14.38,14.38,0,0,1,105,81a3.12,3.12,0,0,0,1.49,3.46,10.11,10.11,0,0,1,4.91,5.92,19.2,19.2,0,0,1,.21,5.1,11.56,11.56,0,0,0,.07,2.63c-.37.7.44,1.43-.06,2.13-1.69,3.41-3.16,6.94-7,8.64A35.46,35.46,0,0,0,98,113a34.67,34.67,0,0,1-9.46,5.3,49.23,49.23,0,0,0-4.63,1.94,7.21,7.21,0,0,0-2.8,1.92A11.38,11.38,0,0,1,78.84,124a53.91,53.91,0,0,0-7.44,7,11.16,11.16,0,0,1-2.33,1.69c-1.43.92-2.39,2.33-3.66,3.41-.4-.12-.44.2-.55.44a64.08,64.08,0,0,0-8,4c-1.74.95-3.28,2.27-5,3.11a43.51,43.51,0,0,1-4.54,2c-1.55.56-2.93,1.4-4.4,2.09-4.17,2-8.79,1.74-13.14,2.83a2.7,2.7,0,0,1-1.43-.12c-1.37-.43-2.71-.93-4.05-1.42a1,1,0,0,1-.55-.34c-1-1.78-2.62-3.21-3-5.35a1.87,1.87,0,0,1,.16-1.63A2,2,0,0,0,21,139.3c.12-1.09.77-1.3,1.71-1a2.07,2.07,0,0,0,2.9,0,1.54,1.54,0,0,1,1.09-.32.85.85,0,0,1,.81.74c-.08.59-.54.89-1,1.19a9.6,9.6,0,0,0-1.78,1.59,2.16,2.16,0,0,0,.9,3.62c1.89.49,3.35,1.75,5.13,2.38.34.23.76.17,1.13.29s.88.2.2.65c0,0-.05,0-.05,0,.15-.12.36.29.48,0,.3-.82.83-.71,1.46-.42.22.1,0-.22.14-.28.23-.49.7-.49,1.13-.55,6.72-1,12.54-4.08,18.2-7.62,2.28-1.42,4.71-2.61,7-4a76.64,76.64,0,0,0,12.3-9.19c2.32-2.18,4.86-4.08,7.38-6A44.48,44.48,0,0,1,91.94,114a10.08,10.08,0,0,0,2.78-1.53c2-1.62,4.37-2.5,6.5-3.85,4-2.5,5.86-6.23,6.32-10.78.18-1.76.48-3.5.56-5.27.1-2.2-1-3.74-2.34-5.28-2.7-3-6.44-4.44-9.73-6.55-.67-.43-1.45-.7-1.82-1.48a.53.53,0,0,1,.3-.67,1.48,1.48,0,0,1,1.12.29c1.81,1.16,3.78,2,5.62,3.09.17.44.37.62.64.07a27.67,27.67,0,0,0-.45-8.12,24.94,24.94,0,0,0-2.81-6.22,12.33,12.33,0,0,1-1.16-3.77c0-.24,0-.53-.35-.53a.61.61,0,0,1-.33-.34,1.31,1.31,0,0,1-.09-.34,3.35,3.35,0,0,0-.4-1.15,7.39,7.39,0,0,0-.06-5.92c-1.21-2.78-2.63-5.41-5.14-7.28a17.06,17.06,0,0,0-7.62-3.22,4.66,4.66,0,0,0-3.16.61c-3.69,2-6.24,5.15-8.43,8.64a2.28,2.28,0,0,0-.09,2.72,2.21,2.21,0,0,0,2.52.68,4.41,4.41,0,0,1,1.44-.21.48.48,0,0,1,.37.43,3.84,3.84,0,0,1-4.59,1.82,2.86,2.86,0,0,1-1.55-1,2.69,2.69,0,0,1-.41-1.19,13.29,13.29,0,0,1,0-1.67,10.82,10.82,0,0,1,1.76-3.82,82.81,82.81,0,0,1,6.56-7.45A51.69,51.69,0,0,0,87.6,30.57a34.66,34.66,0,0,0,3.08-10.25,12.28,12.28,0,0,0-2.34-8.88c-1-1.35-2-2.69-3.1-4a20.39,20.39,0,0,0-5-3.85c-.56-.35-1.21-.73-1.84-.27s-.44,1.2-.3,1.85A13.05,13.05,0,0,0,79.59,8.3,17.31,17.31,0,0,1,81.53,18c-.21,2.94-1.3,5.46-2.3,8.09a3.43,3.43,0,0,1-.66,1,101.9,101.9,0,0,1-7.68,8,57,57,0,0,1-6,4.95c-1.19.85-2.06,2.06-3.19,3a65.6,65.6,0,0,0-9.87,10.46A27,27,0,0,0,49.25,58c-.23.45-.53.89-.18,1.41.07.47.34,1.07-.59.88a.55.55,0,0,1,0,.5,30,30,0,0,0-4.57,2.87A79.9,79.9,0,0,0,33.2,74.21,19.41,19.41,0,0,1,28.29,79a8.15,8.15,0,0,1-1.91.35c-.51.12-1,0-.87-.74.69-1.8,2.36-2.68,3.71-3.83a26.64,26.64,0,0,0,5.84-7.07c1.13-2,3-3.07,4.76-4.29a26.64,26.64,0,0,0,5.54-5C46.56,57,46.82,55,47.5,53.32a14.62,14.62,0,0,1,5.14-6.17c2.24-1.72,4.66-3.22,6.36-5.54a5.08,5.08,0,0,1,1-1c3.31-2.52,6.64-5,9.95-7.53a12.44,12.44,0,0,0,1.87-1.83c2.44-2.9,5.1-5.67,6.65-9.17a12.24,12.24,0,0,0,.83-5.61c-.11-2.33-1.21-4.27-1.69-6.42A10.71,10.71,0,0,0,75,5.68a4.54,4.54,0,0,1-.71-4.3,1.87,1.87,0,0,1,1.18-1C77.08,0,78.78-.28,80.3.63c1.28.77,2.91,1.15,3.86,2.19,1.78,1.94,4.17,3.49,5.23,5.9s2.78,4.4,3.55,7.07c1.08,3.74.29,7.06-.84,10.41A40.68,40.68,0,0,1,87.85,36,26.33,26.33,0,0,1,85,39.81a2.89,2.89,0,0,0-.75,1.08c-.32,1-.17,1.61,1,1.79,1,.15,2-.08,3,.4l3.6,1.84a3.5,3.5,0,0,1,1.64,1.83,7.09,7.09,0,0,0,2.14,3.12,2.75,2.75,0,0,1,.85,1.61,1.67,1.67,0,0,0,1.7,1.26,5.87,5.87,0,0,1-.94-2.8c0-1.53.76-2.59,2.25-2.46,2,.17,3-.64,3.79-2.48A10.75,10.75,0,0,1,109,39.53c.75-.34,1.91.57,2.06,1.54a8.58,8.58,0,0,1-.63,3.75c-.39,1.37-.11,1.77,1.27,1.45s2.52-.21,3,1.58c.25,1,1.43.65,2.21.7,1.82.13,2-.1,2.22-1.9a2.15,2.15,0,0,1,2.6-1.95c3.54.52,2.78-.19,4.42-2.35a8.7,8.7,0,0,1,3.79-3,1.94,1.94,0,0,1,2.22.4,2.22,2.22,0,0,1,.35,2.48,6.21,6.21,0,0,0-.71,2.79c0,.74.25,1,1.07.81A2.59,2.59,0,0,1,136,49.05c-.12.48-.18.67.44.88a12.74,12.74,0,0,0,2.71.48A1.61,1.61,0,0,0,141,49.22c.65-1.72,1.44-2,2.87-.86,1.88,1.5,3.51,1.15,5.4,0,1.43-.84,2.84-1.91,4.67-1.83,2.73.12,2.78,1.84,2,3.62a8.54,8.54,0,0,1-1.43,2c-.67.82-.56,1.45.42,2,1.64.92,2.08,2.16,1.18,3.85-.53,1-.27,1.51.59,2a17.09,17.09,0,0,1,2.15,1.53c1,.8,1.91,1.48,3.32,1s2,.52,2.44,1.47c.29.63.48.68,1.12.67a11.86,11.86,0,0,1,7,1.6,3.76,3.76,0,0,1,1.58,2.35c.25,1-.83,1.95-2.1,1.9-.85,0-1.91-.11-2.33.55-.51.81.5,1.47.94,2.13,1.07,1.59,1.06,1.91-.46,3.09a2.43,2.43,0,0,0-1.08,2.12c0,1.45.21,2.89.35,4.34.06.64.26,1.1,1.1.84,2-.6,3.87.53,3.28,3.06-.11.47-.07,1-.16,1.45-.2,1.1.17,1.67,1.23,2.26a7.37,7.37,0,0,1,3.43,5.36c.18.94-.67,1.37-1.4,1.44a5.15,5.15,0,0,1-2.91-.65c-.28-.16-.46-.62-.86-.27a.86.86,0,0,0-.19,1c.25.84.46,1.7.72,2.54.56,1.89-.47,3-2.37,2.65-.39-.08-.8-.28-1.09.15a2.72,2.72,0,0,0-.37,1.65c0,.24.2.2.37.23,2,.29,2.75,1.36,2.45,3.31a8.86,8.86,0,0,0-.18,1.44,1.36,1.36,0,0,0,.84,1.54,5.58,5.58,0,0,1,2.83,4c.3,1.1,1.11,2.1.49,3.41s-1.86,1.72-2.93.7a6.17,6.17,0,0,0-2.64-1.08c-.66-.22-.83.35-.85,1a6.21,6.21,0,0,1-.4,3c-.43.74-.82,1.64-2,1.18a.66.66,0,0,0-.9.35.85.85,0,0,0,.27,1,4.33,4.33,0,0,1,.84,5.27,2.45,2.45,0,0,0-.24,2.1c.83,2.36.84,4.86,1.28,7.29.3,1.68-1.19,3-2.7,3.36-.6.15-.94-.42-1.21-.86-.39-.63-.66-1.34-1.08-2-.19-.29-.33-.83-.82-.71s-.44.58-.47.88a3.13,3.13,0,0,1-1.27,1.9,2.41,2.41,0,0,1-1.94.6c-3.28-.22-4.72,2-5.9,4.45-1,2-2.24,3.74-3.18,5.71C150.43,152.18,150.56,151.9,150.42,151.73Z"/><path class="cls-2" d="M56.63,107.36c-1.05.37-1.87-.72-3-.37a10.52,10.52,0,0,1-3.84.66c-.65,0-.89.86-1.29,1.35-.74.94-1.24.23-1.77-.26a4.23,4.23,0,0,1,1.77-3.44,2.71,2.71,0,0,1,.75.1c1.06.08,2.15.28,2.69-1a.52.52,0,0,1,.43-.3,13.26,13.26,0,0,1,4.12.75c1.1.49,3-1.08,3-2.39a3,3,0,0,1,1.88-2.53c1.7-.57,3.48-1,4.62-2.59.32-.45.68-.34,1.12,0,1.39.93,2.15.75,3-.7.65-1.1,1.45-2.11,2-3.26.12-.25.43-.52,0-.76a.92.92,0,0,1-.74-1.3,1.33,1.33,0,0,1,.82-.63c2-.63,3.82-2,6.08-2,.23,0,.34.68.72.12.18-.26.52-.2.79,0a1.94,1.94,0,0,1,.51,1,3.5,3.5,0,0,1-.87,2.81c-1.23,1.94-3.06,3.31-4.71,4.82-2.08,1.92-4,4-6,6a11.53,11.53,0,0,1-3.32,2.57.46.46,0,0,1-.41-.35,1.28,1.28,0,0,1,.61-1.09c1.43-1.15,2.5-2.66,3.88-3.85a13.55,13.55,0,0,0,1.24-1.51c-.65.43-.8,1.13-1.3,1.53a32.88,32.88,0,0,0-6.05,3.51,11.67,11.67,0,0,0-3.38,4,4,4,0,0,1-2.83,2.17c-1.33.24-2.09.8-2.07,2a2.1,2.1,0,0,1-1.62,2.2,1.73,1.73,0,0,1-.75,0c-1.16-.3-2.09-.11-2.44,1.22a4,4,0,0,0-.4,1.83,1.43,1.43,0,0,1-.68.86,3.58,3.58,0,0,1-1.11.25.63.63,0,0,1-.33-.15c-.63-1,.61-1,.85-1.59a9.8,9.8,0,0,1,1-3.51,1.23,1.23,0,0,1,1.71-.64c1.63.57,1.84.41,2.08-1.34.17-1.23,1.15-1.67,2.07-2.19.69-.39,1.68-.34,1.94-1.34.14-.15.5-.27.33-.47C57.48,107,57,107.22,56.63,107.36Z"/><path class="cls-2" d="M25.51,78.6c.13.29.36.69.64.52.68-.41,1.44-.12,2.12-.4.21.42-.1.65-.34.9C24.6,83,21.69,86.7,18.58,90.23a14.85,14.85,0,0,1-2.07,2c-.3,0-.41.08-.36.38s0,.5.38.45a1.41,1.41,0,0,1,1,.09.65.65,0,0,1,.21.72,5.27,5.27,0,0,1-2.35,1.39c-1.65.49-3.33.9-5,1.44A9.68,9.68,0,0,0,5,101.66c-1.59,2.84-1.43,6-1.88,9a38.06,38.06,0,0,0-.26,4.89,1.17,1.17,0,0,1-.66.92c-.62.08-.67-.71-1.2-.79a.4.4,0,0,1-.22-.41,18.06,18.06,0,0,1-.39-2c-.79-1.77,0-3.57-.06-5.37-.15-2.23.88-4.23,1.5-6.31a16.36,16.36,0,0,1,1.66-3.81c1-1.79,2.87-2,4.42-2.84a4,4,0,0,1,1.54-.34,6.42,6.42,0,0,0,5-3c1.14-1.56,2.44-3,3.68-4.49a6.91,6.91,0,0,0,1.08-1.65A10.16,10.16,0,0,1,23.51,81,6.85,6.85,0,0,0,25.51,78.6Z"/><path class="cls-3" d="M47,108.72c.45.32.88.79,1.49.28l-.32,1c0,.28-.23.53-.07.82-.17,1.44-.61,2.66-2.31,2.86-.35,0-.5.23-.65.55-1.53,3.06-3.27,3.46-6,1.4-.89-.67-1.78-.27-2.24,1.09-.37,1.12-.72,2.19-2.13,2.35a4.52,4.52,0,0,1-.63.08c-2.26-.09-2.41,0-3,2.12a14.15,14.15,0,0,0-.61,3,2.55,2.55,0,0,1-1.16,2.29c-.84.27-1.3,0-1.42-.9a43,43,0,0,0,1.55-4.29c.21-.33.42-.66.07-1-.95-1.16-.92-1.5.19-2.41a9.07,9.07,0,0,1,.94-.69,2.61,2.61,0,0,1,.54-.24,4.31,4.31,0,0,1,2.88.51c.24.08.38.28.58.42.11-.18-.05-.37,0-.56a8.26,8.26,0,0,0,1-2.74c.16-.35.36-.66.54-1,.53-.69,1.53-.78,2-1.61.23-.39.63.07.76.38A4.2,4.2,0,0,0,40.33,114c.58.49,1.19,1,2,.42a2.19,2.19,0,0,0,.27-2.76c-.24-.3-.59-.52-.69-.93s.25-.53.6-.57c.18,0,.36-.08.55-.12a2.48,2.48,0,0,1,1.91.64c1,.63,1.14.56,1.58-.49C46.73,109.71,46.63,109.14,47,108.72Z"/><path class="cls-4" d="M22.71,138.42c-.83-.21-1.26.35-1.7.88l-.55-1c-.35-.71.74-1.19.31-1.91-.13-.21,0-.79-.54-.34a16.53,16.53,0,0,1,0-3.85c0-1.23.76-1.52,2-1.12.36.11.81-.19,1.1.23-.32.62.13.68.54.76.29.33.54.89.86.94.62.08,1.14.71,1.73.44s.27-1,.4-1.54a5.19,5.19,0,0,1,1.78-2.54c.32-.3.65-.14.83.26.31.81-.79,1.62,0,2.43a3.14,3.14,0,0,1,.47,2.07,1.33,1.33,0,0,1-.61.75c-.7.47-1.33-.08-2-.14s-1.41-.32-2.08.1l-.28.22a.9.9,0,0,1-.36.05,2.08,2.08,0,0,1-.53-.14c-.55-.08-.89-1-1.47-.57a2.15,2.15,0,0,0-.65,2.16C22.16,137.25,22.69,137.74,22.71,138.42Z"/><path class="cls-5" d="M29.27,132.08c-.91-.93,0-1.65.28-2.44a4.67,4.67,0,0,1,1.74.59,1.69,1.69,0,0,0,2-.36,1.89,1.89,0,0,0,.29-2.21,2.26,2.26,0,0,1-.27-1.52A1.23,1.23,0,0,1,35.19,125c.6.22,1,.24.88-.54-.22-2.18.13-2.41,2.25-1.49.26.46.77.39,1.17.54.65.55,1.3.19,1.95,0s.72.52.61.83.3.43.3.69a.49.49,0,0,1-.23.28,2,2,0,0,1-1.16.07,8.84,8.84,0,0,0-2.6-.77c-.21.44,0,.82,0,1.21a1.56,1.56,0,0,1-.57,1.41c-.5.39-1,.11-1.46-.17a3.22,3.22,0,0,0-1.16-.57c-.11,0-.33-.09-.3,0,.32.46.18,1,.46,1.49a2.64,2.64,0,0,1,.29.9,1.94,1.94,0,0,1,0,.59c-.36.81-.41,1.83-1.44,2.2a.71.71,0,0,1-.62-.3c-.3-.29-.5,0-.72.12a2.94,2.94,0,0,1-1.76,0c-.42-.32-.85.15-1.27,0C29.08,131.18,29.66,132.09,29.27,132.08Z"/><path class="cls-6" d="M19.48,127a10.17,10.17,0,0,1,.25,3,1.63,1.63,0,0,1-2.28,1.55A7.72,7.72,0,0,1,14.38,130a11.07,11.07,0,0,0,.72-1.19,6,6,0,0,1,1,.24c1.23.18,1.45-.05,1.15-1.25a1.57,1.57,0,0,1,.18-1.27c.14-.17.41-.12.52-.33s-.25-.15-.09-.08.1.07,0,.13a.63.63,0,0,1-.48.07,2.55,2.55,0,0,1-.61-2c.08-.92,1.32-.83,1.46-1.69a2.38,2.38,0,0,1,1.7-1.07.61.61,0,0,1,.46.28c.22.49.51.94.73,1.43-.14.45.05,1.12-.74,1.14-.62.19-2-.65-1.48,1.08C19,126,19,126.64,19.48,127Z"/><path class="cls-5" d="M.85,115.35l.27.26c.18.35.6.46.79.8a1,1,0,0,0,.58-.89c.13,0,.31.08.32.19.21,1.59,1.33,2.44,2.57,3.19a.6.6,0,0,1,.09.34.41.41,0,0,0,.11.57c.27,0-.24.47.15.3A3.23,3.23,0,0,1,7,120c-.23-.15-.73.19-.79-.3,0-.3.34-.35.59-.4a8.79,8.79,0,0,1,1.45,0,1.81,1.81,0,0,1,.72.17c.42.78-.53.91-.69,1.42l-.2.28c-.45.49.16,1.16-.28,1.64a.52.52,0,0,1-.34.09,4.41,4.41,0,0,0-.81-.32A39.42,39.42,0,0,0,2.13,121c-.4-.07-.81-.25-.83-.72-.07-1.66-.84-3.22-.71-4.9C.68,115.24.77,115.24.85,115.35Z"/><path class="cls-7" d="M28.21,125.44c-.07.84.54,1,1.16,1.09-1.7,1.1-1.87,1.08-3-.33-.25-.18-.29-1-.82-.26-1.4,1.33-3,1-4.51-1,0-.67.52-.67,1-.74,2.46.84,2.46.84,2.27-1.79,0-.18,0,0,0-.13a2.47,2.47,0,0,1,.39-1.09c.81-.32,1.09.29,1.41.81C26.82,123.11,27.53,124.26,28.21,125.44Z"/><path class="cls-8" d="M7.49,122.78c.37-.27.19-.59.09-.92s-.23-.91.5-.87c.82.55,1.23,1.47,1.93,2.14a4.68,4.68,0,0,1,.38.39,14.56,14.56,0,0,0,4.54,4.86c.17.12.38.24.21.51a1.46,1.46,0,0,1-.76,1.11,7.48,7.48,0,0,1-3.19-3,.49.49,0,0,0,.16-.19.43.43,0,0,1-.15.2c-1-.37-1.24-1.58-2.12-2.14a4.22,4.22,0,0,1-.84-1,2.46,2.46,0,0,0-.09-.39c0-.13.32-.7-.28-.3C7.62,123.18,7.38,123.13,7.49,122.78Z"/><path class="cls-9" d="M148.26,170.05a17.52,17.52,0,0,1,1.91,11.23,1.89,1.89,0,0,1-.59,1.26c-.51,0-.41-.27-.28-.57a32,32,0,0,0-.45-8.34c-.22-1.12-1-2.08-.89-3.27C147.86,170.06,148,170,148.26,170.05Z"/><path class="cls-10" d="M146.63,152.47l.33.34c-.09,1.7-1.13,3.11-1.38,4.76a5.49,5.49,0,0,0-.13,1.76c0,.26.14.65-.38.63-.78.14-.63.85-.51,1.23a3.38,3.38,0,0,1-.37,2.46c-.39,0-.36-.25-.2-.51-.38-1.46-.92-2.86.12-4.35C145.43,156.9,145.48,154.46,146.63,152.47Z"/><path class="cls-10" d="M48.62,116.93c.3.25.25.48-.12.52-.73.07-.63.58-.64,1.06-2,.38-2.7,2.35-4.22,3.3-.82,0-1.09-.43-1.1-1.16.66-.94,1.28-1.91,2-2.8.41-.51,1.12-.33,1.71-.4.2.08.23.33.42.42-.05-.23-.28-.28-.43-.41C46.93,116.8,48,117.72,48.62,116.93Z"/><path class="cls-11" d="M114.51,169a5.15,5.15,0,0,1-3.27,0,2.43,2.43,0,0,0-1.66,0c-1.83.67-2.11.53-2.75-1.27-.16-.45-.34-.9-.5-1.34a.15.15,0,0,1,.24-.06c.28.1.56.16.71.51.64,1.54,1,1.75,2.52,1.27a2.62,2.62,0,0,1,2.59.39c.48.28,1,.07,1.5.14C114.14,168.64,114.54,168.46,114.51,169Z"/><path class="cls-12" d="M150.44,155.73a11.39,11.39,0,0,0,0,3.14c.06,1.31.51,1.56,1.78,1.11.31-.11.6-.42,1.08-.16a4.4,4.4,0,0,1-2,1.47c-1,.34-1.9-.71-1.84-2.27a6.6,6.6,0,0,1,.74-3.3A.19.19,0,0,1,150.44,155.73Z"/><path class="cls-13" d="M134.19,144.28a18.42,18.42,0,0,0-1.63,3.72c-.3,1.18-1.45,1.43-2.36,1.91a9.69,9.69,0,0,1-1.34.49,1.31,1.31,0,0,1,.9-1.33c1.85-.35,2.31-1.88,3-3.24A2.5,2.5,0,0,1,134.19,144.28Z"/><path class="cls-14" d="M139.25,171.58c.7.83,1.06,1.88,2,2.54a2.42,2.42,0,0,0,3,.21c.19-.12.41-.46.64-.11s0,.49-.2.69a2.34,2.34,0,0,1-3.46.1,5.86,5.86,0,0,1-2.31-3.1C139.05,171.78,139.08,171.62,139.25,171.58Z"/><path class="cls-15" d="M42.54,120.65c.34.39.48,1,1.1,1.07.22.31.07.59,0,.88a2,2,0,0,0-.18.9c-.1.74-.17,1.5-1.12,1.69-.1-.36-1.35-.14-.51-1,.09-.09-.07-.49-.34-.61A13.11,13.11,0,0,1,42.54,120.65Z"/><path class="cls-16" d="M126,159.85c.62-2.21,2.24-3.59,4.06-4.78.42-.27.88-.64,1.47-.43,0,.13,0,.33-.12.37-2.28,1.08-3.49,3.31-5.28,4.92l-.12,0Z"/><path class="cls-17" d="M135.55,161.83a39.61,39.61,0,0,1-1.89,6.11c-.26.31-.53.51-.8,0,.95-2,1-4.28,2.35-6.12A.24.24,0,0,1,135.55,161.83Z"/><path class="cls-13" d="M131.76,154.45c.87-1.83,1.66-3.71,3.69-4.6.28-.09.37,0,.32.3a24.6,24.6,0,0,0-2.82,3.62A1.18,1.18,0,0,1,131.76,154.45Z"/><path class="cls-18" d="M131.25,172.18c-.21.48-.41,1-.65,1.44s-.54.75-1,.58a1,1,0,0,1-.65-1,7.31,7.31,0,0,1,.93-2.69c.53.36,0,.58.08.85s-.44.93.15,1.16c.44.18.55-.46.88-.64A.38.38,0,0,1,131.25,172.18Z"/><path class="cls-19" d="M123,157.3c-.08,1.81-1.66,3-2,5.1l-.39-1.64a12.29,12.29,0,0,0,1.6-3.42c.1-.27.23-.54.35-.81C123.13,156.58,122.81,157.07,123,157.3Z"/><path class="cls-16" d="M136.06,153.64c-.58,1.08-1,2.32-2.38,2.63-.27.1-.33,0-.3-.28,1.08-.86,1.3-2.34,2.35-3.22C136.41,152.85,136.12,153.29,136.06,153.64Z"/><path class="cls-20" d="M123,157.3l-.4-.77c.19-1.42,1.46-2,2.27-3,.32.08.71.09.57.6C124.71,155.29,123.28,155.85,123,157.3Z"/><path class="cls-12" d="M144,145.55l.33.35a22.56,22.56,0,0,1-3.5,2.9c-.39.21-.6.13-.59-.34A18.63,18.63,0,0,1,144,145.55Z"/><path class="cls-14" d="M131.25,172.18l-.3-.34c.64-1.31,1.27-2.61,1.91-3.91a.75.75,0,0,0,.8,0A18.34,18.34,0,0,1,131.25,172.18Z"/><path class="cls-21" d="M129.11,161.51c.36-1.51.81-3,2.38-3.69.26-.06.39,0,.3.3a11.94,11.94,0,0,0-2.41,3.7C129.13,161.85,129,161.81,129.11,161.51Z"/><path class="cls-22" d="M138.53,163.73a16.72,16.72,0,0,0-.26,4.74A6.74,6.74,0,0,1,138,164c0-.12.36-.18.55-.26Z"/><path class="cls-23" d="M135.77,150.15l-.32-.3,2.33-2.15c.33-.13.41,0,.39.33A6,6,0,0,1,135.77,150.15Z"/><path class="cls-11" d="M20.23,136.06c.32,0,.3-.74.47-.43.33.55,1.07,1.2.35,1.93-.24.24-.55.37-.59.75C20,137.6,20.27,136.82,20.23,136.06Z"/><path class="cls-24" d="M150.44,155.73h-.29a6.27,6.27,0,0,1,.27-4,.68.68,0,0,1,.24.59Z"/><path class="cls-25" d="M138.17,148l-.39-.33c.8-.57,1.21-1.59,2.24-1.89.33.25.3.48,0,.73C139.38,147,138.78,147.53,138.17,148Z"/><path class="cls-26" d="M125.43,154.16l-.57-.6a2.54,2.54,0,0,1,1.28-1.07c.3-.08.42,0,.35.34A1.39,1.39,0,0,1,125.43,154.16Z"/><path class="cls-27" d="M135.78,160.5a9.69,9.69,0,0,1,1.26-3.29c.2,0,.22.23.3.36-.52.94-.58,2.07-1.26,2.94A.19.19,0,0,1,135.78,160.5Z"/><path class="cls-28" d="M120.07,167.12v3a3.14,3.14,0,0,1-.26-3C119.89,167,120,167,120.07,167.12Z"/><path class="cls-29" d="M144,163.14l.2.51L143.7,165c-.29.61.12,1.31-.26,1.9A3.62,3.62,0,0,1,144,163.14Z"/><path class="cls-30" d="M145.07,160c.6-.71-.12-1.69.51-2.39l-.09,4-.06,0C144.82,161.13,145.19,160.49,145.07,160Z"/><path class="cls-31" d="M22.15,124.36a1.56,1.56,0,0,0-1.11.54l-.65-.48.65-1.1C21.79,123.26,22.09,123.68,22.15,124.36Z"/><path class="cls-32" d="M126.48,191.55c-1.1-.32-.68-1.43-1.07-2.12,0-.25,0-.38.33-.28a5.8,5.8,0,0,1,.72,2.43Z"/><path class="cls-33" d="M125.37,185.72c0,.71,0,1.42,0,2.13a.22.22,0,0,1-.32,0c-.13-.42.07-.88-.14-1.3,0-.93-.33-1.88.17-2.78C125.52,184.36,125.07,185.09,125.37,185.72Z"/><path class="cls-17" d="M149.3,182l.28.57c-.28.7-.55,1.41-.82,2.11-.25,0-.41,0-.29-.32C148.34,183.41,149.06,182.77,149.3,182Z"/><path class="cls-34" d="M126.16,172.7a8.49,8.49,0,0,1-.41,2.69c-.12.14-.22.13-.32,0,.22-1,0-2,.47-3C126.07,172.42,126.08,172.59,126.16,172.7Z"/><path class="cls-34" d="M126.49,152.83l-.35-.34c.65-.58,1.17-1.35,2.14-1.46A8.26,8.26,0,0,1,126.49,152.83Z"/><path class="cls-35" d="M139.46,156.5l.32,0a4.48,4.48,0,0,1-.8,2.17c-.16,0-.17-.19-.23-.31A6,6,0,0,1,139.46,156.5Z"/><path class="cls-11" d="M124.85,178a2.38,2.38,0,0,1,.33-1.54c.07-.09.15-.09.23,0l0,.79c-.24.45,0,.95-.19,1.4l0,1.22c.13.29,0,.34-.26.3l-.06-.48A3,3,0,0,1,124.85,178Z"/><path class="cls-16" d="M111.59,100.2c-.16-.4.2-.87-.35-1.27s-.17-.77.41-.86A2.59,2.59,0,0,1,111.59,100.2Z"/><path class="cls-36" d="M124.91,180.14l.26-.3a2.28,2.28,0,0,1,0,2.18c-.11.14-.22.13-.31,0Z"/><path class="cls-37" d="M152.48,102.92c.64-.09,1.31-.35,1.83.35a1.38,1.38,0,0,1-1.82-.16A.15.15,0,0,1,152.48,102.92Z"/><path class="cls-38" d="M128.34,164.21c-.27.67-.11,1.47-.62,2.19a2.23,2.23,0,0,1,.28-2.22A.25.25,0,0,1,128.34,164.21Z"/><path class="cls-39" d="M120.07,167.12h-.26c-.1-.45.76-1-.2-1.4-.09,0,.25-.36.47-.47a.62.62,0,0,1,.53.27A3.76,3.76,0,0,1,120.07,167.12Z"/><path class="cls-40" d="M133.38,156l.3.28-1.09,1c-.29.07-.37-.05-.3-.31A1.56,1.56,0,0,1,133.38,156Z"/><path class="cls-25" d="M24,132.08c-.59.38-1,.09-1.49-.34l.95-.42A.94.94,0,0,1,24,132.08Z"/><path class="cls-41" d="M127.06,168.5a5,5,0,0,1-.36,1.82.22.22,0,0,1-.32,0c.14-.69-.06-1.44.38-2.07C127,168.15,127.13,168.23,127.06,168.5Z"/><path class="cls-34" d="M114.51,169c-.6-.61-1.53.15-2.12-.51l2.34,0c.28-.08.6-.22.58.3Z"/><path class="cls-42" d="M120.35,164.48c-.19.05-.38.25-.57,0,.63-.48.35-1.34.82-1.89l.05.06a3.94,3.94,0,0,1,.1,1.41A.52.52,0,0,1,120.35,164.48Z"/><path class="cls-43" d="M56.63,107.36c.2-.31.54-.23.83-.29s.52-.44.64.2-.19.66-.64.64C57.55,107.18,56.91,107.54,56.63,107.36Z"/><path class="cls-44" d="M106.57,166.29l-.12.06h-.12l-1.09-1.63c.08-.12.12-.28.31-.28Z"/><path class="cls-45" d="M.85,115.35H.59c-.5-.66-.11-1.43-.25-2.13A4.64,4.64,0,0,1,.85,115.35Z"/><path class="cls-46" d="M125.14,187.85h.24l.36,1.3-.33.28c-.4-.31-.82-.62-.28-1.16A.38.38,0,0,1,125.14,187.85Z"/><path class="cls-47" d="M135.23,143.76a1.27,1.27,0,0,1-1,.53c-.12-.63.35-.78.78-1C135.2,143.38,135.32,143.5,135.23,143.76Z"/><path class="cls-22" d="M136.06,153.64c-.09-.3,0-.68-.33-.87l.81-.78c.29-.11.35,0,.29.28Z"/><path class="cls-48" d="M128.34,164.21l-.34,0a4.21,4.21,0,0,1,.57-1.6c.24.11.15.38.26.56A1.33,1.33,0,0,1,128.34,164.21Z"/><path class="cls-32" d="M25.55,125.94c.33-.3-.16-.85.47-1.21l.35,1.47C26.11,126.06,25.88,125.83,25.55,125.94Z"/><path class="cls-19" d="M128.83,163.14c-.27-.1-.19-.37-.26-.56l.54-1.07.27.31A2.91,2.91,0,0,1,128.83,163.14Z"/><path class="cls-49" d="M126.46,191.58c.73.2.72.8.91,1.65-.7-.58-1-1-.89-1.68Z"/><path class="cls-50" d="M138.15,155.71l.3.29a2,2,0,0,1-.8,1.09.36.36,0,0,1-.29-.31A2.54,2.54,0,0,1,138.15,155.71Z"/><path class="cls-51" d="M137.94,151.33c.14-.72.75-1,1.35-1.63C139.11,150.73,138.42,150.94,137.94,151.33Z"/><path class="cls-29" d="M126,159.85a.13.13,0,0,1,.13.08c0,.55-.47.76-.74,1.12C125,160.31,125.32,160,126,159.85Z"/><path class="cls-46" d="M135.78,160.5h.3l-.53,1.32-.34,0A1.42,1.42,0,0,1,135.78,160.5Z"/><path class="cls-52" d="M140.21,148.46c.09.29.33.33.59.34-.05.07-.1.18-.16.2-.38.09-.55,1-1,.44S139.89,148.72,140.21,148.46Z"/><path class="cls-53" d="M124.88,182l.31,0,0,1.59h0C124.5,183.41,124.5,183.41,124.88,182Z"/><path class="cls-54" d="M145.43,161.55l.06,0a1.67,1.67,0,0,1,.4,1.54c.11.28,0,.34-.27.29C145.55,162.78,145.12,162.2,145.43,161.55Z"/><path class="cls-25" d="M146.63,167.18c-.48-.64-.16-1.41-.34-2.12.57.39.32,1.07.59,1.55C146.78,166.79,146.87,167.06,146.63,167.18Z"/><path class="cls-54" d="M146.63,167.18l.25-.57.57,1.58a.27.27,0,0,1-.38.08Z"/><path class="cls-55" d="M147.07,168.27l.38-.08c.34.29.3.74.48,1.09-.07.19,0,.44-.24.56A4.73,4.73,0,0,1,147.07,168.27Z"/><path class="cls-56" d="M126.38,170.29l.32,0c-.15.55-.31,1.1-.46,1.65-.24-.12-.11-.4-.24-.57Z"/><path class="cls-57" d="M138.68,159.7l0,1.58a.19.19,0,0,1-.28,0c0-.53-.4-1.06,0-1.6C138.5,159.57,138.59,159.57,138.68,159.7Z"/><path class="cls-58" d="M135.23,143.76l-.27-.43,1.06-.64.35.32A2.21,2.21,0,0,1,135.23,143.76Z"/><path class="cls-59" d="M141.31,143.75a1,1,0,0,1,.64-1c.12-.12.22-.11.32,0-.17.37-.21.82-.65,1A.19.19,0,0,1,141.31,143.75Z"/><path class="cls-60" d="M143.44,166.92c.18-.62-.23-1.32.26-1.9l.07,1.79c.07.26.24.56-.25.57Z"/><path class="cls-61" d="M145.62,163.4l.27-.29a2.65,2.65,0,0,1,.4,1.51A1.26,1.26,0,0,1,145.62,163.4Z"/><path class="cls-62" d="M120.35,164.48l.24-.34c.18.08.16.25.2.4a.8.8,0,0,1,.07.46l-.25.53c-.25.06-.48.06-.53-.27A.81.81,0,0,0,120.35,164.48Z"/><path class="cls-63" d="M142.27,142.75l-.32,0a1.56,1.56,0,0,1,.72-1.09l.28.28A1.82,1.82,0,0,1,142.27,142.75Z"/><path class="cls-64" d="M125.37,185.72c-.46-.61-.1-1.33-.28-2v-.12l.12,0h0C125.69,184.26,125.2,185,125.37,185.72Z"/><path class="cls-65" d="M123.25,162.61c.41-.48.7-1.13,1.49-1.07l-1.14,1.1A.22.22,0,0,1,123.25,162.61Z"/><path class="cls-14" d="M138.45,161.29h.28a1.59,1.59,0,0,1,0,1.33.21.21,0,0,1-.31,0Z"/><path class="cls-31" d="M19.48,127c-.72-.31-.77-.87-.57-1.52Z"/><path class="cls-15" d="M39.49,123.54c-.49,0-1.17.5-1.17-.54A1.51,1.51,0,0,1,39.49,123.54Z"/><path class="cls-66" d="M138.43,170.06c-.13-.4-.57-.82.22-1.32v1.32C138.58,170.18,138.5,170.18,138.43,170.06Z"/><path class="cls-41" d="M136.83,152.27l-.29-.28a1.86,1.86,0,0,1,1.11-.73C137.66,151.89,137.22,152.06,136.83,152.27Z"/><path class="cls-67" d="M132.29,157l.3.31-.8.81-.3-.3A1.18,1.18,0,0,1,132.29,157Z"/><path class="cls-68" d="M138.68,159.7h-.27a2.51,2.51,0,0,1,.34-1.31l.23.31A1.84,1.84,0,0,1,138.68,159.7Z"/><path class="cls-65" d="M123.25,162.61l.35,0a2.91,2.91,0,0,1-1.15,1.05C122.27,163,122.94,162.94,123.25,162.61Z"/><path class="cls-69" d="M138.37,162.61h.31c-.06.38-.11.75-.15,1.12h0C138.19,163.41,138,163.06,138.37,162.61Z"/><path class="cls-70" d="M105.55,164.44l-.31.28c-.15-.27-.52-.46-.37-.88C105.33,163.79,105.34,164.23,105.55,164.44Z"/><path class="cls-62" d="M143.52,167.38l.25-.57a1.26,1.26,0,0,1,.29.81c0,.29.35.72-.28.8Z"/><path class="cls-71" d="M143.78,168.42c.29-.2.2-.53.28-.8a1.12,1.12,0,0,1,.18,1c0,.19-.14.33-.33.27S143.73,168.6,143.78,168.42Z"/><path class="cls-72" d="M64.86,136.6a.53.53,0,0,1,.3-.87c.29-.09.22.25.25.43A.6.6,0,0,1,64.86,136.6Z"/><path class="cls-73" d="M125.41,176.43h-.23l.25-1.06.32,0A1.64,1.64,0,0,1,125.41,176.43Z"/><path class="cls-53" d="M125.14,187.85v.42c-.46-.53-.26-1.14-.21-1.74C125.24,186.93,125.07,187.41,125.14,187.85Z"/><path class="cls-59" d="M148.47,184.33l.29.32a1.08,1.08,0,0,1-.69.86A2.14,2.14,0,0,1,148.47,184.33Z"/><path class="cls-74" d="M156,141.72a.59.59,0,0,1-.6.39l-.25-.22c0-.3.31-.39.51-.54S156.08,141.41,156,141.72Z"/><path class="cls-75" d="M141.31,143.75l.31,0-.81.93C140.34,144.05,141.14,144.07,141.31,143.75Z"/><path class="cls-76" d="M124.85,178v1.69A1.9,1.9,0,0,1,124.85,178Z"/><path class="cls-3" d="M139.25,171.58l-.27.33a1,1,0,0,1-.32-.75c-.12-.3,0-.35.29-.31Z"/><path class="cls-72" d="M139,170.85l-.29.31a.84.84,0,0,1-.23-1.1.54.54,0,0,0,.22,0Z"/><path class="cls-19" d="M147.69,169.84l.24-.56a1.07,1.07,0,0,1,.33.77l-.3.31Z"/><path class="cls-77" d="M115.84,168.14a.65.65,0,0,1,.79-.43c0,.56-.49.55-.79.71-.09-.06-.12-.12-.09-.19S115.81,168.14,115.84,168.14Z"/><path class="cls-78" d="M127.06,168.5l-.3-.28.48-1.13a.49.49,0,0,1,0,.65A.75.75,0,0,1,127.06,168.5Z"/><path class="cls-79" d="M127.28,167.74l0-.65c.06-.19,0-.5.35-.43s.19.26.09.42S127.41,167.52,127.28,167.74Z"/><path class="cls-80" d="M120.86,165l-.2-.26c.08-.1.09-.26.25-.3l.86-.24A1.53,1.53,0,0,1,120.86,165Z"/><path class="cls-5" d="M7.49,122.78a.57.57,0,0,0,.54.27.45.45,0,0,1,0,.62,1.06,1.06,0,0,1-.79-.62c-.08-.25,0-.33.27-.27Z"/><path class="cls-45" d="M7.49,122.78l-.27.27-.58-.51C7,122.33,7.32,122.31,7.49,122.78Z"/><path class="cls-81" d="M137.36,156.78l.29.31-.31.48-.3-.36Z"/><path class="cls-82" d="M8,123.67c0-.21,0-.41,0-.62,1.06.06-.12.64.21.88C8.08,123.91,8,123.83,8,123.67Z"/><path class="cls-83" d="M115.84,168.14v.28l-.53.3c-.08-.32-.36-.25-.58-.3C115,168.06,115.46,168.21,115.84,168.14Z"/><path class="cls-84" d="M126,171.4l.24.57-.08.73-.26-.32Z"/><path class="cls-76" d="M125.19,178.62c-.06-.48-.23-1,.19-1.4A2.49,2.49,0,0,1,125.19,178.62Z"/><path class="cls-17" d="M140,145.63c.14-.4.12-.95.8-.81C140.69,145.23,140.31,145.39,140,145.63Z"/><path class="cls-2" d="M48.11,110.83c-.34-.3-.31-.58.07-.82A.66.66,0,0,1,48.11,110.83Z"/><path class="cls-85" d="M9.08,119.61l-.72,0a4.84,4.84,0,0,0-1.82-.1,1.3,1.3,0,0,1-1.17-.41,3.94,3.94,0,0,1-2.88-3.54,51,51,0,0,1,.74-9.4c.73-5.38,3.43-9.06,8.94-10.3a16.76,16.76,0,0,0,5.42-2,2.65,2.65,0,0,1,1-.6c-.43.24-.85-.12-1.28.05l-1.64.24c-.31-.53.33-.64.35-1a.3.3,0,0,1,.27-.23c2.17-2.25,4.13-4.69,6.23-7,1.95-2.16,3.79-4.43,5.77-6.58a28.22,28.22,0,0,0,5.67-5.83c2.42-3.14,5.5-5.54,8.27-8.29a20.27,20.27,0,0,1,6.12-4c1-.07.72-.77.68-1.36,0-.42-.34-.81-.09-1.25a33.57,33.57,0,0,1,5.79-8.45c1.66-1.87,3.44-3.63,5.15-5.44,1-1.09,2.34-2,3.42-3,1.91-1.89,4.12-3.44,6.14-5.21,1.49-1.29,2.79-2.73,4.19-4.09.7-.68,1.44-1.35,2.14-2.05a16.58,16.58,0,0,0,5.37-11.36,26.68,26.68,0,0,0,.07-4.47,17.61,17.61,0,0,0-2.7-6.83,6,6,0,0,1-.95-2.86c0-1.08.85-1.86,1.78-1.36a18.43,18.43,0,0,1,5.41,3.65c1,1.11,2,2.24,2.93,3.38,3.76,4.41,4,9.36,2.58,14.67a41.4,41.4,0,0,1-3.31,8.2A44.58,44.58,0,0,1,80.69,42c-1.66,1.85-3.26,3.74-5.09,5.45a34.3,34.3,0,0,0-4.28,5.28,17.56,17.56,0,0,0-1.44,3.1c-.2.33-.06.71-.14,1.07a2,2,0,0,0-.14,1.74,1.32,1.32,0,0,0,1,.75c.28.14.62,0,.87.2,1.89.61,3.22-.44,4.55-1.51a4.67,4.67,0,0,1,.67-1,12.41,12.41,0,0,1,1.36-1.77c.41-.5.37-.84-.35-1a4.73,4.73,0,0,0-2-.22c.15.06-.11,0-.06,0,1.58.48,1.74,1.5,1.12,2.84a1.7,1.7,0,0,1-1,.78c-.66.18-1.32.41-2,.53a2.11,2.11,0,0,1-2.22-.85,2.46,2.46,0,0,1-.15-2.74c2.42-4,5.4-7.46,9.64-9.67a2.08,2.08,0,0,1,1.38-.28,19.19,19.19,0,0,1,7.11,2.17,17,17,0,0,1,7.38,9.58,6.38,6.38,0,0,1-.38,5.27c.16.23,0,.45,0,.68a3.17,3.17,0,0,0,.36,1.86s.09,0,.1,0A1,1,0,0,0,97,64a.86.86,0,0,1,.25-.48.37.37,0,0,1,.51.12,14.85,14.85,0,0,0,2.33,5.9,22.34,22.34,0,0,1,1.28,3.27c1.19,2.61.73,5.28,1.09,7.9a2.33,2.33,0,0,1-.4,1.75c-.38.24-.6,0-.81-.26l-6.66-3.45c-.39-.17-.89-.14-1.15-.59a1.23,1.23,0,0,1-.08-.38c0-1.7-.38-3.41.21-5.12.23-.67-.29-1.28-1-1.52a1.87,1.87,0,0,1-1.16-1,2.17,2.17,0,0,0-2.06-1.16,11.43,11.43,0,0,0-8,2,1.56,1.56,0,0,1-1,.27c-.36,0-.75,0-.93.36a3.06,3.06,0,0,1-2,1.56c-.22.06-.46.22-.46.44a1.69,1.69,0,0,1-1.63,1.86c-.39.07-.52.46-.52.84a12.44,12.44,0,0,1-1.85,5.92,3.73,3.73,0,0,0-.09,2.86c.25.82,1,.7,1.68.52.51-.14,1.07-.69,1.52,0a2,2,0,0,1,.16,2c-.35.69-1,.64-1.63.52-1.05-.2-2-.15-2.26,1.15a.73.73,0,0,1-.77.61c-.38,0-.49-.36-.56-.66-.19-.79-.55-1.18-1.41-.75a1.12,1.12,0,0,1-1-.12c-1.23-.58-2.51-.3-3.78-.29a.53.53,0,0,0-.26,0c-1.55,1.15-3.38.85-5.12,1a1,1,0,0,0-.52.09c-2,1.53-4.51.78-6.66,1.61-.29.11-.63.11-.76.43a1.61,1.61,0,0,1-2,1,3.52,3.52,0,0,0-3.28,1.58,2.07,2.07,0,0,0-.31.42c-.79,1.7-1.9,2.91-4,2.64-.55-.07-.83.24-1.08.76a1.83,1.83,0,0,1-2.46,1.15c-1.33-.45-2.3.34-3.2,1.15-.6.54-1.14,1.11-2,1-.5-.06-.74.24-.78.7a1.46,1.46,0,0,1-1.5,1.52c-.3,0-.64.11-.68.5a.84.84,0,0,0,.54.84,7,7,0,0,0,2.06.43c1.09.2,1.82.71,1.64,2a2.43,2.43,0,0,1-1.1,1.67,1.19,1.19,0,0,0-.55,1c-.27,1.12-1.32,1.47-2.07,2.12-.5.44-1,.82-1.55,1.24a23.92,23.92,0,0,1-8.21,4.18,45.44,45.44,0,0,1-5,1.8,45.81,45.81,0,0,1-4.91,1A2.22,2.22,0,0,1,9.08,119.61Z"/><path class="cls-85" d="M65.41,105.8a69.16,69.16,0,0,0,6.87-6.61,56,56,0,0,1,4.13-3.85,13.9,13.9,0,0,0,3.46-4.06A1.64,1.64,0,0,0,80,89.9c.23-.48-.11-.93-.06-1.39A10.22,10.22,0,0,0,77.62,81a2.23,2.23,0,0,1-.29-2.88,15.52,15.52,0,0,1,7.35-6.42c1.68-.64,2.44-.31,3.47,1.15a13.43,13.43,0,0,0,1.22,1.57,13.88,13.88,0,0,0,3.95,3.8,6.43,6.43,0,0,1,1,1c2.26,1.36,4.45,2.88,6.8,4.05A18.09,18.09,0,0,1,107.56,89c1.29,1.73.8,3.74.69,5.62,0,1-.31,2-.38,3-.42,6-3.52,10.14-8.89,12.64a24.53,24.53,0,0,0-4.65,3,6.65,6.65,0,0,1-1.64.83A49.3,49.3,0,0,0,84,118.07c-1.74,1.11-3.36,2.41-5.08,3.56-2.69,1.81-4.88,4.19-7.3,6.29s-4.87,3.59-7.24,5.48a56.71,56.71,0,0,1-7.19,4.37c-2.51,1.45-5,3-7.49,4.41-3.62,2-7.24,4-11.41,4.61-1.34.2-2.65.59-4,.9a7.64,7.64,0,0,1-3.68,0c-1.11-.59-2.26-1.14-3.33-1.8a2.55,2.55,0,0,0-1.11-.27,2.9,2.9,0,0,1-2.41-2.11c-.37-1.06.31-1.61.82-2.31.77-1.05,2.07-1.49,2.82-2.54.29-.72,1.07-.82,1.6-1.23a16.76,16.76,0,0,0,3.1-1.36,8.69,8.69,0,0,0,2.18-1c1.24.09,1.69-1,2.46-1.63a2.44,2.44,0,0,0,1.16-1.21,1.52,1.52,0,0,1,.38-.38c1.62-1,2.64-2.68,4.08-3.9.27-.24.59-.41.86-.64a24.38,24.38,0,0,1,2-1.82,44.05,44.05,0,0,0,6.45-5,13.23,13.23,0,0,0,2.08-2.22,1.6,1.6,0,0,1,.26-.26,23.42,23.42,0,0,0,3.47-3.64c.46-.7,1.1-1.26,1.59-2a2,2,0,0,1,.25-.26c1.11-.65,1.62-1.82,2.4-2.77l.62-.61c.29-.28.57-.57.84-.86.48-.44.77-1,1.23-1.48A2.29,2.29,0,0,1,65.41,105.8Z"/><path class="cls-85" d="M126.43,44.72c.72-1.34,1.4-2.65,3.12-3,.81-.17.88.13.93.76.07.87-.25,1.7-.13,2.6.25,1.91.78,2.61,2.68,2.53,1,0,1.15.42,1.28,1.18.38,2.39-.36,4.62-.93,6.88-.86,3.45-1.09,7-2.13,10.42a2.68,2.68,0,0,1-2.48,2.16,21.38,21.38,0,0,1-6.53-.31,11.2,11.2,0,0,0-1.81-.38c-1.25-.12-1.65-.52-1.34-1.71a11.58,11.58,0,0,0,.24-2.48,11.48,11.48,0,0,0-.1-3.92,3.73,3.73,0,0,1,0-1.45,25.17,25.17,0,0,0,.19-4.83,18.94,18.94,0,0,1,.11-3,1.41,1.41,0,0,1,.29-.4c.47-3,3-3.31,5.25-4,.21.09.28.45.61.32l.45-.15a.72.72,0,0,0,.53-.73A1.67,1.67,0,0,0,126.43,44.72Z"/><path class="cls-85" d="M150.59,64.33l-4.12,6.76a3.26,3.26,0,0,1-4.27,1.55c-1.39-.67-3-.69-4.29-1.51-2.11-1.32-2.66-2.46-2.13-4.82a69.33,69.33,0,0,1,3-9.52,18.27,18.27,0,0,1,3.4-5.59,2.25,2.25,0,0,1,2.72-.72,4.82,4.82,0,0,0,2.22.28.86.86,0,0,1,.85.06,1.48,1.48,0,0,1,.1.65c.21.39.31.16.4-.08a2.43,2.43,0,0,1,.42-.89,1.3,1.3,0,0,0,.37-.76c.83-.4,1.65-.84,2.5-1.19a1.56,1.56,0,0,1,1.84.26c.52.53,0,1-.2,1.42a17.9,17.9,0,0,0-1.18,2.89,1.82,1.82,0,0,0,.58,1.54c1.51,1.47,1.58,2.58.57,4.84-.68,1.54-1.93,2.73-2.52,4.31C150.75,64,150.87,64.26,150.59,64.33Z"/><path class="cls-85" d="M104.65,47.07a6.66,6.66,0,0,1,2.43-4.15,2.44,2.44,0,0,1,.29-.27c.53-.31,1.12-.88,1.66-.58s.15,1,.13,1.57c0,1,0,2-.12,3s.51,1.31,1.45,1.37c.7,0,1.43-.47,2.13.14a3.63,3.63,0,0,1,1,3.69c-.06.31-.24.57.08.82a9,9,0,0,1,.8,1.66,1.44,1.44,0,0,1,0,.87,9,9,0,0,0,0,2.88c-.77,2.78-.31,5.67-.75,8.48-.26,1.65-1,2.88-2.8,3.2-1.19.22-2.38.48-3.59.62-1.79.19-3-.45-3.43-2.22-1-3.67-2.45-7.2-3-11a30.57,30.57,0,0,0-1.51-5.06,2.42,2.42,0,0,1,1.83-3.32c.92-.11,1.77-.39,2.66-.55.34-.19,1.06-.06.7-.83A.44.44,0,0,1,104.65,47.07Z"/><path class="cls-85" d="M153.91,84.84a2.85,2.85,0,0,1-3-.76,5.33,5.33,0,0,1-1.12-2c-1-2.05-1.92-4.15-1-6.56a6.27,6.27,0,0,1,2-2.39c2.2-2,4-4.46,6.64-6,1.33-.78,2.41-1.89,4-2.32,1.36-.37,2.14-.43,2.59.87.31.92,1.13,1,1.71,1.46.09.07.13.14.29,0,2.2-1.38,3.68-1.21,5.29.56.17.19.45.34.37.65s-.42.24-.66.25c-2,.14-3.35,1.67-2.76,3.69,1,3.35-.77,5.37-3.09,7.22a6.17,6.17,0,0,0-1.34,1.22c-.56.81-1.58,1-2.41,1.43-1.82,1-3.76,1.62-5.64,2.42A3,3,0,0,1,153.91,84.84Z"/><path class="cls-85" d="M170.31,115.89a1,1,0,0,1-.77,1.06,1.83,1.83,0,0,0-1.18,1.47c-.6,2.34-.88,2.57-3.21,2.49A26.47,26.47,0,0,1,154,118.33a6.56,6.56,0,0,1-3.47-3.37,3.11,3.11,0,0,1-.19-1.68,20.32,20.32,0,0,1,2-6.11c.53-1,1.15-1.19,2.41-1.12,2.23.12,4.39,1,6.65.6s4.66.32,7-.28c1.09-.28,2.53,1.57,2.46,3a4.44,4.44,0,0,0,.27,1.67c.35.32-.27.75.12,1.07a.82.82,0,0,0,1,.16.92.92,0,0,1,.49.1c1.17.75,2.11,1.58,2,3.2-.13,1.43-.37,1.69-1.77,1.17-.68-.25-1.31-.67-2.09-.36C170.45,116.44,171.12,115.43,170.31,115.89Z"/><path class="cls-85" d="M167.37,86.4a3.28,3.28,0,0,1,3.6-.46,2.14,2.14,0,0,1,1.11,2.74c-.2.6.85,1.47-.51,1.82.93.77,2.18.77,3,1.64a5,5,0,0,1,1.3,1.75c.15.41.56.89.26,1.22s-1,.19-1.5,0-1-.72-1.74-.47c-1.27.42-1.66,1.09-1.56,2.93s-.55,2.68-2.54,2.9a8.76,8.76,0,0,0-3.06.71c-.6.7-1.45.32-2.17.52a8.35,8.35,0,0,0-2.34.07c-1.48.18-3-.34-4.49.27-.84.35-2.5-1.38-2.7-2.77-.36-2.53-.31-5.1-.75-7.63,0-.24,0-.66.18-.74,1.07-.56,1.77-1.81,3.09-1.88A21.33,21.33,0,0,0,161.38,88,18.69,18.69,0,0,1,166,87a1.22,1.22,0,0,0,.83-.36C167,86.47,167.22,86.55,167.37,86.4Z"/><path class="cls-85" d="M163.62,135.73c-.49-.25-.94-.48-1.3.23-.18.34-.53.59-.74.93-1.47,2.29-1.55,2.29-4.24,1.85a18.5,18.5,0,0,1-11.08-6c-1-1.09-2-2-2.11-3.57A7.27,7.27,0,0,1,145,126c.59-1.47,1.26-2.91,2-4.32a2.35,2.35,0,0,1,3.72-.27c3.47,4,7.95,5.63,13.12,5.67a14,14,0,0,0,1.45-.19c.44,0,1-.58,1.3,0s.62,1.4.13,1.88c-1.55,1.56-1.09,3.18-.39,4.86.15.23,0,.31-.19.36s-.49-.29-.78-.18a.51.51,0,0,0-.24.5,1,1,0,0,1-.43,1,3.13,3.13,0,0,1-.42.29C164.06,135.75,163.83,135.66,163.62,135.73Z"/><path class="cls-86" d="M38.28,132.18a.4.4,0,0,1-.1.15c-.55.29-.86.87-1.4,1.18a23.31,23.31,0,0,1-2.68,1.7A20,20,0,0,1,32,136a32.15,32.15,0,0,1-3.15,1.31,6.6,6.6,0,0,1-2.24.84,1.71,1.71,0,0,0-1.05.48c-1,.83-2,1-2.84-.24-1.37-1.27-1.3-2.86-.36-4.48.28-.48.54-.28.83-.05s.68.82,1.26.87c.33.27.28.68.38,1,.28,0,0-.3.21-.34.46-.12.32-.7.7-.87a6.27,6.27,0,0,0,1.73-.08c.63-.23,1.13.82,1.81.21,0,0,.08-.06.11-.06.64.06.64.06.45-.49a4.71,4.71,0,0,0-.56-2.07c.22-.24-.4-1,.53-.8.34.31.76,0,1.11.16a5.51,5.51,0,0,0,3.19.13c.84-.46.77-1.47,1.29-2.12.23-.17.44,0,.64.05,0-.17-.17-.07-.22-.15a1,1,0,0,1-.4-.51l-.28-.75a2.49,2.49,0,0,1,0-1.84.84.84,0,0,1,1.17.5c.27.52.9.26,1.29.54a2.53,2.53,0,0,0,.53-1.26c0-.58-.73-1.41-.09-1.63a3.56,3.56,0,0,1,2.45.51,5.08,5.08,0,0,1,.43.27,1.64,1.64,0,0,0,1.37,0h0c.65-.45.64-1.19.8-1.84.62-.13.13-.56.23-.83s.4-.46.32-.8c.47-1.31,2-1.74,2.48-3.12.14-.44,1.13-.12,1.74-.09l.26,0a1,1,0,0,1,1.17.11c.05.08,0,.21,0,.27s.11,0,.06-.12-.15-.36-.28-.52l.62-.8c-.36-.33,1.09-.06.21-.66-.2-.13-.24-.8.11-1.18.67-1.72.67-1.72,2.65-1.37.23.52.5.29.77,0,1.12-.5,1.23-1.43,1.34-2.55.13-1.3,1.3-1.64,2.49-1.87a2.64,2.64,0,0,0,2.28-1.79,7.08,7.08,0,0,1,1.33-1.91,19,19,0,0,1,8.46-5.72c.26-.08.34,0,.28.28-1.33,1.76-3.08,3.11-4.53,4.75a2.24,2.24,0,0,1-.71,1A13.41,13.41,0,0,0,63.17,108a11.1,11.1,0,0,0-.85.83c-.18.22-.39.42-.59.63a29.62,29.62,0,0,1-2.46,3l0,0a21.25,21.25,0,0,0-1.78,2c-1.2,1.28-2.37,2.58-3.57,3.85l0,0c-.8.75-1.51,1.59-2.35,2.3-2.12,1.61-4.16,3.33-6.3,4.94a19,19,0,0,0-2.11,1.9c-.22.19-.48.36-.69.57A51.28,51.28,0,0,0,38.28,132.18Z"/><path class="cls-87" d="M136.12,53.55c1.19-.36,1.68,1,2.65,1.29.37.13.22.5-.12.69-.74.39-1.44.87-2.2,1.19a1.73,1.73,0,0,1-2-.37c-.71-.81.06-1.55.3-2.32S135.5,53.39,136.12,53.55Z"/><path class="cls-87" d="M154.16,63.58a2,2,0,0,0-.75-1c-.18-.17-.48-.33-.31-.64a.73.73,0,0,1,.75-.45,12.72,12.72,0,0,1,4.57,2.48c.41.32-.09.65-.3.83s-.51.94-1.15.49c-.21-.15-.45-.27-.67-.4a5.43,5.43,0,0,1-1.87-.8A.6.6,0,0,1,154.16,63.58Z"/><path class="cls-88" d="M156.58,120.36c1-.16,1.08.4.91,1.11-.23,1-.48,2-.74,2.94-.16.59-.43.89-.94.25-.21-.28-.45-.54-.68-.8-.37-.42-1.37-.63-.9-1.35C154.81,121.62,155.27,120.46,156.58,120.36Z"/><path class="cls-89" d="M162.89,123.86c-.26.51-.51,1-.77,1.52s-.43.75-.82.8A1.8,1.8,0,0,1,160,126c-.47-.4.33-.81.22-1.28.16-1.26.35-2.51.5-3.77.69-.22.91.29,1.24.72s.31.94.83,1.14A.73.73,0,0,1,162.89,123.86Z"/><path class="cls-90" d="M164.19,135.5l.3-.25a.33.33,0,0,1,.32-.05,1.07,1.07,0,0,0,.92-.36c.22-.21.18-.51.25-.78l.13-.11.22-.32a6.78,6.78,0,0,1,1,3.09,2.37,2.37,0,0,1-.5,1.84c-.67.8-1.15.64-1.3-.25s-.93-1.13-1.32-1.75A.88.88,0,0,1,164.19,135.5Z"/><path class="cls-91" d="M159.94,124.38c-.58.57-1.2,1.6-2,1.28s-.29-1.45-.28-2.25a2.39,2.39,0,0,1,.91-2c.23-.2.18-.76.71-.56.38.13.47.45.55.82a4.18,4.18,0,0,0,.37,1.66A.77.77,0,0,1,159.94,124.38Z"/><path class="cls-92" d="M163.61,84c-.07.29-.12.59-.2.88-.5,1.86-.5,1.86-2.59,2.18a8.06,8.06,0,0,1,1.92-5l.95,1.11A.54.54,0,0,1,163.61,84Z"/><path class="cls-93" d="M150.43,69.12a5.29,5.29,0,0,0,.79,0c.69-.06,1.24.11,1.45.83s-.62.84-1,1c-.89.35-1.83,1.63-2.82,0-.32-.51-.61-1-.36-1.55s.81-.31,1.25-.31h.66Z"/><path class="cls-94" d="M164.18,103.93c-.56.6-1.11,1.21-1.69,1.79a1,1,0,0,1-1.07.34c-.4-.19,0-.62-.07-1-.09-1,1.13-1.47,1-2.49.18-.53.18-1.27,1.09-1C164.63,101.83,164.93,102.73,164.18,103.93Z"/><path class="cls-93" d="M166.59,104.47c-.41,1.48-1.62,1-2.75,1.21l.66-1.39a14.43,14.43,0,0,1,.41-2.16c.13-.41.24-.89.87-.62,1.52.11.9,1.34,1.12,2.13C167.09,104,166.93,104.28,166.59,104.47Z"/><path class="cls-95" d="M154.16,63.58l.2.24c.49.49,1.26.66,1.58,1.36.24.49.87.89.12,1.55s-1-.07-1.43-.31c-.27-.15-.52-.33-.77-.49s-.32-.55-.58-.75l-.52-.56c-.53-.26-1.21-.45-.69-1.28Z"/><path class="cls-96" d="M167.52,83.82a1.16,1.16,0,0,1-1,1.18c-.57.13-.37-.52-.53-.83a6.28,6.28,0,0,1-.73-3c0-.36.07-.75.45-.86s.58.18.78.41A5.35,5.35,0,0,1,167.52,83.82Z"/><path class="cls-97" d="M119,62.22a3.63,3.63,0,0,1-3.61,1c-.59-.33-.48-.81-.19-1.22A2.78,2.78,0,0,1,119,62c.09.06.11.12.08.17S119,62.22,119,62.22Z"/><path class="cls-96" d="M163.15,122.21a1.63,1.63,0,0,1,2,.57A2.18,2.18,0,0,1,165,125a1.44,1.44,0,0,1-1.71.67c-.69-.32,0-1-.15-1.57A15.38,15.38,0,0,0,163.15,122.21Z"/><path class="cls-98" d="M133.13,62c-.12-1,.71-1.17,1.44-1.24A1.44,1.44,0,0,1,136.12,62c.1.41-1.18,1.69-1.55,1.52C133.92,63.25,133.11,63,133.13,62Z"/><path class="cls-68" d="M119,62.22V62a1.59,1.59,0,0,0,0-1.86c-.4-.5-.42-1.26-1.11-1.54a.83.83,0,0,1,0-.91,1.87,1.87,0,0,1,.71-.57c.56-.63-.25-.62-.42-.91a.56.56,0,0,1-.12-.31.66.66,0,0,0-.38-.67.37.37,0,0,1-.1-.35,1.17,1.17,0,0,1,.81-.57,1.46,1.46,0,0,1,.69,0,.67.67,0,0,1,.53.77,16.82,16.82,0,0,1-.11,3.09,23,23,0,0,1-.25,5.24C119.22,63,119.44,62.52,119,62.22Z"/><path class="cls-99" d="M114.49,52.94l.57-.78a12.74,12.74,0,0,1,4.11-.72.6.6,0,0,1,.3.31c.13,1.22-.8,1.38-1.63,1.65a2.46,2.46,0,0,1-.39.09,8,8,0,0,0-1.54.18,2.24,2.24,0,0,1-1.15,0,.75.75,0,0,1-.32-.21A.53.53,0,0,1,114.49,52.94Z"/><path class="cls-100" d="M118,58.5c1.4-.16,1.14.79,1.07,1.61a5.75,5.75,0,0,1-3.47.47,2.29,2.29,0,0,1,1.19-1.2c.24-.14,1.09-.3.4-.94-.26-.11-.79,0-.42-.59C117.44,57.52,117.76,57.92,118,58.5Z"/><path class="cls-101" d="M117.66,56.44a2.65,2.65,0,0,0-.49.09c-1.78.76-2.12.59-2.41-1.2a.56.56,0,0,1,.33-.68c.49-.21,1,0,1.44.05a1.59,1.59,0,0,1,1.18.36h0c.21.23,1,.13.51.79h0A1.92,1.92,0,0,1,117.66,56.44Z"/><path class="cls-102" d="M153.72,121.75c-.8,0-2.08-1-1.94-1.54s.26-1,.94-.88c.83.17,1.84.21,2,1.29C154.8,121.23,154.49,121.84,153.72,121.75Z"/><path class="cls-103" d="M160.72,83.25a5,5,0,0,1-.55,3.28c-.22.34-.41.74-.88.61s-.27-.59-.26-.89C159.1,85,159,83.64,160.72,83.25Z"/><path class="cls-104" d="M151.63,66.22c1.17.25,2.15.48,2.77,1.5.35.58.12.85-.24,1.21-.53.52-.73-.06-.91-.3C152.71,67.88,151.64,67.49,151.63,66.22Z"/><path class="cls-105" d="M115.84,51.64c-.34-.27-1-.23-.83-1,.11-.49.23-.86.85-.67s1.27-.19,1.93-.12c.43,0,.92,0,.84.65C117.8,51.79,117.19,52,115.84,51.64Z"/><path class="cls-101" d="M167.31,103.64c.18-.49.37-1,.53-1.45a.51.51,0,0,1,.59-.4.55.55,0,0,1,.52.49,3.19,3.19,0,0,1-1.79,2.94A1.18,1.18,0,0,1,167.31,103.64Z"/><path class="cls-106" d="M163.92,82.67c.08-.35-.25-1,.22-1,.62-.07.31.58.33.9.08,1,1.31,1.58.82,2.77-.18.44-.14,1.09-.72,1.06s-.34-.7-.39-1.07a10.29,10.29,0,0,1,0-1.57C163.79,83.45,164.23,83,163.92,82.67Z"/><path class="cls-45" d="M115.84,51.64c1.16.26,1.87-.48,2.62-1.16.43-.24.18-.52,0-.79.47-.44.91-.13,1.36.07l0,.26c-.21.36-.08.76-.12,1.15s0,.54-.42.45c-1.41.13-2.76.76-4.21.54Z"/><path class="cls-107" d="M161.23,102.77a5.18,5.18,0,0,1-.7,2.32c-.2.25-.37.51-.74.35a.5.5,0,0,1-.26-.66,21.35,21.35,0,0,1,.66-2.24.67.67,0,0,1,.83-.46C161.34,102.19,161.2,102.52,161.23,102.77Z"/><path class="cls-108" d="M99.61,63.55c.26.64.67.3.92.07.79-.74,1-.25,1.25.47.12,1.34-.47,1.67-1.86,1A1.82,1.82,0,0,1,99,63.62.4.4,0,0,1,99.61,63.55Z"/><path class="cls-99" d="M135.5,52c.19-.6.19-1.3,1.24-.71a3.42,3.42,0,0,1,1.49,1.52c0,.06-.14.31-.17.3a15.93,15.93,0,0,1-2.25-.43C135.49,52.56,135.54,52.31,135.5,52Z"/><path class="cls-109" d="M98.31,61.71c-.08-2.43-.06-2.67,2.33-1.43A5.83,5.83,0,0,1,98.31,61.71Z"/><path class="cls-110" d="M165.78,101.51c-.75.14-.5.82-.66,1.26s-.15,1.12-.62,1.52l-.32-.36a15,15,0,0,1,.07-1.51c.1-.79-.4-.67-.86-.63a.2.2,0,0,1,0-.3,4.92,4.92,0,0,1,2.34-.29Z"/><path class="cls-109" d="M99.61,63.55l-.6.07c-.58-.07-.71-.31-.28-.75s1.12-1.1,1.7-1.63c.13-.11.27-.42.51-.23a.46.46,0,0,1,.1.69Z"/><path class="cls-111" d="M98.23,59A1.83,1.83,0,0,1,99,57.87c.25-.22.37-.84.89-.54a1.39,1.39,0,0,1,.68,1.21c0,.5-.56.43-.93.45S98.72,59.32,98.23,59Z"/><path class="cls-112" d="M158.28,84.75A3.39,3.39,0,0,1,158,87a.73.73,0,0,1-1.1.33c-.44-.25-.18-.66,0-.88C157.49,86,157.4,85,158.28,84.75Z"/><path class="cls-109" d="M149,72.14c.05.75-.17,1.31-.67,1.3s-.79-.66-.89-1.16a.78.78,0,0,1,.66-1A.83.83,0,0,1,149,72.14Z"/><path class="cls-95" d="M102.26,66.07c-.93.78-2,.41-2.93.2a.65.65,0,0,1-.43-.73c.22-.52.67,0,1-.09C100.7,65.63,101.74,64.86,102.26,66.07Z"/><path class="cls-113" d="M135,57.72c.86-.62,1.92.15,2.8-.4,0,0,.25.15.24.21-.05.24-.08.59-.24.69-.64.39-1.33.9-2,0C135.46,58.12,135.11,58.07,135,57.72Z"/><path class="cls-100" d="M135.26,58.78c-.53,1.1.77.28.81.78a2.08,2.08,0,0,1-2.15,0l.83-.43-.69-.39c-.47-.28-.74-.72-.39-1.17s.67.11,1,.3a3.65,3.65,0,0,1,.31.24C135.42,58.18,135.41,58.45,135.26,58.78Z"/><path class="cls-114" d="M133.87,65.17c-.27-.29-1.09.38-1.09-.59a.68.68,0,0,1,.94-.72c.4.13,1.17,0,1.13.73C134.83,65.08,134.46,65.34,133.87,65.17Z"/><path class="cls-102" d="M158.75,102.29c.15.81.3,1.42.38,2a.87.87,0,0,1-.53.84c-.22.13-.42,0-.6-.13-.44-.26-.26-.58-.09-.89C158.2,103.61,158.09,102.88,158.75,102.29Z"/><path class="cls-74" d="M151.69,68.27c-.76.26-1.23-.4-1.85-.55-.45-.1-.22-.47-.07-.74s.42-.55.69-.17S151.61,67.49,151.69,68.27Z"/><path class="cls-107" d="M119,57.43c-.27,0-.58-.12-.75.22-1,.36-1.24.27-1.29-.46.37-.14.74-.29.7-.79C119.15,56.1,119.26,56.19,119,57.43Z"/><path class="cls-9" d="M102.26,66.07c-.64-.75-1.64-.16-2.36-.62l0-.31c.82,0,1.8.29,1.86-1A1.41,1.41,0,0,1,102.26,66.07Z"/><path class="cls-115" d="M97.24,64.09c0,.35.34.86-.14,1s-.51-.48-.66-.79a3.06,3.06,0,0,1-.31-2.1c.54-.2.57.37.85.56V63A1.3,1.3,0,0,0,97.24,64.09Z"/><path class="cls-116" d="M116.64,58l.52.43a10.6,10.6,0,0,1-1.38.62c-.28.09-.73.31-.91-.14s.26-.54.56-.71a4,4,0,0,0,.42-.3C116.12,57.86,116.41,57.76,116.64,58Z"/><path class="cls-117" d="M102.43,67.2c-.48.44-.91,1-1.68,1-.25,0-.61-.4-.5-.47a12.52,12.52,0,0,1,1.9-1C102.34,66.73,102.41,67,102.43,67.2Z"/><path class="cls-118" d="M30.61,147.7a34.74,34.74,0,0,0,3.68,0v.4c-1-.49-1.84,1.11-2.91.31.2-.28.63.06.8-.3C31.69,147.85,31,148.31,30.61,147.7Z"/><path class="cls-119" d="M98.28,57.31a3.83,3.83,0,0,1-.2-1.93c0-.32.15-.66.53-.6a.51.51,0,0,1,.4.7A3.91,3.91,0,0,1,98.28,57.31Z"/><path class="cls-120" d="M26.6,138.18a7.51,7.51,0,0,1,2.12-1.1.73.73,0,0,1,.39.63c-.39.64-1.18.56-1.71,1A.86.86,0,0,0,26.6,138.18Z"/><path class="cls-90" d="M133.92,59.58l2.15,0c.2.08.28.3.11.38a2.17,2.17,0,0,1-2.4-.21.11.11,0,0,1,0-.09A.45.45,0,0,1,133.92,59.58Z"/><path class="cls-120" d="M167.36,80.82c-.63-.63,0-1,.33-1.38a.35.35,0,0,1,.56,0,.86.86,0,0,1-.06,1.35C167.92,80.74,167.64,80.39,167.36,80.82Z"/><path class="cls-121" d="M118.5,49.69c.23,0,.63-.11.65.16s-.38.5-.69.63c-.21-.84-.85-.27-1.28-.36s-.92.36-1.32-.12C116.7,49.62,117.63,49.9,118.5,49.69Z"/><path class="cls-122" d="M171,112.15c-.56.29-.6,0-.38-.39s.44-.37.45-.69a8.26,8.26,0,0,0,1.62,1.33l-.65,0C171.62,112.72,171.35,112.35,171,112.15Z"/><path class="cls-115" d="M69.63,56.92c.23-.34-.1-.8.25-1.11v2c-.25.42.06.75.18,1.11s.54.29.35.67c-.64.13-.84-.33-1.07-.77A2,2,0,0,1,69.63,56.92Z"/><path class="cls-123" d="M116.46,64.08a2.06,2.06,0,0,1,2.26-.11A3.13,3.13,0,0,1,116.46,64.08Z"/><path class="cls-124" d="M157.29,103.7c0,.38-.08.78-.59.82s-.52-.2-.54-.56c0-.53.36-.65.72-.76S157.23,103.45,157.29,103.7Z"/><path class="cls-125" d="M159.94,124.38l.3-1.08c.52-.71-.18-1.69.52-2.36-.11,1.26.07,2.57-.5,3.77Z"/><path class="cls-126" d="M104.7,47.33c.34.22.76.55.5.91s-.88.28-1.32,0l0-.36C104.1,47.6,104.3,47.32,104.7,47.33Z"/><path class="cls-26" d="M119,57.43c.64-1.76-.82-.78-1.34-1l0,0c-.08-.45.24-.52.57-.6C118.73,56.25,120,56.3,119,57.43Z"/><path class="cls-127" d="M140,52.29c-.12.31-.2.65-.62.54a.62.62,0,0,1-.52-.53c0-.5.4-.36.67-.41S140.06,52,140,52.29Z"/><path class="cls-128" d="M152.61,64.88c-.08.18.75.71-.18.53a3.79,3.79,0,0,1-1-.52c-.12-.31.12-.4.32-.51h0C152.32,64,152.46,64.46,152.61,64.88Z"/><path class="cls-115" d="M155.94,65.18a3.73,3.73,0,0,1-1.58-1.36,3.93,3.93,0,0,1,1.94,1Z"/><path class="cls-16" d="M115.12,54.83l-.36.5c-.5.88,0,1.85-.28,2.76a10,10,0,0,1-.21-3C114.48,54.72,114.72,54.48,115.12,54.83Z"/><path class="cls-14" d="M163.4,101.49v.3c-.66-.11-.77.47-1.06.83.08-.87-.57-.77-1.1-.83C162,101.67,162.62,101.15,163.4,101.49Z"/><path class="cls-129" d="M126.43,44.72,127,45c.09.66-.54.9-.8,1.35h-.47c-.36-.36,0-.58.18-.82Z"/><path class="cls-69" d="M94.33,79.24c-.55,0-.8-.42-1-.82-.11-.23,0-.26.21-.24a1.46,1.46,0,0,1,1.08.54Z"/><path class="cls-130" d="M156.94,61.64a2.39,2.39,0,0,1-1.73-.63C156.08,60.6,156.43,61.36,156.94,61.64Z"/><path class="cls-21" d="M116.64,58l-.79-.1,1.07-.72c.17.89.78.54,1.29.46l-.24.85C117.54,58.32,117.23,57.8,116.64,58Z"/><path class="cls-55" d="M170.31,115.89c.06-.34-.29-1,.32-.93.44,0,.51.51.26.94a1.4,1.4,0,0,0-.07.51C170.46,116.42,170.58,116,170.31,115.89Z"/><path class="cls-131" d="M167.36,80.82c.09-.23-.27-.68.23-.69s.6.3.6.7l-.07,0c-.29.29.24.94-.45,1.06Z"/><path class="cls-132" d="M152.61,64.88c-.29-.17-.48-.54-.89-.5-.22-.46-.23-.85.35-1-.16.63.58.79.69,1.28Z"/><path class="cls-133" d="M167.67,81.87c.44-.23.07-.8.45-1.06a3.36,3.36,0,0,1-.26,2.08A1.11,1.11,0,0,1,167.67,81.87Z"/><path class="cls-134" d="M163.15,122.21a2,2,0,0,1,0,1.92l-.25-.27-.06-1.06C163.11,122.7,163,122.4,163.15,122.21Z"/><path class="cls-135" d="M149.3,49.74c0,.27.52.29.37.61s-.46.14-.7.21a.34.34,0,0,1-.57-.05C148.67,50.22,148.86,49.83,149.3,49.74Z"/><path class="cls-136" d="M49.21,59.34c-.3.41.66,1.71-.88,1.25,0-.58.76-.69.73-1.27Z"/><path class="cls-137" d="M156,141.72l-.34-.37.33-.53c.17-.26.43-.35.64-.16s-.06.42-.2.6S156.13,141.56,156,141.72Z"/><path class="cls-138" d="M76.87,57.21a1,1,0,0,1-.82.85l-.35-.37.79-.85A.46.46,0,0,1,76.87,57.21Z"/><path class="cls-50" d="M125.89,45.48c0,.29-.32.5-.18.82-.09.21-.21.46-.46.32s-.08-.55-.14-.83Z"/><path class="cls-16" d="M114.49,52.94l0,.53a.77.77,0,0,1-.3.86l-.53-1.65C114,52.79,114.1,53.24,114.49,52.94Z"/><path class="cls-41" d="M97,62.76c-.43,0-.53-.42-.85-.56l.33-.5C97.18,61.78,97,62.33,97,62.76Z"/><path class="cls-139" d="M49.21,59.34h-.08l-.07,0c-1-.35-.37-.86-.14-1.34A2.22,2.22,0,0,1,49.21,59.34Z"/><path class="cls-140" d="M21.4,143.43a1.09,1.09,0,0,1,.48,1.21C21.4,144.41,21.44,144,21.4,143.43Z"/><path class="cls-90" d="M101.89,69c.07-.3.25-.35.41-.29a.89.89,0,0,1,.49.34c.08.17-.14.35-.31.3A2.87,2.87,0,0,1,101.89,69Z"/><path class="cls-141" d="M70.41,59.55,69.93,59c.07-.13.11-.3.31-.3l1.26.85Z"/><path class="cls-59" d="M167.31,103.64a2.67,2.67,0,0,0-.15,1.58c-.51,0-.21-.63-.57-.75l.31-.83Z"/><path class="cls-142" d="M104.7,47.33c-.17.32-.51.4-.8.55,0-.49-.14-1.13.75-.81Z"/><path class="cls-143" d="M68,132.52c.08.47-.07.69-.4.79a.17.17,0,0,1-.24-.2A.72.72,0,0,1,68,132.52Z"/><path class="cls-144" d="M167.83,133.83a1.58,1.58,0,0,1-.44-1.39A1.14,1.14,0,0,1,167.83,133.83Z"/><path class="cls-145" d="M42.57,146.13c-.42.55-.63.89-1.2.73C41.54,146.37,41.93,146.31,42.57,146.13Z"/><path class="cls-132" d="M151.73,64.38l-.32.51-.82-.56.3-.52A1,1,0,0,0,151.73,64.38Z"/><path class="cls-8" d="M29.77,148.5c-.18,0-.38,0-.35-.25,0-.08.16-.18.27-.21s.39,0,.42.15S29.94,148.45,29.77,148.5Z"/><path class="cls-146" d="M70.24,58.72l-.31.3c-.12-.41-.49-.82-.05-1.25Z"/><path class="cls-147" d="M163.92,82.67c.39.29.22.71.24,1.08l-.55.24.08-.79Z"/><path class="cls-148" d="M148.4,50.51l.45.12c-.19.42-.43.69-.92.4l-.77-.27Z"/><path class="cls-149" d="M101.23,82.17l.81.26a.72.72,0,0,1-.76.4C101,82.74,101.28,82.4,101.23,82.17Z"/><path class="cls-150" d="M164.19,135.5v1.06c-.51-.05-.24-.65-.58-.83C163.71,135.4,164,135.58,164.19,135.5Z"/><path class="cls-68" d="M36.18,148.1c-.09.13-.14.28-.22.3s-.28-.13-.26-.29a.35.35,0,0,1,.21-.23C36,147.88,36.08,148,36.18,148.1Z"/><path class="cls-151" d="M153.28,65.18a1,1,0,0,1,.58.75C153.15,66.07,153.21,65.63,153.28,65.18Z"/><path class="cls-41" d="M97.24,64.09c-.62-.22-.48-.63-.25-1.06l.21.23a.22.22,0,0,1,.09.35Z"/><path class="cls-152" d="M158.25,62.68c0,.15-.06.26-.22.18a1.62,1.62,0,0,1-.39-.3s.1-.24.17-.25C158.05,62.29,158.17,62.48,158.25,62.68Z"/><path class="cls-62" d="M135.26,58.78l-.31-.65v-.41l.78.54Z"/><path class="cls-153" d="M97.29,63.61l-.09-.35c.15-.12.29-.4.5-.25s0,.39,0,.6Z"/><path class="cls-26" d="M94.74,113.82c.13.08.34.15.4.28s-.14.19-.23.15a3.47,3.47,0,0,1-.4-.3Z"/><path class="cls-120" d="M24.94,148.2c0,.18-.12.29-.25.21a.42.42,0,0,1-.16-.29c0-.11.06-.26.22-.16S24.89,148.14,24.94,148.2Z"/><path class="cls-16" d="M22.91,146.05a1.24,1.24,0,0,1,.31.38c.07.18-.11.23-.21.15a1.52,1.52,0,0,1-.31-.39Z"/><path class="cls-17" d="M54.21,141.09c-.15.09-.25.2-.32.18s-.18-.14-.26-.22c.08-.06.16-.18.24-.17S54.05,141,54.21,141.09Z"/><path class="cls-30" d="M167.37,86.4c-.12.23-.35.18-.55.2,0-.24-.08-.55.23-.65C167.1,85.93,167.26,86.24,167.37,86.4Z"/><path class="cls-85" d="M22.15,124.36c-.35-.37-.56-.89-1.11-1s-.5-.72-.57-1.16c-.31-1,.68-.84,1.09-1.19a8.51,8.51,0,0,0-1.64.72l-1.56,1a1.28,1.28,0,0,1-1.1.55c-.08.17-.44-.41-.37.14a2.73,2.73,0,0,0,.11.81,8,8,0,0,0,.49,2c.23,0,.25.08.09.23a1.91,1.91,0,0,0,.29,1.84c.51.7.21,1.09-.58,1.06s-1.57.24-2.15-.51c-1.62-1.25-3.37-2.37-4.35-4.25-.2-.39-.61-.61-.71-1a2.9,2.9,0,0,1,.66-.65c.09,0,.14-.09.09-.15s-.15,0-.22,0c-.3,0-.23.61-.66.45A4.44,4.44,0,0,1,8.08,121h0a.68.68,0,0,1,.53-.35c3-.14,5.75-1.23,8.57-2a47.71,47.71,0,0,0,4.93-1.82c1.91-.74,4-.84,5.77-2.1a6.06,6.06,0,0,0,1.67-1.43c1.13-1.24,2.4-2.33,3.51-3.58a9.27,9.27,0,0,0,1.39-1.34c.35-.32.77-.56,1.12-.88,1-.79,2.08-1.42,3.14-2.12a4.22,4.22,0,0,1,.66-.36c1.69-.77,3.21-1.85,4.88-2.66a66.21,66.21,0,0,1,9.69-2.68,8.75,8.75,0,0,0,1.84-.17,23.17,23.17,0,0,1,2.49-.3c3.66-.41,6.58-2.28,9.35-4.51a9.72,9.72,0,0,1,4.79-2.36c.68-.12.77.2.46.7-.9,1.44-1.82,2.88-2.76,4.3s-2.31,1.37-3.65-.18c-1.1,2.1-3.15,2.62-5.18,3.14a1,1,0,0,0-.79.75c-.12.3.18,1.28-.76.52-.2-.16-.26.29-.17.42.94,1.45-.51,2-1.12,2.78a1.44,1.44,0,0,1-2.14.42,4.84,4.84,0,0,0-3.65-.55c-.07,0-.21-.23-.31-.36s-.13-.12-.2-.07-.11.2,0,.32c.26,1.11-.68,1.1-1.28,1.27a5.81,5.81,0,0,1-1.56,0c-.24,0-.19-.69-.59-.23-.27.12-.73.06-.77.39a3.31,3.31,0,0,1-1,2.23c-.07.06.1.38.16.58a7.38,7.38,0,0,1,.05,1c-.17,1.87-.8,2.18-2.37,1.16a2.72,2.72,0,0,0-1.87-.66c-.26-.26-.14-.56-.06-.84,0,0,0-.08,0-.08s-.09,0-.09,0l-.09.23c0,.46-.72.46-.58,1a2.92,2.92,0,0,0,.7.75,2.45,2.45,0,0,1,0,3.42c-.83.75-1.66.41-2.43-.32a6,6,0,0,1-1.9-2.69c.18,1.75-1.51,1.12-1.9,2-.12.3-.72.25-.55.77a3.64,3.64,0,0,1-1,3c-.12.21-.27.36-.55.27-1.07-.11-2-.89-3.19-.52-.09,0,0-.24-.15-.1s0,.21-.12.3c-.54.19-.73.82-1.32,1-.27.1-.86.74,0,1.11.39.16.11.55.27.79a.6.6,0,0,1,0,.8c-.43,1.45-.56,3-1.59,4.25-.72.08-.9-.5-1-1-.36-1.15-1.38-1.89-1.78-3-.11-.32-.35-.35-.63-.32-.42.28-.26.72-.3,1.1a1.11,1.11,0,0,0,.07.26c.39.91.51,2-.23,2.57S22.84,124.72,22.15,124.36Z"/><path class="cls-85" d="M34.05,107.11c0-1.51-.27-1.69-1.88-1.87-.9-.1-2,.16-2.43-1.09-.31-.87-.11-1.33.82-1.27s1.45-.35,1.38-1.39c-.05-.79.31-1.18,1.15-.84.6.23,1-.07,1.4-.48,1.22-1.24,2.41-2.38,4.46-1.49.72.31,1.34-.49,1.6-1.29.08-.26-.15-.84.26-.74,1.17.27,2.26-1,3.41,0,.43-2,1.88-3.23,3.18-4.49.53-.51,1.45-.12,2.19-.18.43,0,.88.07,1.27-.26s-.07-1.29.51-1.19c1.75.28,3.25-1.15,5-.62a1,1,0,0,0,1.16-.28,2.7,2.7,0,0,1,2.66-.82c1.06.14,2.07-.69,3.13-.11.44-1.39,1.62-.75,2.52-1a3.91,3.91,0,0,1,2,.13c.72.19,1.36.58,2.27,0,.74-.47.92.6,1.09,1.21.07.24,0,.6.32.62s.39-.27.47-.54c.45-1.48.86-1.7,2.5-1.37,1.31.26,1.73-.15,1.46-1.41-.16-.75-.39-1-1.23-.59-1.56.79-2.5.19-2.42-1.53A5.67,5.67,0,0,1,73,81.35a8.18,8.18,0,0,0,1.42-5c-.12-.92.18-1.35,1.1-1.36.75,0,1.25-.22.92-1.12-.23-.62.1-.9.66-1,.38-.1,1-.11,1.1-.32.59-1.65,2.31-1.49,3.44-2.25a10.68,10.68,0,0,1,8.7-1.47c1.44.35,2.77,1.95,3.69,3.44A.88.88,0,0,1,94,73a4.86,4.86,0,0,0-.25,3.59A2.06,2.06,0,0,1,93.51,78a1.3,1.3,0,0,1-1.4-.46c-.61-.77-1.48-1.31-1.91-2.23a1.15,1.15,0,0,1,.27-.73c1.07-1.5.85-2.51-.87-3.17a8,8,0,0,0-7.36.75,18.23,18.23,0,0,0-7.33,9.61,6.27,6.27,0,0,0-.24,1c-.25,1.43,0,1.7,1.65,1.43-.91-.46-1.13-1.15-.59-1.88s1.29-.52,1.83,0A8.3,8.3,0,0,1,80,86.71c.27,1.49,0,1.81-1.56,2.06-2.47.45-4.65,1.66-6.92,2.62a27.87,27.87,0,0,1-5.12,3.93c-1.47,1-3.11,1.66-4.62,2.58-2.4,1.46-5.19,1.19-7.79,1.77a46.56,46.56,0,0,0-9.88,2.79c-1.6.91-3.48,1.27-5,2.37-.29.22-.61.4-.9.63-.94.63-1.75,1.46-2.75,2a.7.7,0,0,1-.35,0C35,106.58,34.3,107.51,34.05,107.11Z"/><path class="cls-3" d="M78.4,88.77c1.5-.21,1.38-1.28,1.17-2.32a10.57,10.57,0,0,0-2.35-4.08.73.73,0,0,0-1.07-.08,1.08,1.08,0,0,0-.42,1.18c.09.5.49.39.84.33a7.38,7.38,0,0,1,.87,0,2.74,2.74,0,0,1-1.5.93c-1.15.45-2-.26-1.7-1.46a17.16,17.16,0,0,1,8.45-11.71,7.7,7.7,0,0,1,7.68-.12c1.54.86,1.64,2.13.25,3.3-.93-.15-.33-1.2-.94-1.57-.15.43.24.82.1,1.23-.1.25-.19.5-.55.39a6.47,6.47,0,0,1-1.56-2.09,1.59,1.59,0,0,0-2.08-.87,12.57,12.57,0,0,0-6,3.94,11.56,11.56,0,0,0-1.39,1.58,13,13,0,0,0-1,2c-.39.93.62,1.13,1,1.67,1.46,2.3,2.57,4.7,2.12,7.53-.16.14-.23.43-.53.27-.27,0-.48,0-.72.33C78.5,89.82,78.4,89.27,78.4,88.77Z"/><path class="cls-154" d="M54,99.46c1.4-.6,2.93-.44,4.38-.72,2.61-.5,4.74-2,7-3.25s3.95-2.91,6.11-4.1c.17.44.18,1,.92.89-3.1,1-5.34,3.43-8.06,5.07a16.19,16.19,0,0,1-8.47,2.35,5.48,5.48,0,0,1-1.76.09C53.94,99.73,53.89,99.62,54,99.46Z"/><path class="cls-155" d="M74.73,93.33c.23-.31.48-.61.68-.94.31-.5.77-.89,1.28-.57s.06.92-.13,1.17a8.92,8.92,0,0,1-3.43,2.84l1-1.54C74.41,94,74.27,93.49,74.73,93.33Z"/><path class="cls-106" d="M64.85,101a5.89,5.89,0,0,1-3.21,1.46c.39-1.35,1.5-1.36,2.37-1.72C64.34,100.64,64.72,100.39,64.85,101Z"/><path class="cls-156" d="M69.64,100.74l-.28-.28a3.62,3.62,0,0,1,1.94-2.11A4.55,4.55,0,0,1,69.64,100.74Z"/><path class="cls-157" d="M64.85,101c-.22-.3-.57-.15-.84-.26a5.84,5.84,0,0,0,1.69-1c.23-.18.5-.27.68,0s-.12.4-.29.51C65.68,100.51,65.26,100.73,64.85,101Z"/><path class="cls-132" d="M50,115.63c-.24.88-.07,1.45,1.13,1.32-.43.66-1.06.24-1.45.52A1.82,1.82,0,0,1,50,115.63Z"/><path class="cls-158" d="M53.46,114.3c0,.54-.19.93-.75.78s0-.54,0-.82Z"/><path class="cls-22" d="M48.67,105.52c.06-.34-.25-.74.28-1.12l.31,1.35Z"/><path class="cls-159" d="M49.15,119.05c.16-1.15-.75-.21-1-.52a.93.93,0,0,1,1-.26c.75,0,.66.34.37.79A.24.24,0,0,1,49.15,119.05Z"/><path class="cls-160" d="M64.35,106.32a1.54,1.54,0,0,1,.76-.83l.3.31a1.5,1.5,0,0,1-.79.85A.34.34,0,0,1,64.35,106.32Z"/><path class="cls-161" d="M74.73,93.33c-.18.33-.22.75-.6,1C74,93.75,73.94,93.28,74.73,93.33Z"/><path class="cls-162" d="M79.74,88.79l.53-.27A2.21,2.21,0,0,1,80,89.9Z"/><path class="cls-163" d="M52.1,104.47c-.42-.25-.28-.58-.12-.9a.29.29,0,0,1,.22-.08c.23.21.15.48.13.73Z"/><path class="cls-164" d="M120.91,164.44l-.25.3c0-.2,0-.4-.07-.6l.06-1.49C121.3,163.17,120.72,163.86,120.91,164.44Z"/><path class="cls-21" d="M17.29,93.29a6,6,0,0,1,2.25-.52,2.41,2.41,0,0,1-1.95,1.07A.56.56,0,0,0,17.29,93.29Z"/><path class="cls-12" d="M1.68,106.17c-.33-.2-.6-.42-.36-.83C1.8,105.48,1.59,105.9,1.68,106.17Z"/><path class="cls-45" d="M1.91,116.41c-.34-.2-.79-.28-.79-.8C1.64,115.62,1.81,116,1.91,116.41Z"/><path class="cls-132" d="M16.27,92.3l-.27.23c0-.23-.4-.51-.05-.67S16.23,92.09,16.27,92.3Z"/><path class="cls-13" d="M3,104.38c-.2-.31,0-.53.12-.78C3.27,103.9,3.33,104.16,3,104.38Z"/><path class="cls-41" d="M35.9,114.55c-.29-.15-1,.26-.77-.53s.51,0,.76,0a1.64,1.64,0,0,0,.56-.25A.81.81,0,0,1,35.9,114.55Z"/><path class="cls-115" d="M34.31,117.78l.55-.27c.08.24.7.33.29.69S34.52,118.07,34.31,117.78Z"/><path class="cls-16" d="M40.74,115.66l1.55-.13C41.81,116.11,41.41,116.2,40.74,115.66Z"/><path class="cls-32" d="M30.85,117.46c.25-.69-.76-.29-.64-1,.52,0,1-.08.91.84C31.11,117.44,31,117.49,30.85,117.46Z"/><path class="cls-11" d="M45,113.41c.19-.6.42-.74.76-.65.07,0,.11.18.16.28Z"/><path class="cls-165" d="M42,110.58c-.32-.65.45-.85.56-1.33.31.42.06.88.08,1.33C42.43,110.73,42.21,110.27,42,110.58Z"/><path class="cls-132" d="M42.64,110.58l-.08-1.33h0a.34.34,0,0,1,.52,0c.29.43-.45.62-.26,1Z"/><path class="cls-24" d="M29.8,121.19v-.8C30.66,120.67,30.2,120.93,29.8,121.19Z"/><path class="cls-81" d="M27.46,134.49c-.55.58-1.25.13-1.86.26a.43.43,0,0,1-.58,0C25.75,133.75,26.65,134.59,27.46,134.49Z"/><path class="cls-166" d="M25.05,135.59c0,.36.82.46.42.9-.27.29-.61,0-.76-.33a1.45,1.45,0,0,1,.07-1.19.37.37,0,0,1,.18,0A.46.46,0,0,1,25.05,135.59Z"/><path class="cls-55" d="M25.05,135.59,25,135l.06-.21h.58C26.6,135.81,25.27,135.33,25.05,135.59Z"/><path class="cls-126" d="M29.83,134.15c.23.23.58.53.31.82s-.51-.37-.87-.27Z"/><path class="cls-167" d="M21.39,133.83c-.09-.44-.19-.73,0-1C21.8,133.1,21.74,133.39,21.39,133.83Z"/><path class="cls-55" d="M24.78,135l-.07,1.19-.27-1.4Z"/><path class="cls-26" d="M34.1,131.57c-.38.76-1,.63-1.68.49s-1.05-.32-1.57-.48c-.08-.28,0-.36.29-.28.53.37,1-.37,1.59,0a1.38,1.38,0,0,1,1-.26A.6.6,0,0,0,34.1,131.57Z"/><path class="cls-115" d="M35.15,126.25l0,1.84c-.62-.38.16-1.49-.87-1.66C34.42,125.66,34.88,126.43,35.15,126.25Z"/><path class="cls-168" d="M31.14,131.3l-.29.28c-.36-.07-.79.12-1.05-.3a2.19,2.19,0,0,0,1.09-.35C31.3,130.68,31.46,130.9,31.14,131.3Z"/><path class="cls-138" d="M33.77,131a1.52,1.52,0,0,1-1,.26C33,130.83,33.28,130.52,33.77,131Z"/><path class="cls-46" d="M36.17,129.94c-.43.09-.49-.39-.78-.49l0-.61.5.31C36.17,129.36,36.48,129.55,36.17,129.94Z"/><path class="cls-15" d="M42.3,125.18a1,1,0,0,1-1.37,0Z"/><path class="cls-31" d="M17.06,123.1l1.3-.38c.21.41.2.72-.33.85a1.4,1.4,0,0,0-1,.65c-.45-.17-.43-.51-.3-.89C16.76,123.17,16.92,123.15,17.06,123.1Z"/><path class="cls-160" d="M19.92,121.69c.16-.8,1.42-.5,1.44-1.44.11,0,.3,0,.33,0,.15.33.22.69-.18.89s-.93.39-1.05,1Z"/><path class="cls-31" d="M17.58,126.5a.32.32,0,0,1-.09-.23c.31-.09.3-.41.66-.86C18,126,18.94,126.78,17.58,126.5Z"/><path class="cls-54" d="M15.84,130.39a1.72,1.72,0,0,1-.19-.44c0-.16.15-.19.23-.09a1.65,1.65,0,0,1,.22.44Z"/><path class="cls-8" d="M17.35,118.81A27.77,27.77,0,0,1,8.07,121c-.12-.8.65-.94,1-1.38,2.37.09,4.61-.74,6.92-1C16.42,118.82,17,118.31,17.35,118.81Z"/><path class="cls-8" d="M5.37,119.06c.94.47,2,.13,3,.51H6.46v.25l1.35.08a9.26,9.26,0,0,1-2.42.43c-.93.13.64-.35,0-.48a.36.36,0,0,1,0-.52Z"/><path class="cls-25" d="M1.79,116.86a1.31,1.31,0,0,1,0,1.49C1.54,117.83,1.18,117.36,1.79,116.86Z"/><path class="cls-80" d="M5.37,119.33c0,.17,0,.35,0,.52-.23,0-.61.07-.63-.21C4.68,119.19,5.12,119.39,5.37,119.33Z"/><path class="cls-169" d="M24.46,122.25c-1.11-.34-.27-1-.12-1.37s.39,0,.42.27S24.82,122,24.46,122.25Z"/><path class="cls-170" d="M10,123.24c-.06-.52.07-.85.69-.74.23.11.45.23.3.55s-.35.71-.86.54C9.88,123.53,9.73,123.46,10,123.24Z"/><path class="cls-171" d="M11.2,127.05c.05-.24-.21-.5,0-.71,0,0,.32.13.37.25.15.38-.15.41-.41.45Z"/><path class="cls-2" d="M46.24,117.46a1,1,0,0,1,.9.61c-.9.63-.79-.13-.89-.62Z"/><path class="cls-115" d="M43.32,122.52c.12.34.7.17.72.65-.26.34-.63.11-.95.18C43.1,123.05,43,122.72,43.32,122.52Z"/><path class="cls-172" d="M54.79,73.29a4.11,4.11,0,0,1,3.13,2.31,4.76,4.76,0,0,1,.26,3.92c-1.89,4.09-4.75,5.4-9.23,3.6a4.6,4.6,0,0,1-2.6-3.56c-.82-3.68,1-5.07,3.61-6.26a.53.53,0,0,1,.17.55,1.22,1.22,0,0,1-.49.61c-2.06,1.49-2,3.65-1.59,5.76.24,1.25,1.51,1.81,2.65,2.18,2.63.87,4.54.11,6-2.26a3.61,3.61,0,0,0-.88-5c-.47-.38-1.08-.65-1.23-1.34A.63.63,0,0,1,54.79,73.29Z"/><path class="cls-173" d="M17.35,118.81c-.45-.08-1,.14-1.35-.23,3.19-1.21,6.42-2.35,9.56-3.68A21.7,21.7,0,0,0,29,112.67c.38.11.87.08.88.68A6.52,6.52,0,0,1,25.92,116a78.89,78.89,0,0,0-7.8,2.69A4.76,4.76,0,0,1,17.35,118.81Z"/><path class="cls-140" d="M32.43,82.37l6.45-10c.22,0,.38,0,.23.28A28.21,28.21,0,0,1,33,82.94C32.54,83,32.32,82.83,32.43,82.37Z"/><path class="cls-68" d="M7.94,103.1c1.35-2.7,3.84-3.67,6.56-4.27a1.14,1.14,0,0,1,.75.08c.22.12.12.46,0,.57-1,.78-.85,2.06-1.36,3-.26.49-.59.94-.89,1.4-.49.28-.56-.11-.68-.43-.07-.62.38-1.06.57-1.59.1-.28.31-.59.07-.87s-.65-.21-1-.1a3.93,3.93,0,0,0-2.08,1.33,2.42,2.42,0,0,1-.89,1C8.63,103.27,8.26,103.38,7.94,103.1Z"/><path class="cls-173" d="M11.73,109.21a9.58,9.58,0,0,0-2.58,2c-.93,1.29-.82,1.67.64,2.31.42.18,1,0,1.27.55a3.74,3.74,0,0,1-2.78.41c-1.86-.31-2.17-1.18-1-2.72a6.85,6.85,0,0,1,4.09-2.83C11.69,108.81,11.76,109,11.73,109.21Z"/><path class="cls-8" d="M7.94,103.1c.3,0,.64-.39.9.08a.34.34,0,0,1,.07.11c.27.57-.6,1.27,0,1.66s1.08-.37,1.67-.45a2.56,2.56,0,0,1,.39,0,.66.66,0,0,1,.61.44c0,.51-.44.41-.68.59a8.31,8.31,0,0,0-3,1.61c-.54.46-.85.38-1-.35A4.3,4.3,0,0,1,7.94,103.1Z"/><path class="cls-8" d="M76.87,57.21l-.38-.37c.26-.93.7-1.9-.58-2.45-.47-.2-.91.41-1.53-.07,1-.41,1.86-1.17,3-.45a.65.65,0,0,0,.23.13c1.55.44,1.57.56.42,1.82C77.63,56.27,77.26,56.75,76.87,57.21Z"/><path class="cls-12" d="M29.85,113.35l-.88-.68c1.06-1.15,2.61-1.74,3.52-3.06a.33.33,0,0,1,.3-.27c.29,0,.59,0,.49.48Z"/><path class="cls-26" d="M50,73.91l0-.61a1.6,1.6,0,0,1,1-.48,7.86,7.86,0,0,1,2.94,0c.18.4.74,0,.9.43l0,.69a.79.79,0,0,1-.51.1C52.83,73.59,51.4,73.91,50,73.91Z"/><path class="cls-174" d="M89.23,74.75c.27-.12.27-.39.35-.61.68,0,.53.7.79,1.06,1.08.88,1.67,2.33,3.14,2.77a1.49,1.49,0,0,0,0,.21l-.21.24C91.45,77.72,90.39,76.18,89.23,74.75Z"/><path class="cls-175" d="M41.49,83.74a8.32,8.32,0,0,1,.84-2.36c.15-.19.29-.18.44,0,.69,1.26.69,1.34-1,3.21C41.48,84.38,41.75,84,41.49,83.74Z"/><path class="cls-85" d="M32.76,109.52l-.27.09c0-.43-.25-.89.47-1.11s.85-.83,1.09-1.39c.73.06.22-.71.55-.92.59.24.22.82.51,1.13,0,.45-.46.65-.69,1A4.3,4.3,0,0,1,32.76,109.52Z"/><path class="cls-25" d="M13.07,107.92c.58-.71,1.51-.87,2.2-1.4.15-.12.35-.32.55,0s-.12.48-.29.59c-.62.39-1.27.74-1.92,1.11C13.32,108.33,13.06,108.41,13.07,107.92Z"/><path class="cls-17" d="M11.52,105.09a.61.61,0,0,0-.57-.37,1.73,1.73,0,0,1,1.57-1.36c0,.29.11.53.46.56L12,105A.47.47,0,0,1,11.52,105.09Z"/><path class="cls-176" d="M32.43,82.37a1,1,0,0,0,.53.57c-.58.37-.25,1.82-1.16,1.42C31.32,84.15,32,83,32.43,82.37Z"/><path class="cls-177" d="M13.07,107.92a.59.59,0,0,0,.54.26l-1.88,1-.33-.28A4.62,4.62,0,0,1,13.07,107.92Z"/><path class="cls-178" d="M96.08,65l.74,1.63C96,66.05,95.83,65.61,96.08,65Z"/><path class="cls-62" d="M39.11,72.62l-.23-.28c.47-.35.4-1.57.77-1.33.78.5-.61.89-.44,1.52C39.21,72.55,39.15,72.59,39.11,72.62Z"/><path class="cls-120" d="M53.89,72.86l-2.94,0A4.43,4.43,0,0,1,53.89,72.86Z"/><path class="cls-61" d="M50,59a1.54,1.54,0,0,1-.34,1.42A1.43,1.43,0,0,1,49.75,59C49.83,58.92,49.91,58.92,50,59Z"/><path class="cls-82" d="M44.33,86c-.2-.52-.33-.86-.1-1.18a.62.62,0,0,1,.46.14C45.05,85.41,44.67,85.63,44.33,86Z"/><path class="cls-179" d="M62.77,77.12a1.43,1.43,0,0,1-1.39.67A1.37,1.37,0,0,1,62.77,77.12Z"/><path class="cls-180" d="M68.62,58.7A3.69,3.69,0,0,1,69,60.42c-.54-.6-.71-.93-.65-1.38C68.43,58.92,68.45,58.75,68.62,58.7Z"/><path class="cls-181" d="M57.55,70.27c-.32.28-.55.7-1.3.59A1.36,1.36,0,0,1,57.55,70.27Z"/><path class="cls-36" d="M17.6,105.85c-.23.15-.34.54-.72.4a.36.36,0,0,1-.1-.33.59.59,0,0,1,.79-.44A.24.24,0,0,1,17.6,105.85Z"/><path class="cls-32" d="M41.33,69c0,.21-.06.46-.34.5a.36.36,0,0,1-.44-.37c0-.27.23-.36.43-.42S41.28,68.81,41.33,69Z"/><path class="cls-182" d="M24,99.45c-.09.16,0,.49-.27.48s-.36-.33-.36-.58.14-.45.39-.41S24.05,99.22,24,99.45Z"/><path class="cls-183" d="M62,59.58,61.86,61C61.64,60.57,61,60.15,62,59.58Z"/><path class="cls-184" d="M60.05,71.32c-.16.69-.4,1-.95.91C59.19,71.71,59.58,71.62,60.05,71.32Z"/><path class="cls-64" d="M56.72,61.33c-.44-.73-.44-1.08-.11-1.56C57,60.2,56.87,60.57,56.72,61.33Z"/><path class="cls-146" d="M69.63,56.92c0,.64-.45,1.2-.29,1.86C69,58.08,68.85,57.43,69.63,56.92Z"/><path class="cls-185" d="M66.69,59.82c.27.27.42.53.14.86a.36.36,0,0,1-.23.07C66.46,60.45,66.3,60.13,66.69,59.82Z"/><path class="cls-186" d="M63.94,59.85c.5.22.42.58.27,1C63.67,60.61,63.7,60.27,63.94,59.85Z"/><path class="cls-38" d="M55.45,59.56c.19.4.25.74-.09,1a.22.22,0,0,1-.23,0C54.89,60.14,55.12,59.86,55.45,59.56Z"/><path class="cls-150" d="M55.2,70c-.16,0-.37-.09-.33-.32a.42.42,0,0,1,.48-.34c.08,0,.18.15.2.25A.31.31,0,0,1,55.2,70Z"/><path class="cls-187" d="M21.64,102.91c-.05.23-.09.47-.38.39a.38.38,0,0,1-.25-.5.49.49,0,0,1,.33-.31C21.63,102.47,21.61,102.73,21.64,102.91Z"/><path class="cls-138" d="M29.43,87.26c.26.41.31.74-.08.95a.39.39,0,0,1-.34-.06C28.77,87.67,29.3,87.57,29.43,87.26Z"/><path class="cls-187" d="M60.79,74.81c-.21,0-.38-.06-.38-.25s.21-.35.44-.36a.33.33,0,0,1,.37.29C61.25,74.83,60.91,74.68,60.79,74.81Z"/><path class="cls-188" d="M78.35,52.93c.2,0,.33.06.32.29s0,.46-.31.5a.38.38,0,0,1-.44-.37C77.91,53.11,78.12,53,78.35,52.93Z"/><path class="cls-189" d="M41.49,83.74c.32.21.21.57.29.85s-.08.41-.18.44-.25-.09-.22-.3S41.46,84.07,41.49,83.74Z"/><path class="cls-80" d="M45.42,86.63c-.24-.68-.09-.92.15-1.17C45.92,85.88,45.56,86.09,45.42,86.63Z"/><path class="cls-185" d="M42.77,81.38h-.44c0-.31-.6-.7-.19-.84C42.74,80.32,42.45,81.16,42.77,81.38Z"/><path class="cls-161" d="M46.54,86.8c0,.07-.07.29-.19.34s-.33-.07-.3-.27.08-.38.19-.44S46.51,86.51,46.54,86.8Z"/><path class="cls-190" d="M47.6,87.07c0,.17-.1.32-.32.26a.35.35,0,0,1-.25-.39c0-.19.11-.32.32-.26A.32.32,0,0,1,47.6,87.07Z"/><path class="cls-191" d="M28.36,89.13a1.36,1.36,0,0,1,.14.4c0,.18-.09.35-.29.25a.5.5,0,0,1-.25-.36C27.94,89.23,28.1,89.14,28.36,89.13Z"/><path class="cls-14" d="M19.34,104.91s-.14.25-.24.25c-.3,0-.23-.29-.23-.47s0-.36.27-.29S19.38,104.61,19.34,104.91Z"/><path class="cls-192" d="M68.62,58.7l-.26.34c0-.33-.25-.83.14-.92S68.69,58.47,68.62,58.7Z"/><path class="cls-193" d="M53.24,61.07c-.65-.56-.34-.92-.35-1.38C53.37,60.09,53.16,60.48,53.24,61.07Z"/><path class="cls-194" d="M67.62,58.82c.24.52.24.84-.17,1.2C67.27,59.56,67.48,59.27,67.62,58.82Z"/><path class="cls-195" d="M24.69,97.34a.43.43,0,0,1,.35.5c0,.23-.17.29-.35.24s-.25-.21-.23-.4S24.52,97.35,24.69,97.34Z"/><path class="cls-54" d="M23.19,100.63c-.05.12,0,.37-.27.26s-.19-.25-.22-.4a.24.24,0,0,1,.3-.28C23.2,100.25,23.2,100.44,23.19,100.63Z"/><path class="cls-62" d="M22.23,101.73a.28.28,0,0,1,.21.37.36.36,0,0,1-.22.23.24.24,0,0,1-.31-.28A.32.32,0,0,1,22.23,101.73Z"/><path class="cls-196" d="M50.92,59.45c.15.55.22.8,0,1,0,0-.17,0-.21-.1C50.56,60.1,50.73,59.9,50.92,59.45Z"/><path class="cls-32" d="M50,59h-.23c0-.25-.11-.51.1-.71,0,0,.19,0,.23,0C50.27,58.61,50.12,58.83,50,59Z"/><path class="cls-115" d="M51.68,59.78c.29.4.31.69.1,1,0,0-.19,0-.22,0C51.28,60.37,51.54,60.13,51.68,59.78Z"/><path class="cls-180" d="M63.15,60.22c-.07.15-.06.38-.29.35s-.2-.24-.18-.39.11-.26.19-.27C63.1,59.86,63.12,60.06,63.15,60.22Z"/><path class="cls-168" d="M97,68c-.44-.15-.81-.35-.72-.6s.39-.11.54.1A2.88,2.88,0,0,1,97,68Z"/><path class="cls-167" d="M13.79,113.7a1.69,1.69,0,0,1-.42.36c-.17.08-.33-.07-.27-.27a.61.61,0,0,1,.29-.34C13.54,113.38,13.72,113.41,13.79,113.7Z"/><path class="cls-168" d="M41.83,67.54c.23,0,.27.21.22.38a.41.41,0,0,1-.22.26.28.28,0,0,1-.33-.31A.31.31,0,0,1,41.83,67.54Z"/><path class="cls-94" d="M11.52,105.09,12,105a.92.92,0,0,1-1.1.5Z"/><path class="cls-56" d="M17.6,105.85l0-.37c.24-.21.57-.38.65.06S17.89,105.9,17.6,105.85Z"/><path class="cls-41" d="M39.86,70.14c.08-.19,0-.44.31-.33a.55.55,0,0,1,.3.35c0,.13,0,.37-.27.28S40,70.24,39.86,70.14Z"/><path class="cls-72" d="M31,85.9c-.07-.1-.24-.23-.24-.36s.16-.35.27-.36.23.19.27.35S31.27,85.88,31,85.9Z"/><path class="cls-84" d="M91.39,93c.17-.28-.09-1,.54-.8s.6.58.54,1.16A17.58,17.58,0,0,1,87,104.15a10.17,10.17,0,0,1-3.42,2.75c-.2,0-.3.36-.57.19a4.77,4.77,0,0,1,2.26-2.63c1.82-1.14,2.82-2.95,3.86-4.7a18.48,18.48,0,0,0,1.78-4.07C91.77,94.93,91,93.86,91.39,93Z"/><path class="cls-31" d="M92.49,103.14c.24-1.5,1.77-2,2.44-3.27,1.3-2.42,2.35-4.8,2-7.62a7.68,7.68,0,0,1,.14-1.54c2.28,4.17,0,10.16-4.64,13A.33.33,0,0,1,92.49,103.14Z"/><path class="cls-13" d="M45.19,125.4a62.58,62.58,0,0,1,6.31-5.05c.33,0,.47.08.4.42-1.63,1.67-3.64,2.88-5.37,4.42a2.34,2.34,0,0,1-1.29.62A.27.27,0,0,1,45.19,125.4Z"/><path class="cls-132" d="M38.28,132.18c.32-1.5,1.78-2.07,2.61-3.17a8.43,8.43,0,0,1,1.63-1.29.32.32,0,0,1,.06.44C41.2,129.56,40.08,131.23,38.28,132.18Z"/><path class="cls-19" d="M54,118.28c-.09-.64.41-.93.77-1.29.89-.91,1.79-1.81,2.68-2.71.26-.08.38,0,.29.27C56.57,115.93,55.58,117.42,54,118.28Z"/><path class="cls-26" d="M29.11,137.71a.67.67,0,0,1-.39-.63l3.15-1.32c.49,0,.49.19.32.54A6.89,6.89,0,0,1,29.11,137.71Z"/><path class="cls-25" d="M34.05,135a14.61,14.61,0,0,1,2.6-1.64c.27-.15.29,0,.31.24-.55.35-.82,1-1.25,1.41s-.85.33-1.31.28C34.09,135.43,34,135.27,34.05,135Z"/><path class="cls-115" d="M59.27,112.44a11.08,11.08,0,0,1,2.39-3.21c.26-.1.32,0,.27.26C61.21,110.62,60.7,112,59.27,112.44Z"/><path class="cls-197" d="M51.9,120.77l-.4-.42c.91-.6,1.26-1.87,2.48-2.1C53.75,119.47,52.64,120,51.9,120.77Z"/><path class="cls-72" d="M34.05,135l.35.29c-.71.39-1.25,1.16-2.21,1a.52.52,0,0,0-.32-.54Z"/><path class="cls-197" d="M45.19,125.4l.05.41-1.81,1.8c-.36.11-.43-.08-.38-.38A5,5,0,0,1,45.19,125.4Z"/><path class="cls-167" d="M64.35,106.32l.27.33a5.54,5.54,0,0,1-1.38,1.52c-.24,0-.39,0-.28-.33A3.58,3.58,0,0,1,64.35,106.32Z"/><path class="cls-193" d="M57.69,114.55l-.29-.27c.53-.74.91-1.61,1.9-1.87C59.18,113.44,58.21,113.82,57.69,114.55Z"/><path class="cls-30" d="M95.15,90.6a.61.61,0,0,1-.13,0,1.06,1.06,0,0,1-.67-1.27c.05-.61.43-.35.65,0s0,.55.39.57C95.68,90.21,95.49,90.43,95.15,90.6Z"/><path class="cls-50" d="M83,107.09l.57-.19c-.17.76-.28,1.58-1.4,1.52C82.21,107.81,82.7,107.52,83,107.09Z"/><path class="cls-198" d="M54.8,124.63a.59.59,0,0,1,0,1c-.11.13-.44.05-.55-.16s-.69-.61.06-.84A.29.29,0,0,1,54.8,124.63Z"/><path class="cls-50" d="M37,133.61l-.31-.24c.43-.47.74-1.11,1.53-1A1.72,1.72,0,0,1,37,133.61Z"/><path class="cls-199" d="M91.39,93a7,7,0,0,0,.16,1.53c.21.69-.18.93-.68,1.16Z"/><path class="cls-187" d="M76.15,113.18a.32.32,0,0,1,.36-.28c.42,0,.44-.69.92-.49.07,0,.17.21.14.28-.21.55-.7.57-1.18.56A2.17,2.17,0,0,1,76.15,113.18Z"/><path class="cls-186" d="M54.8,124.63l-.45,0c.13-.67-.24-1.71,1.28-1.56C55.13,123.57,54.58,123.94,54.8,124.63Z"/><path class="cls-38" d="M92,103.94c.11.91-1,.21-1.08.79a.4.4,0,0,1-.23-.26,1.47,1.47,0,0,1,1.29-.8c.08,0,.11.11.09.17S92,103.94,92,103.94Z"/><path class="cls-153" d="M58.48,122.77c.08,1.06-1.18-.11-1.22.75,0-1,.6-.87,1.24-.73Z"/><path class="cls-38" d="M91.53,90.65c-.16-.43-.37-.82,0-1.08a.52.52,0,0,1,.64.28C92.35,90.31,91.92,90.39,91.53,90.65Z"/><path class="cls-38" d="M90,105.38a1,1,0,0,1-.68.7c-.21.08-.38-.1-.29-.26a2.59,2.59,0,0,1,.65-.75C89.79,105,90,105.15,90,105.38Z"/><path class="cls-82" d="M63,107.84l.28.33c-.28.23-.27.82-.85.68a.16.16,0,0,1-.18-.14C62.18,108.18,62.63,108.06,63,107.84Z"/><path class="cls-200" d="M56.41,121.81l.33-1.35C57,121.12,57,121.12,56.41,121.81Z"/><path class="cls-194" d="M52.74,126.05a1,1,0,0,1-.38,1A.67.67,0,0,1,52.74,126.05Z"/><path class="cls-201" d="M58.5,122.79c0-.65.37-1,1.16-1-.47.36-.65.87-1.18,1Z"/><path class="cls-202" d="M96.19,91.18l-.54-.54a.6.6,0,0,1,.07-.82h.45A1.46,1.46,0,0,1,96.19,91.18Z"/><path class="cls-49" d="M74.92,114.25c-.3.06-.65.61-.88.12s.35-.34.6-.43S75,114,74.92,114.25Z"/><path class="cls-203" d="M74.92,114.25l-.28-.31c.36-.24.85-.44,1,.09C75.72,114.35,75.17,114.17,74.92,114.25Z"/><path class="cls-204" d="M79.82,111.08a.38.38,0,0,1-.52.22c-.09,0-.23-.2-.21-.24.1-.22.33-.23.54-.21S79.91,110.88,79.82,111.08Z"/><path class="cls-163" d="M81.05,109.21a.56.56,0,0,1,.67-.21.35.35,0,0,1,.11.3c-.19.33-.51.18-.79.16-.08-.06-.11-.11-.08-.17S81,109.21,81.05,109.21Z"/><path class="cls-68" d="M62.21,108.71a.15.15,0,0,0,.18.14.76.76,0,0,1-.46.64l-.27-.26Z"/><path class="cls-197" d="M80.76,109.74c.22,1-.46.55-.91.62.19-.54.83-.16,1-.65Z"/><path class="cls-205" d="M50.53,127.77c-.09.2,0,.47-.24.43a.48.48,0,0,1-.31-.34c-.06-.25.16-.38.37-.43C50.38,127.42,50.48,127.68,50.53,127.77Z"/><path class="cls-206" d="M92,103.94l0-.27c-.28-.65,0-.73.54-.53v.52Z"/><path class="cls-32" d="M91.39,91.65a.71.71,0,0,1,.77-.65s.13.15.11.2C92.12,91.58,91.88,91.83,91.39,91.65Z"/><path class="cls-207" d="M55.59,122.77c-.22-.06-.31-.15-.24-.29a2.17,2.17,0,0,1,.31-.37c.05.09.17.2.15.27A2.08,2.08,0,0,1,55.59,122.77Z"/><path class="cls-61" d="M61.76,120.27c0,.3-.19.41-.37.52s-.27,0-.24-.12a1.64,1.64,0,0,1,.34-.5S61.68,120.24,61.76,120.27Z"/><path class="cls-208" d="M56.09,124.11a.56.56,0,0,1,.24-.66c.17-.1.24,0,.27.13s-.05.4-.24.53S56.18,124.23,56.09,124.11Z"/><path class="cls-209" d="M56.09,124.11h.27c-.23.2-.17.82-.54.65S55.85,124.29,56.09,124.11Z"/><path class="cls-14" d="M96.19,91.18l0-1.35A.81.81,0,0,1,96.19,91.18Z"/><path class="cls-80" d="M90.66,104.47l.23.26c0,.26-.17.62-.4.47S90.56,104.71,90.66,104.47Z"/><path class="cls-210" d="M95.72,89.82l-.07.82-.5,0c.09-.25.34-.45.24-.76l.1-.2Z"/><path class="cls-211" d="M43.05,127.23l.38.38-.85.55-.06-.44Z"/><path class="cls-211" d="M81.05,109.21a.7.7,0,0,0,0,.25l-.28.29,0,0c-.21.08-.49.15-.46-.16S80.77,109.23,81.05,109.21Z"/><path class="cls-26" d="M119.27,51.62c.6-.39,0-1.18.54-1.6a48.86,48.86,0,0,1-.23,8.11c0-.92,0-1.84,0-2.76,0-.64-.27-.88-.86-.86.06-.4-.39-.72-.17-1.14.59-.32,1-.72.8-1.49Z"/><path class="cls-141" d="M126.18,46.31c-.07-.65.61-.86.8-1.35C127.32,45.77,126.76,46,126.18,46.31Z"/><path class="cls-41" d="M147.93,51l.92-.4c.07,0,.11,0,.12-.07.17.43-.44.63-.31,1-.31.3-.61.21-.92,0S147.73,51.18,147.93,51Z"/><path class="cls-41" d="M147.74,51.61h.92c.4.32.11.58-.15.66C148,52.41,148,51.85,147.74,51.61Z"/><path class="cls-27" d="M150.42,53.14c.17,0,.38,0,.41.2s-.19.29-.35.31a.39.39,0,0,1-.32-.19C150.08,53.26,150.21,53.15,150.42,53.14Z"/><path class="cls-1" d="M114.22,54.33c.08-.29,0-.65.3-.86h0c.39.28.85.05,1.27.16a2.27,2.27,0,0,1,.69.87.44.44,0,0,1-.11.51l-1.25-.18c-.33-.11-.58.12-.85.23Z"/><path class="cls-212" d="M166.43,68.08c0,.54-.14.61-.54.59a.85.85,0,0,1-.82-.69c0-.32.27-.44.61-.22S166.38,67.65,166.43,68.08Z"/><path class="cls-213" d="M171.15,113.29c.57.31.74.65.46,1.21-.21.4-.38.09-.49,0C170.42,114.07,171.21,113.74,171.15,113.29Z"/><path class="cls-126" d="M171,112.15l1,.29c.05.24.06.44-.27.44C171.31,112.88,171.18,112.51,171,112.15Z"/><path class="cls-214" d="M171.61,92.54c.45.32.15.81.26,1.22a.24.24,0,0,1-.27.33c-.29,0-.26-.29-.28-.5A3.91,3.91,0,0,1,171.61,92.54Z"/><path class="cls-215" d="M171.61,92.54c-.07.36.14.79-.29,1-.3-.43,0-.8.12-1.17.08-.16.26-.08.11,0Z"/><path class="cls-216" d="M166.07,135c-.39.37-.75.91-1.36.3.55-.35.62-.7,0-1.06,0-.38.18-.54.54-.55s.43.09.59.27A2.31,2.31,0,0,1,166.07,135Z"/><path class="cls-138" d="M164.73,134.22c.58-.16.64.35.69.66.1.62-.53.15-.71.4l-.11,0h-.11C164.58,134.91,165.07,134.66,164.73,134.22Z"/><path class="cls-160" d="M165.66,134l-.39-.28c0-.2-.09-.51.24-.48s.36.54.6.76l-.07,0,0-.06C165.89,134.08,165.78,134.09,165.66,134Z"/><path class="cls-38" d="M39.7,127.36a5.11,5.11,0,0,1,1.62-1.49C41.23,127,40.53,127,39.7,127.36Z"/><path class="cls-190" d="M32.34,134.4a.27.27,0,0,1-.32.32.64.64,0,0,1-.6-.55.26.26,0,0,1,.3-.31A.78.78,0,0,1,32.34,134.4Z"/><path class="cls-134" d="M56.62,112.73c-.44.66-.82.62-1.41.34C55.64,112.6,56.05,112.71,56.62,112.73Z"/><path class="cls-217" d="M57.38,111.73c-.38.33-.72.6-1.09.22-.07-.07-.11-.28-.06-.33C56.66,111.2,57,111.76,57.38,111.73Z"/><path class="cls-200" d="M33.53,134.1a.68.68,0,0,1-.94-.13c0-.09,0-.22,0-.22C33,133.59,33.35,133.61,33.53,134.1Z"/><path class="cls-2" d="M60.89,107.89c0,.24-.19.26-.37.25s-.37,0-.37-.25.22-.24.38-.25S60.87,107.67,60.89,107.89Z"/><path class="cls-218" d="M36.17,129.94c.11-.33-.14-.53-.26-.79.34,0,.8,0,.88.33S36.42,129.83,36.17,129.94Z"/><path class="cls-219" d="M57.66,110.85c0,.22-.15.26-.32.29s-.37,0-.41-.2.13-.3.31-.33A.35.35,0,0,1,57.66,110.85Z"/><path class="cls-213" d="M44.93,122c.27.22.48.31.49.42s-.2.35-.43.35-.34-.11-.29-.32A1.92,1.92,0,0,1,44.93,122Z"/><path class="cls-69" d="M49.15,119.05h.32c.34.17.17.29,0,.39s-.41.19-.53-.07S49,119.09,49.15,119.05Z"/><path d="M52.24,116.14c-.07-.18.08-.24.19-.24a2,2,0,0,1,.46.11c-.07.1-.12.24-.21.29A.34.34,0,0,1,52.24,116.14Z"/><path class="cls-54" d="M33.32,132.8a3.15,3.15,0,0,1,.61-.35c.09,0,.2.09.3.14-.07.09-.13.24-.21.26A3.59,3.59,0,0,1,33.32,132.8Z"/><path class="cls-21" d="M25.68,137.15c-.51.25-.64.37-.7.34s-.32-.19-.34-.32.12-.3.32-.25A6.54,6.54,0,0,1,25.68,137.15Z"/><path class="cls-220" d="M165.66,134l.33,0c0,.35.62.65.08,1Z"/><path class="cls-221" d="M116.38,54.54c-.58,0-.41-.51-.57-.8-.08-.06-.1-.12-.06-.17s.06-.07.09-.07c.47-.52,1.07-.27,1.63-.28.07.47-.36.29-.55.41a1.56,1.56,0,0,0,.86-.29.54.54,0,0,1,.68.14c.16.4.75,0,.85.45s-.49.28-.6.58l-.48.07C117.61,54.72,117,55,116.38,54.54Z"/><path class="cls-16" d="M116.38,54.54l1.85,0-.52.48L116.37,55Z"/><path class="cls-26" d="M118.22,55.85c.31-.58-.37-.51-.51-.79.34,0,.75-.06.89.35C118.68,55.64,118.43,55.77,118.22,55.85Z"/><path class="cls-43" d="M118.46,53.48l-.75,0a.2.2,0,0,1-.08-.22c0-.07.05-.11.07-.11.46-.55,1.65-.18,1.64-1.31C119.77,52.81,119.82,53.53,118.46,53.48Z"/><path class="cls-72" d="M117.7,53.19v.33a1.52,1.52,0,0,1-1.27.13c.26-.41.78-.1,1-.43A.85.85,0,0,0,117.7,53.19Z"/><path class="cls-16" d="M115.84,53.5a1,1,0,0,1,0,.24c-.44-.06-.94.19-1.29-.27Z"/><path class="cls-53" d="M54,99.46a1,1,0,0,1,0,.17q.14.09.09.18c0,.06-.07.09-.1.09-2,.72-4.09.68-6,1.52a13.81,13.81,0,0,1-3.71,1.22c-.3.12-.39,0-.36-.29a25.15,25.15,0,0,1,8.32-2.61C52.78,99.64,53.33,99.22,54,99.46Z"/><path class="cls-23" d="M43.88,102.35l.36.29-4.88,2.62c-.25-.13-.53-.24-.6-.57C40.27,103.48,42.14,103.07,43.88,102.35Z"/><path class="cls-54" d="M35.33,107.36A15.75,15.75,0,0,1,38,105.23c.29,0,.6,0,.79.28l-3.15,2.2A.45.45,0,0,1,35.33,107.36Z"/><path class="cls-25" d="M32.76,109.52c.51-.51.83-1.3,1.75-1.23v0a2.5,2.5,0,0,1-1.24,1.5A.53.53,0,0,0,32.76,109.52Z"/><path class="cls-36" d="M34.52,108.32v0c-.47-.74.55-.55.6-1a.78.78,0,0,1,.22,0l.33.35A1.11,1.11,0,0,1,34.52,108.32Z"/><path class="cls-222" d="M41.5,111.12a.87.87,0,0,1-.74-1.15c0-.17.28-.32.41-.2C41.56,110.12,41.34,110.59,41.5,111.12Z"/><path class="cls-223" d="M38.81,105.51c-.28,0-.61.06-.79-.28l.74-.54a.94.94,0,0,1,.6.57Z"/><path class="cls-224" d="M70.71,95.55c-.56.09-.83.54-1.29.33-.06,0-.09-.3,0-.32C69.72,95.35,70.06,95,70.71,95.55Z"/><path class="cls-225" d="M54.76,103.43a.87.87,0,0,1,0-1.2C55.13,102.63,55.1,103,54.76,103.43Z"/><path class="cls-226" d="M28.51,117.41c.28.4.34.72.14,1a.35.35,0,0,1-.33,0C28.09,118.12,28.16,117.81,28.51,117.41Z"/><path class="cls-80" d="M58.37,101.06l-.18,1.46c-.63-.67-.19-1.07-.15-1.49Z"/><path class="cls-227" d="M27.16,118.51c-.32,0-.39-.3-.42-.55a.26.26,0,0,1,.3-.31.59.59,0,0,1,.43.56A.26.26,0,0,1,27.16,118.51Z"/><path class="cls-4" d="M13.74,122.79c-.54-.78-.12-1.13-.08-1.78C14.09,121.68,13.79,122.08,13.74,122.79Z"/><path class="cls-228" d="M14.9,121.19a1.47,1.47,0,0,1-.25,1.43C14.26,122.08,14.52,121.78,14.9,121.19Z"/><path class="cls-211" d="M45.62,107.15a1.2,1.2,0,0,1,.63,1.18.52.52,0,0,1-.33.11A1.52,1.52,0,0,1,45.62,107.15Z"/><path class="cls-79" d="M22.45,120.63a.71.71,0,0,1,.05-.91.35.35,0,0,1,.31.06C23,120.15,22.84,120.41,22.45,120.63Z"/><path class="cls-26" d="M31.65,116c0,.2,0,.41-.3.35s-.44-.12-.48-.37,0-.39.27-.32A2.39,2.39,0,0,1,31.65,116Z"/><path class="cls-144" d="M54.2,104.4c-.57-.43-.86-.61-.64-1,0-.08.2-.1.3-.15Z"/><path class="cls-46" d="M54,99.9v-.27l1.9.07A4,4,0,0,1,54,99.9Z"/><path class="cls-229" d="M43.08,109.24h-.52c0-.28-.07-.73.36-.7C43.18,108.58,43.07,109,43.08,109.24Z"/><path class="cls-79" d="M44.15,107.88c0,.23-.06.44-.32.45,0,0-.12-.25-.14-.4a.3.3,0,0,1,.22-.38C44.18,107.51,44.08,107.76,44.15,107.88Z"/><path class="cls-63" d="M51.36,103.62c0,.16-.07.36-.29.24a.67.67,0,0,1-.3-.38c-.05-.17,0-.35.25-.33S51.34,103.39,51.36,103.62Z"/><path class="cls-76" d="M55.76,101.34c.23.55.26.86,0,1.15,0,0-.18,0-.22,0C55.21,102.09,55.57,101.84,55.76,101.34Z"/><path class="cls-220" d="M25.55,119.51c0,.18-.09.36-.32.31a.37.37,0,0,1-.22-.25.3.3,0,0,1,.23-.39C25.48,119.14,25.5,119.35,25.55,119.51Z"/><path class="cls-168" d="M10.94,123.05l-.3-.55c.6-.32.79.21.8.55S11.12,123.1,10.94,123.05Z"/><path class="cls-51" d="M57,101.54c0,.17,0,.45-.3.42a.29.29,0,0,1-.23-.38c.06-.15.15-.38.26-.4S57,101.34,57,101.54Z"/><path class="cls-52" d="M12,121.83c.26,0,.31.21.41.37s.07.32-.15.36-.38-.17-.47-.35S11.79,121.9,12,121.83Z"/><path class="cls-160" d="M17.06,123.1l-.36.23c-.29-.17-.54-.44-.18-.68S16.69,123.16,17.06,123.1Z"/><path class="cls-230" d="M33.14,114.61c-.1-.18-.21-.29-.19-.36a.61.61,0,0,1,.25-.39c.23-.1.3.13.26.29S33.28,114.42,33.14,114.61Z"/><path class="cls-68" d="M39.59,111.68c-.11,0-.21.16-.29.14a.38.38,0,0,1-.28-.48c0-.07.16-.2.23-.19C39.51,111.2,39.48,111.45,39.59,111.68Z"/><path class="cls-80" d="M40.09,111.1c-.37-.11-.41-.4-.36-.71a.46.46,0,0,1,.32-.11A.63.63,0,0,1,40.09,111.1Z"/><path class="cls-85" d="M60.22,96.53a7.63,7.63,0,0,0-1-.26c-.39,0-1.1-.12-1.14,0-.54,1.61-2.43.88-3.27,2-.56.73-1.49.47-2.22.43a47.71,47.71,0,0,1-4.93-.08c-.39-.06-.73-.11-.77-.53s.4-.42.73-.5c1.91-.5,3.77-1.09,5.07-2.72.21-.26.41-.51.76-.32a1.39,1.39,0,0,0,1.27-.18,2,2,0,0,1,2,0,2.47,2.47,0,0,0,3.34-1.47c.08-.27.25-.64.45-.57.92.32,1.8-.28,2.66-.08a2.55,2.55,0,0,0,1.66,0c.28-.11.66-.12.73.31a.52.52,0,0,1-.52.64c-.81,0-1.37.5-2,.74a2,2,0,0,0-1.45,1.63A1,1,0,0,1,60.22,96.53Z"/><path class="cls-172" d="M60.91,91.49c-3.39.71-6.86,1.12-10,2.73-1.83.94-3.67,1.86-5.51,2.79-.35.2-.54.14-.48-.31,1.66-1.67,3.82-2.52,5.85-3.57a37.67,37.67,0,0,1,7.45-2.41A9.94,9.94,0,0,1,60,90.59c.36-.1.61.12.88.29A1.42,1.42,0,0,1,62,90.65c.15,0,.49-.16.37.24,0,.13-.24.22-.36.32C61.69,91.57,61.18,91.09,60.91,91.49Z"/><path class="cls-114" d="M90.37,75.2l-.79-1.06a.59.59,0,0,0,0-.13c-.2-.44-.74-.8-.29-1.38.13-.16.27-.25.43-.16a1.51,1.51,0,0,1,.7,1.31c0,.32-.22.7.22.92Z"/><path class="cls-85" d="M37,101.27c.45.53.15,1.4.84,1.84.2.13.15.4-.08.54a1.11,1.11,0,0,1-1,.22c-.32-.12-.32-.39-.2-.65.26-.55.6-1.09.15-1.71a.21.21,0,0,1-.07-.19c0-.07,0-.1,0-.1A.23.23,0,0,1,37,101.27Z"/><path class="cls-17" d="M44.91,96.7a.51.51,0,0,0,.48.31L43,99C42.94,97.55,44.12,97.3,44.91,96.7Z"/><path class="cls-85" d="M45,99.17c0-.51.31-.54.62-.55s.8.09.86.58-.3.46-.61.47A.78.78,0,0,1,45,99.17Z"/><path class="cls-36" d="M41.78,99a1.85,1.85,0,0,1-2.39,1.12C40.38,100.17,40.63,98.76,41.78,99Z"/><path class="cls-51" d="M66.72,90.13a.51.51,0,0,1,.76-.11c.17.16-.11.38-.2.56-.27.52-.55.21-.84,0C66.33,90.33,66.56,90.25,66.72,90.13Z"/><path class="cls-49" d="M36.78,101.32a.46.46,0,0,0-.08.19c-.56-.05-.66.66-1.31.76a1.82,1.82,0,0,1,1-1.29A.44.44,0,0,1,36.78,101.32Z"/><path class="cls-32" d="M63.43,90.22c.26.3.58.57.21,1a.47.47,0,0,1-.47,0C62.78,90.75,63.2,90.52,63.43,90.22Z"/><path class="cls-85" d="M77.61,87.32c-.23,0-.25-.21-.25-.38s0-.38.25-.38.24.21.24.38S77.84,87.29,77.61,87.32Z"/><path class="cls-231" d="M69.35,89.66c-.15,0-.32-.12-.22-.32a.53.53,0,0,1,.37-.26.25.25,0,0,1,.26.33C69.72,89.6,69.56,89.66,69.35,89.66Z"/><path class="cls-232" d="M60.91,90.88c-.35.07-.59-.16-.88-.29C60.47,90.26,60.9,89.92,60.91,90.88Z"/><path class="cls-233" d="M60.91,91.49c.24-.55.69-.28,1.07-.28C61.86,92.22,61.16,91,60.91,91.49Z"/><path class="cls-76" d="M36.78,101.32l-.35-.34c.16-.12.3-.36.53-.25s0,.36,0,.54Z"/><path class="cls-54" d="M66.72,90.13l-.28.47c-.2,0-.48.06-.42-.23S66.43,90.05,66.72,90.13Z"/><path class="cls-36" d="M64.82,90.1c.11.14.24.24.22.31a.32.32,0,0,1-.21.23c-.1,0-.22-.06-.34-.09Z"/><path class="cls-94" d="M12.52,103.36,11,104.72l-1.58.62c-.33.13-.67.27-1,0s-.12-.7,0-1.06.28-.73.41-1.1a5.79,5.79,0,0,1,2.56-2.48c.67-.29,1.31-.5,1.84,0s0,1-.17,1.54S12.46,102.85,12.52,103.36Z"/></g></g></g></svg>