<svg xmlns="http://www.w3.org/2000/svg" viewBox="0 0 175.83 153.71"><defs><style>.cls-1{fill:#fff;}</style></defs><g id="Laag_2" data-name="Laag 2"><g id="Laag_1-2" data-name="Laag 1"><circle class="cls-1" cx="36.41" cy="24.9" r="2.47"/><circle class="cls-1" cx="59.15" cy="92.35" r="2.47"/><circle class="cls-1" cx="42.83" cy="113.34" r="1.51"/><circle class="cls-1" cx="125.39" cy="132.66" r="1.51"/><circle class="cls-1" cx="75.54" cy="148.76" r="1.51"/><circle class="cls-1" cx="38.88" cy="100.16" r="1.51"/><circle class="cls-1" cx="81.59" cy="59.99" r="1.51"/><circle class="cls-1" cx="123.88" cy="60.76" r="1.51"/><circle class="cls-1" cx="123.88" cy="111.83" r="1.51"/><circle class="cls-1" cx="41.9" cy="44.48" r="1.51"/><circle class="cls-1" cx="47.16" cy="32.82" r="1.51"/><circle class="cls-1" cx="149.09" cy="54" r="2.47"/><circle class="cls-1" cx="173.36" cy="151.24" r="2.47"/><circle class="cls-1" cx="2.47" cy="148.76" r="2.47"/><polygon class="cls-1" points="87.4 75.92 89.66 80.5 94.71 81.23 91.05 84.8 91.92 89.83 87.4 87.45 82.88 89.83 83.74 84.8 80.09 81.23 85.14 80.5 87.4 75.92"/><polygon class="cls-1" points="139.25 83.25 140.73 86.24 144.04 86.72 141.64 89.06 142.21 92.35 139.25 90.8 136.29 92.35 136.86 89.06 134.47 86.72 137.77 86.24 139.25 83.25"/><polygon class="cls-1" points="14.62 97.52 16.1 100.51 19.41 100.99 17.02 103.33 17.58 106.62 14.62 105.06 11.67 106.62 12.23 103.33 9.84 100.99 13.14 100.51 14.62 97.52"/><polygon class="cls-1" points="94.71 28.27 96.19 31.26 99.5 31.74 97.1 34.07 97.67 37.37 94.71 35.81 91.75 37.37 92.32 34.07 89.92 31.74 93.23 31.26 94.71 28.27"/><polygon class="cls-1" points="7.31 36.02 9.57 40.6 14.62 41.33 10.97 44.9 11.83 49.93 7.31 47.55 2.79 49.93 3.66 44.9 0 41.33 5.05 40.6 7.31 36.02"/><polygon class="cls-1" points="87.4 134.85 89.66 139.43 94.71 140.17 91.05 143.73 91.92 148.76 87.4 146.39 82.88 148.76 83.74 143.73 80.09 140.17 85.14 139.43 87.4 134.85"/><polygon class="cls-1" points="149.09 0 151.35 4.58 156.4 5.31 152.75 8.88 153.61 13.91 149.09 11.53 144.57 13.91 145.43 8.88 141.78 5.31 146.83 4.58 149.09 0"/></g></g></svg>