<svg xmlns="http://www.w3.org/2000/svg" viewBox="0 0 116.63 203.53"><defs><style>.cls-1{fill:#191919;}.cls-2{fill:#fdfdfd;}</style></defs><g id="Laag_2" data-name="Laag 2"><g id="Laag_1-2" data-name="Laag 1"><g id="iWREBr"><path class="cls-1" d="M97.51,165.16a3.5,3.5,0,0,0-.39,2.29c0,1.46.12,2.92.22,4.37a1.57,1.57,0,0,1-.46,1.45c-.39.31-.77.85-1.33.67s-.68-.78-.69-1.33c0-1.63,0-3.27,0-4.9,0-.58,0-1.22-.67-1.44s-.73.47-1.08.74c-1.39,1.1-1.5,2.55-1.44,4.17.08,2.43.42,4.86,0,7.28-.13.66-.29,1.49-1.11,1.38a1.43,1.43,0,0,1-1.07-1.64c.1-1.94.27-3.87.36-5.81a9,9,0,0,0-.66-4.41c-.54-1.12-1.18-1.22-2-.27A7.85,7.85,0,0,0,85.27,172c-.11,1.1-.24,2.2-.45,3.28-.07.33-.16.91-.61.91s-.69-.48-.91-.87-.13-1-.61-1.36a6.16,6.16,0,0,0-.74,3.17c.12,2.07-.4,4.08-.46,6.13,0,.55-.11,1.16-.77,1.22s-.87-.62-1-1.18a10.46,10.46,0,0,1-.06-3.44,42.77,42.77,0,0,0-.35-9.92c-.23-2.15-1.6-3.37-3.29-4.34-.87-.49-1.1.33-1.3.86a11.27,11.27,0,0,0-.26,4.59,23.64,23.64,0,0,1,.06,2.38,1.14,1.14,0,0,1-.9,1.17c-.68.12-1-.3-1.27-.9a4.28,4.28,0,0,1,0-2.74,7.93,7.93,0,0,0-.5-5.17c-.33-.75-.76-1.39-1.63-1.31s-1,.75-1.23,1.38c-1.92,4.43-1.2,9-.9,13.58.15,2.25.2,4.5.29,6.75a2,2,0,0,1-.09.65c-.21.7-.52,1.5-1.29,1.52s-.69-.94-.75-1.45a66.41,66.41,0,0,1-.22-10.46c.08-3.13.44-6.26.29-9.39a8.29,8.29,0,0,0-.78-3.07c-.39-.86-.79-.69-1.17,0a4.52,4.52,0,0,0-.7,2.53c.12,2.73.24,5.46.44,8.19a5,5,0,0,1-.72,3.41c-.14.19-.12.57-.51.48a.73.73,0,0,1-.5-.57,7.5,7.5,0,0,1-.37-2.61c.06-2.25-.09-4.49.17-6.75a16.9,16.9,0,0,0-1.16-7.95c-1.43-3.77-.79-7.34-.05-11.05a125.67,125.67,0,0,0,2.45-17.28,4.17,4.17,0,0,0-.6-2.8,1.61,1.61,0,0,1-.28-1.27c.55-2.41-1.09-3.79-2.66-4.87-4.46-3.07-9-6-13.64-8.8-2-1.23-4.13-2.12-5.9-3.72a4.69,4.69,0,0,1-1.61-2.46c-.28-1.21-.55-2.41-.79-3.63a6.33,6.33,0,0,0-3.42-4.45C32.37,99.12,30,98.16,28,96.51a3.93,3.93,0,0,1-1.17-1.37c-.94-2-1.91-4.07-2.82-6.12-1.3-2.94-3.61-5.1-5.66-7.46-2.25-2.6-4.76-5-6.82-7.76-1.19-1.59-3-2.68-4-4.48A2.7,2.7,0,0,1,6.84,68c-.12-4.13-1.74-7.89-3-11.76C2.84,53,1.44,49.84.17,46.64-.32,45.41.38,44.22.46,43,.87,36.41,2,29.85,1.62,23.19c-.06-.94-.26-2.09.84-2.72a3.73,3.73,0,0,1,3.79.05c3.25,1.7,5,4.38,6.09,7.88,1.33,4.37,1.34,8.77,1.09,13.21a7,7,0,0,0,1.13,4c.87,1.59,2.09,2.95,3,4.54C19.06,53,21,55.66,21.3,59c.07.83.72,1,1.21,1.38a23.25,23.25,0,0,0,6.4,3.43,2,2,0,0,0,2-.35c2.87-1.94,2.79-4.94,2.94-7.82a14.14,14.14,0,0,0-2.33-8c-.85-1.41-.66-3.09-.69-4.64-.05-2.72.36-5.43-.18-8.17A44.07,44.07,0,0,0,29,27.93a7.72,7.72,0,0,1-.08-5.52,35,35,0,0,0,1.95-8.75A48.88,48.88,0,0,1,33,3,3.79,3.79,0,0,1,36.53.34,7.56,7.56,0,0,0,38,.17a2.73,2.73,0,0,1,3.49,1.3,19.2,19.2,0,0,1,3.41,11.75c-.15,2.91.15,5.83-.38,8.73a7.27,7.27,0,0,0,.35,2.48c.82,4.7,1.49,9.41,2,14.14a18.44,18.44,0,0,1,.2,2.77C47,44,48.4,46.11,49.74,48.25c.95,1.53,1.86,3.11,2.67,4.72s2.2,2.5,3.47,3.57c.58.49,2.13,0,2.78-.89a13,13,0,0,0,2.41-6.89,17.62,17.62,0,0,0-.68-6.33,20.48,20.48,0,0,1,0-9.72,13.14,13.14,0,0,0-.09-5.89,13.52,13.52,0,0,1-.27-4.05,28.92,28.92,0,0,1,1.59-8.3c1.22-3,2.7-3.85,5.9-3.83,3.55,0,3.74.93,4.38,3.7C73,19,74.16,23.63,74.21,28.43a37.67,37.67,0,0,1-.47,6.46,11.35,11.35,0,0,0,0,3.81,45.89,45.89,0,0,1,.41,6.08,66,66,0,0,0,1.57,11,5.46,5.46,0,0,0,.71,1.56,3.92,3.92,0,0,0,6.77.53A5.82,5.82,0,0,1,85,56.14a1,1,0,0,0,.56-1,62.63,62.63,0,0,1,1.19-9,4.81,4.81,0,0,0-.55-3.32c-2.88-5.64-2.53-11.53-1.39-17.47a2.26,2.26,0,0,1,1.77-1.91,24.88,24.88,0,0,1,4.28-.82,2.36,2.36,0,0,1,2.68,1.82q1.31,4,2.63,7.91c1.23,3.69,2.4,7.39,3.71,11a12.52,12.52,0,0,1,.47,7.24c-1,4.31-2,8.61-2.75,13-.54,3.22-.06,6.52,0,9.79a3.23,3.23,0,0,0,.73,1.68c2.29,3.14,4.92,6,7.29,9.09A57.91,57.91,0,0,1,113,97.56a49,49,0,0,1,2.8,11,27.64,27.64,0,0,0,.7,2.82,5.83,5.83,0,0,1-.63,4.24,27.41,27.41,0,0,0-2.37,9.71A113.3,113.3,0,0,0,113,137c0,6.06.11,12.12.25,18.17.07,2.63-.51,5.19-.61,7.8,0,1.1-.12,2.2,0,3.31,0,.59,0,1.26-.72,1.37s-1-.55-1.17-1.17-.19-1.4-.33-2.09c-.08-.43-.19-.9-.79-.9s-.57.64-.58,1a39.9,39.9,0,0,0,.59,7.64c.08.58.24,1.15-.37,1.56s-1.33.63-1.74-.42a10.25,10.25,0,0,1-.49-4.56,15.63,15.63,0,0,0,0-4.1c-.09-.42-.19-.94-.74-1s-.54.5-.66.84a18.2,18.2,0,0,0-1.12,5.17,213.58,213.58,0,0,0,.45,28.73,16.55,16.55,0,0,1,0,4.1c-.06.41,0,1.09-.5,1.11a1.62,1.62,0,0,1-1.5-.65,3.13,3.13,0,0,1-.65-1.85c.45-7.72.18-15.44.18-23.16a99.88,99.88,0,0,0-.77-10.26,7.13,7.13,0,0,0-.72-2.41c-.24-.48-.46-.42-.76-.06C99,166.63,98.54,166.64,97.51,165.16Zm-22.37-75A15.14,15.14,0,0,1,72.24,89a8.79,8.79,0,0,0-3.48-.69c-2.91,0-5.82-.1-8.73-.22-.76,0-.67.3-.54.79A5.07,5.07,0,0,1,60,91.33a20.06,20.06,0,0,1-1.43-1.9c-1.75-3-3.2-6.26-5.26-9.11-.75-1-1.34-2.42-3.1-2.45a33.61,33.61,0,0,0,5.38-11.66c.67-2.4,1-4.95-.32-7.34a11,11,0,0,0-4-4.18c-.27-.17-.56-.45-1-.21a2.14,2.14,0,0,1,0,.75c-1,2.6-2,5.19-3.07,7.76-.4,1-2.64,2-3.5,1.63a1.25,1.25,0,0,0-1.7.32,1.22,1.22,0,0,1,.14-1.06,27.68,27.68,0,0,0,3.08-7.28,25.44,25.44,0,0,1,1.19-3.93c.48-1.26,1.09-1.39,2.23-.67a8.47,8.47,0,0,0,2.43,1.33l.34.08,0-.34a84.19,84.19,0,0,0-5-8.7,4.23,4.23,0,0,1-.76-2.46,62.88,62.88,0,0,0-.78-11.63,55.39,55.39,0,0,0-2-7.11,2.52,2.52,0,0,1-.07-1.69A21.92,21.92,0,0,0,44.07,13a19.61,19.61,0,0,0-2.44-9.91c-1-1.66-1.66-2.07-3.43-1.71-1,.19-1.88.47-2.81.75a2,2,0,0,0-1.5,1.36A38.85,38.85,0,0,0,33,7.79c-.75,5.47-1.77,10.9-3,16.29a4.55,4.55,0,0,0,0,2.23c1.08,4.07,1.32,8.28,2,12.41.33,1.79-.11,3.59.26,5.4C32.87,47,34,49.6,34.6,52.41c.94,4.43.68,8.61-2.55,12.16-.43.48-.32.72.19,1,.69.39,1.36.82,2,1.23a.49.49,0,0,1,.26.56c0,.22-.24.24-.41.17a31.41,31.41,0,0,1-4.81-1.78c-2.51-1.38-4.92-3-7.36-4.45a2.56,2.56,0,0,1-1.49-2c-.48-3.48-2.3-6.38-4.08-9.26-1.31-2.14-2.93-4.09-3.83-6.47-.23-.61-.4-.54-.89-.09A4,4,0,0,1,8.6,44.75c1.1,0,1.69-1.07,2.6-1.35a1.76,1.76,0,0,0,1.33-1.81A49.09,49.09,0,0,0,12.61,36,21.34,21.34,0,0,0,9.72,25.28a4.22,4.22,0,0,0-2.09-2c-1.11-.43-2.23-.85-3.35-1.24-1.6-.54-1.8-.39-1.68,1.26a41.46,41.46,0,0,1-.08,7.39c-.36,3.47-.66,7-.83,10.42A30.14,30.14,0,0,0,3.51,52.21c1.72,5.06,3.58,10.07,4.91,15.25a5.88,5.88,0,0,0,1,2.13,107.48,107.48,0,0,0,7.36,8.87,81.31,81.31,0,0,1,6.48,7.15,38.15,38.15,0,0,1,3.45,6,17.86,17.86,0,0,0,5.71,6.16c1.61,1.18,3.47,2.06,5,3.37.24.2.51.62.89.37s.11-.57.12-.86c0-2.63-.78-5.15-.9-7.77-.24-4.9-.59-9.81-2.33-14.47a5.49,5.49,0,0,1,1.35-6.29,26.29,26.29,0,0,0,4.48-5.54c.12-.22.11-.65.58-.55.18.49-.14.87-.32,1.25-1,2.2-2.74,3.88-4.31,5.66A4.69,4.69,0,0,0,36,77.25c.89,4.24,1.75,8.47,2.22,12.79.59,5.36,1.47,10.68,2.16,16a4.59,4.59,0,0,0,1,2.55,19.49,19.49,0,0,0,4.42,4.18c4.4,2.59,8.26,6,12.86,8.34a32.63,32.63,0,0,1,4.63,3.24c5,3.67,10.76,5.43,16.67,6.85a8.27,8.27,0,0,0,4.33-.07,1.91,1.91,0,0,1,1.55.18,37.59,37.59,0,0,1-5.14,1,6.12,6.12,0,0,1-4.58-1.27,4.16,4.16,0,0,0-1.35-.8A91.49,91.49,0,0,1,64.37,127c-.24,1.25.15,1.88,1.36,2a4.43,4.43,0,0,1,2.07.6,12.33,12.33,0,0,1-1.36.37,1.76,1.76,0,0,0-1.78,1.82c-.22,2.64-.54,5.28-.92,7.9-.55,3.71-1.45,7.39-1.75,11.12-.44,5.68-.85,5,3.85,8.13,2.08,1.38,4.46,2.12,6.59,3.41,4.21,2.56,8.62,3.74,13.65,2.26,3.07-.9,6.25-1.55,9.39-2.29,4.8-1.12,9.7-1.94,14.09-4.44a4.05,4.05,0,0,0,2.25-3.14c.46-2.65.11-5.29.17-7.94.2-8.61-.17-17.25.84-25.84.21-1.75.1-1.76-1.55-1.55-.06,0-.12-.09-.22-.19a1.62,1.62,0,0,1,.34-.35c2.45-1.49,3.17-4,3.35-6.53a32.18,32.18,0,0,0-1-9.46c-1.29-5.68-4.18-10.67-7.56-15.33-2.38-3.29-5.09-6.34-7.56-9.56-.85-1.11-2.2-2-2.36-3.43a32.8,32.8,0,0,1,0-7.67c.51-4.34,1.24-8.65,2-12.95.52-2.81,1-5.69.26-8.55C97.17,40,95.75,34.65,94.21,29.3A12.7,12.7,0,0,0,92,24.24a1.12,1.12,0,0,0-.93-.55c-3.29-.06-4.81,1-5.71,4.18A9.18,9.18,0,0,0,85,29.82c-.21,4.49,0,8.92,2.2,13,.43.79.67,1.68,2.11,1.77a2.39,2.39,0,0,0-1.49,1.88A54.34,54.34,0,0,0,86.2,56.77c0,.61-.15.73-.72.7-.79,0-.79,0-1,.74l0,0c-1,.08-1.14,1.18-2,1.49-2.06.78-4.09,1.63-6.13,2.44a.87.87,0,0,1-1-.07,4.31,4.31,0,0,0,1.84-1.45c.22-.23.48-.44.12-.76a8.61,8.61,0,0,1-2.69-4.56l-.29,2.32c-.48-.38-.35-.85-.34-1.27a32.92,32.92,0,0,0-.66-6.18,27.24,27.24,0,0,1-.64-6,58.68,58.68,0,0,0-.23-6.22c-.1-1.74-.71-3.51-.08-5.22a15.57,15.57,0,0,0,.72-4.88,35.35,35.35,0,0,0-2.8-14.47,1.81,1.81,0,0,0-.91-1.08,5.65,5.65,0,0,0-7.37,3.35,20.86,20.86,0,0,0-.58,10.6c.34,1.85,0,3.91,1.57,5.44l-1.55-1.39a25.69,25.69,0,0,0,0,12.83c.46,1.58.34,3.54,2.4,4.28C62.09,47,62.09,47,61.79,48.9c0,.22,0,.44-.07.66-.51,3.32-1.15,6.59-4.38,8.49-.63.37-.67.74-.6,1.39a14.36,14.36,0,0,1-.28,6c-1.05,3.33-2.06,6.66-3.36,9.91-.63,1.59.81,4.34,2.42,5s3.27.4,4.91.77c-.32.43-.69.24-1,.27-1.14.09-2.27-.4-3.42-.07-.26.07-.81,0-.57.44.88,1.58,1,3.68,3.1,4.43a16.62,16.62,0,0,0,3.31.93c2.67.38,5.37.32,8.06.51,2,.14,4,.68,5.23,2.5Zm-31-25.91a2.7,2.7,0,0,0,2.14-1.37,21.18,21.18,0,0,0,2.93-8,1.86,1.86,0,0,0-1.47-1.94c-.82-.27-.91.79-1,1.37a27.65,27.65,0,0,1-3.12,8.23C43.12,63.45,43.42,64.24,44.17,64.23Z"/><path class="cls-2" d="M51.14,53.33A8.47,8.47,0,0,1,48.71,52c-1.14-.72-1.75-.59-2.23.67a25.44,25.44,0,0,0-1.19,3.93,27.68,27.68,0,0,1-3.08,7.28,1.22,1.22,0,0,0-.14,1.06,1.25,1.25,0,0,1,1.7-.32c.86.4,3.1-.67,3.5-1.63,1.08-2.57,2.07-5.16,3.07-7.76a2.14,2.14,0,0,0,0-.75c.43-.24.72,0,1,.21a11,11,0,0,1,4,4.18c1.28,2.39,1,4.94.32,7.34a33.61,33.61,0,0,1-5.38,11.66c1.76,0,2.35,1.4,3.1,2.45,2.06,2.85,3.51,6.07,5.26,9.11A20.06,20.06,0,0,0,60,91.33a5.07,5.07,0,0,0-.49-2.47c-.13-.49-.22-.82.54-.79,2.91.12,5.82.21,8.73.22a8.79,8.79,0,0,1,3.48.69,15.14,15.14,0,0,0,2.9,1.16,45.82,45.82,0,0,1,5,4.64,1.22,1.22,0,0,0,.43.31,31.44,31.44,0,0,1,8.76,6,19.71,19.71,0,0,0,4.07,3.25c-.27-.83-1.07-1.17-1.61-1.75A60.19,60.19,0,0,0,85,96.19c-2.47-1.9-5.19-3.47-7.7-5.35a2.32,2.32,0,0,0-2.16-.67c-1.27-1.82-3.21-2.36-5.23-2.5-2.69-.19-5.39-.13-8.06-.51a16.62,16.62,0,0,1-3.31-.93c-2.12-.75-2.22-2.85-3.1-4.43-.24-.44.31-.37.57-.44,1.15-.33,2.28.16,3.42.07.34,0,.71.16,1-.27-1.64-.37-3.34-.13-4.91-.77s-3.05-3.4-2.42-5c1.3-3.25,2.31-6.58,3.36-9.91a14.36,14.36,0,0,0,.28-6c-.07-.65,0-1,.6-1.39,3.23-1.9,3.87-5.17,4.38-8.49,0-.22,0-.44.07-.66.3-1.94.3-1.94,2.18-1.56-2.06-.74-1.94-2.7-2.4-4.28a25.69,25.69,0,0,1,0-12.83l1.55,1.39c-1.57-1.53-1.23-3.59-1.57-5.44a20.86,20.86,0,0,1,.58-10.6,5.65,5.65,0,0,1,7.37-3.35,1.81,1.81,0,0,1,.91,1.08,35.35,35.35,0,0,1,2.8,14.47,15.57,15.57,0,0,1-.72,4.88c-.63,1.71,0,3.48.08,5.22a58.68,58.68,0,0,1,.23,6.22,27.24,27.24,0,0,0,.64,6,32.92,32.92,0,0,1,.66,6.18c0,.42-.14.89.34,1.27l.29-2.32a8.61,8.61,0,0,0,2.69,4.56c.36.32.1.53-.12.76A4.31,4.31,0,0,1,75.45,62a.87.87,0,0,0,1,.07c2-.81,4.07-1.66,6.13-2.44.82-.31,1-1.41,2-1.49,0,.74-.81,1.31-.51,2.12-.05-.06-.09-.13-.14-.2l-.08.1.22.1c0-.74,1.16-1.2.48-2.09.2-.74.2-.79,1-.74.57,0,.68-.09.72-.7a54.34,54.34,0,0,1,1.64-10.29,2.39,2.39,0,0,1,1.49-1.88c-1.44-.09-1.68-1-2.11-1.77-2.23-4.09-2.41-8.52-2.2-13a9.18,9.18,0,0,1,.36-1.95c.9-3.16,2.42-4.24,5.71-4.18a1.12,1.12,0,0,1,.93.55,12.7,12.7,0,0,1,2.19,5.06c1.54,5.35,3,10.73,4.39,16.11.77,2.86.26,5.74-.26,8.55-.79,4.3-1.52,8.61-2,12.95a32.8,32.8,0,0,0,0,7.67C96.44,76,97.79,76.9,98.64,78c2.47,3.22,5.18,6.27,7.56,9.56,3.38,4.66,6.27,9.65,7.56,15.33a32.18,32.18,0,0,1,1,9.46c-.18,2.51-.9,5-3.35,6.53a1.62,1.62,0,0,0-.34.35c.1.1.16.2.22.19,1.65-.21,1.76-.2,1.55,1.55-1,8.59-.64,17.23-.84,25.84-.06,2.65.29,5.29-.17,7.94a4.05,4.05,0,0,1-2.25,3.14c-4.39,2.5-9.29,3.32-14.09,4.44-3.14.74-6.32,1.39-9.39,2.29-5,1.48-9.44.3-13.65-2.26-2.13-1.29-4.51-2-6.59-3.41-4.7-3.1-4.29-2.45-3.85-8.13.3-3.73,1.2-7.41,1.75-11.12.38-2.62.7-5.26.92-7.9A1.76,1.76,0,0,1,66.44,130a12.33,12.33,0,0,0,1.36-.37,4.43,4.43,0,0,0-2.07-.6c-1.21-.1-1.6-.73-1.36-2a91.49,91.49,0,0,0,10.37,3.27,4.16,4.16,0,0,1,1.35.8,6.12,6.12,0,0,0,4.58,1.27,37.59,37.59,0,0,0,5.14-1,1.91,1.91,0,0,0-1.55-.18,8.27,8.27,0,0,1-4.33.07C74,129.8,68.24,128,63.26,124.37a32.63,32.63,0,0,0-4.63-3.24c-4.6-2.3-8.46-5.75-12.86-8.34a19.49,19.49,0,0,1-4.42-4.18,4.59,4.59,0,0,1-1-2.55c-.69-5.34-1.57-10.66-2.16-16-.47-4.32-1.33-8.55-2.22-12.79A4.69,4.69,0,0,1,37.06,73c1.57-1.78,3.29-3.46,4.31-5.66.18-.38.5-.76.32-1.25-.47-.1-.46.33-.58.55a26.29,26.29,0,0,1-4.48,5.54,5.49,5.49,0,0,0-1.35,6.29C37,83.08,37.37,88,37.61,92.89c.12,2.62.93,5.14.9,7.77,0,.29.17.68-.12.86s-.65-.17-.89-.37c-1.57-1.31-3.43-2.19-5-3.37a17.86,17.86,0,0,1-5.71-6.16,38.15,38.15,0,0,0-3.45-6,81.31,81.31,0,0,0-6.48-7.15,107.48,107.48,0,0,1-7.36-8.87,5.88,5.88,0,0,1-1-2.13C7.09,62.28,5.23,57.27,3.51,52.21A30.14,30.14,0,0,1,1.69,41.16c.17-3.47.47-6.95.83-10.42a41.46,41.46,0,0,0,.08-7.39c-.12-1.65.08-1.8,1.68-1.26,1.12.39,2.24.81,3.35,1.24a4.22,4.22,0,0,1,2.09,2A21.34,21.34,0,0,1,12.61,36a49.09,49.09,0,0,1-.08,5.56A1.76,1.76,0,0,1,11.2,43.4c-.91.28-1.5,1.3-2.6,1.35a4,4,0,0,0,3.07-1.23c.49-.45.66-.52.89.09.9,2.38,2.52,4.33,3.83,6.47,1.78,2.88,3.6,5.78,4.08,9.26a2.56,2.56,0,0,0,1.49,2c2.44,1.49,4.85,3.07,7.36,4.45a31.41,31.41,0,0,0,4.81,1.78c.17.07.36,0,.41-.17a.49.49,0,0,0-.26-.56c-.68-.41-1.35-.84-2-1.23-.51-.28-.62-.52-.19-1,3.23-3.55,3.49-7.73,2.55-12.16C34,49.6,32.87,47,32.31,44.12c-.37-1.81.07-3.61-.26-5.4-.73-4.13-1-8.34-2-12.41a4.55,4.55,0,0,1,0-2.23c1.23-5.39,2.25-10.82,3-16.29a38.85,38.85,0,0,1,.85-4.27,2,2,0,0,1,1.5-1.36c.93-.28,1.86-.56,2.81-.75,1.77-.36,2.44.05,3.43,1.71A19.61,19.61,0,0,1,44.07,13a21.92,21.92,0,0,1-1.28,8.45,2.52,2.52,0,0,0,.07,1.69,55.39,55.39,0,0,1,2,7.11,62.88,62.88,0,0,1,.78,11.63,4.23,4.23,0,0,0,.76,2.46,84.19,84.19,0,0,1,5,8.7Zm57,67.67c-1.18.84-2.8,1.27-3.07,3-.62,3.9-1.19,7.82-1.76,11.74,0,.22-.11.57.29.6s.35-.23.39-.45c.11-.56.16-1.14.3-1.69.56-2.19.48-4.47.94-6.67A20,20,0,0,1,108.14,121Zm-23-29.34c-.88-2.91-1.44-5.89-2.42-8.9.33,1.44-.2,1.21-1.06.82a16.06,16.06,0,0,1-4.38-2.72c1.31,1.94,3.59,2.79,4.94,4.64S83.86,89.75,85.16,91.66Zm18.1,23.79c-2.09-2-3.38-4.67-5.78-6.34C99.32,111.32,100.1,114.48,103.26,115.45Zm-.84,17.35.3,0c.17-2.65.34-5.3.49-7.95,0-.26,0-.63-.25-.69s-.71.3-1,.51a.41.41,0,0,0-.1.67c1.14,1.35.75,3,.75,4.51C102.58,130.85,102.47,131.83,102.42,132.8ZM72.61,79.36a16.65,16.65,0,0,0-5.81,1C68.9,81.09,70.79,80.43,72.61,79.36Zm-12-15.24a1.88,1.88,0,0,0,2.51,1.61C62.42,65,61.32,64.91,60.63,64.12ZM88,130.82a12.7,12.7,0,0,0,4.59-1.72Zm.56-70.73A5.14,5.14,0,0,0,91,60.9,5.22,5.22,0,0,0,88.6,60.09ZM74.86,79.36c.22,0,.42.13.55.08.29-.11.88.53.84-.21,0-.38.57-.75.1-1s-.68.27-1,.48S74.86,78.87,74.86,79.36Z"/><path class="cls-2" d="M44.17,64.24c-.75,0-1.05-.79-.54-1.71a27.65,27.65,0,0,0,3.12-8.23c.11-.58.2-1.64,1-1.37a1.86,1.86,0,0,1,1.47,1.94,21.18,21.18,0,0,1-2.93,8A2.73,2.73,0,0,1,44.17,64.24Z"/><path class="cls-2" d="M51.45,53.07l0,.34-.34-.08Z"/><path class="cls-1" d="M75.11,90.17a2.32,2.32,0,0,1,2.16.67c2.51,1.88,5.23,3.45,7.7,5.35a60.19,60.19,0,0,1,6.83,6.44c.54.58,1.34.92,1.61,1.75a19.71,19.71,0,0,1-4.07-3.25,31.44,31.44,0,0,0-8.76-6,1.22,1.22,0,0,1-.43-.31,45.82,45.82,0,0,0-5-4.64Z"/><path class="cls-1" d="M108.14,121a20,20,0,0,0-2.91,6.51c-.46,2.2-.38,4.48-.94,6.67-.14.55-.19,1.13-.3,1.69,0,.22-.11.47-.39.45s-.32-.38-.29-.6c.57-3.92,1.14-7.84,1.76-11.74C105.34,122.27,107,121.84,108.14,121Z"/><path class="cls-1" d="M85.16,91.66c-1.3-1.91-1.56-4.3-2.92-6.16s-3.63-2.7-4.94-4.64a16.06,16.06,0,0,0,4.38,2.72c.86.39,1.39.62,1.06-.82C83.72,85.77,84.28,88.75,85.16,91.66Z"/><path class="cls-1" d="M103.26,115.45c-3.16-1-3.94-4.13-5.78-6.34C99.88,110.78,101.17,113.47,103.26,115.45Z"/><path class="cls-1" d="M102.42,132.8c0-1,.16-2,.16-2.93,0-1.54.39-3.16-.75-4.51a.41.41,0,0,1,.1-.67c.32-.21.6-.61,1-.51s.27.43.25.69c-.15,2.65-.32,5.3-.49,7.95Z"/><path class="cls-1" d="M72.61,79.36c-1.82,1.07-3.71,1.73-5.81,1A16.65,16.65,0,0,1,72.61,79.36Z"/><path class="cls-1" d="M60.63,64.12c.69.79,1.79.89,2.51,1.61A1.88,1.88,0,0,1,60.63,64.12Z"/><path class="cls-1" d="M88,130.82l4.59-1.72A12.7,12.7,0,0,1,88,130.82Z"/><path class="cls-1" d="M88.6,60.09A5.22,5.22,0,0,1,91,60.9,5.14,5.14,0,0,1,88.6,60.09Z"/><path class="cls-1" d="M74.86,79.36c0-.49.31-.54.51-.68s.55-.73,1-.48-.12.65-.1,1c0,.74-.55.1-.84.21C75.28,79.49,75.08,79.4,74.86,79.36Z"/><path class="cls-1" d="M84,60.31c-.3-.82.46-1.39.51-2.13l0,0c.68.89-.5,1.35-.48,2.09Z"/><path class="cls-1" d="M84,60.3l-.22-.1.08-.1c0,.07.09.14.14.2Z"/></g></g></g></svg>