<svg xmlns="http://www.w3.org/2000/svg" xmlns:xlink="http://www.w3.org/1999/xlink" viewBox="0 0 111.02 84.04"><defs><style>.cls-1{fill:url(#Naamloos_verloop_39);}.cls-2{fill:url(#Naamloos_verloop_58);}</style><linearGradient id="Naamloos_verloop_39" x1="41.86" y1="76.55" x2="113.66" y2="4.74" gradientUnits="userSpaceOnUse"><stop offset="0.02" stop-color="#2d2e83"/><stop offset="0.3" stop-color="#604a98"/><stop offset="0.67" stop-color="#f29ac2"/><stop offset="1" stop-color="#fed698"/></linearGradient><linearGradient id="Naamloos_verloop_58" x1="13.08" y1="69.14" x2="33.92" y2="48.31" gradientUnits="userSpaceOnUse"><stop offset="0.02" stop-color="#2d2e83"/><stop offset="0.27" stop-color="#604a98"/><stop offset="0.42" stop-color="#8960a4"/><stop offset="0.6" stop-color="#b679b1"/><stop offset="0.77" stop-color="#d78bba"/><stop offset="0.91" stop-color="#eb96c0"/><stop offset="1" stop-color="#f29ac2"/></linearGradient></defs><g id="Laag_2" data-name="Laag 2"><g id="Laag_1-2" data-name="Laag 1"><path class="cls-1" d="M48.79,82.27C58,75.9,87.24,43.57,85,42,83.49,41,64.08,64.26,60.19,65.4c-3.1.91-20.64-14.82-17.9-23.69,3.58-11.59,13.43-14,34.22-23.16.68-.29,5.58,9.93,6.28,9.62s-2.74-11.19-2-11.53c5-2.24,10.47-4.87,16.59-8.06C100.14,7.15,108.92,0,108.92,0A36.89,36.89,0,0,1,111,12.92c-.06,25.56-5.21,38-9.6,41.79-10.52,9.13-29.54,11-29.54,11-4,4.35-9.32,12.06-16.94,17C50.82,85.41,47.25,83.34,48.79,82.27Z"/><path class="cls-2" d="M46.61,72.79c1.9-1.07.34-12.87-7.06-18.68-6.49-5.1-12.45-2.32-20.1-4.73-.46-.15-.93-.31-1.4-.5s.54,4.49,0,4.25c-.83-.4-3.2-5.76-4.07-6.32C6.42,42,4.28,35.25,1.86,36.17s-2.26,8.88-.61,14.9a36.25,36.25,0,0,0,21.28,23.4c6.17,2.48,16.37,2.65,21,1.91.66-.11,4.43,1.72,4.92,1.56.9-.29.69-.84.42-1.22C48.05,75.59,37,72.29,31.5,69.35c-5.16-2.78-9.92-6.42-9.56-7.34.23-.61,6.67,3.58,12.79,6.55S45.55,73.39,46.61,72.79Z"/></g></g></svg>